<svg width="116" height="121" viewBox="0 0 116 121" fill="none" xmlns="http://www.w3.org/2000/svg">
<path d="M4.80909 70.615L24.7466 69.8731L16.5271 76.6285L15.107 87.8639L4.80909 70.615Z" fill="white"/>
<path d="M11.058 72.3074C10.9567 72.4146 10.9807 72.6543 11.1326 72.9907C11.2113 73.17 11.3172 73.3659 11.4504 73.5783C11.5129 73.6915 11.589 73.8128 11.6787 73.9425L11.8064 74.133C11.8581 74.202 11.8962 74.2626 11.9478 74.3316C12.1545 74.6076 12.3884 74.9002 12.6496 75.2094C12.7149 75.2868 12.7802 75.3641 12.8591 75.4497C12.9244 75.527 13.0033 75.6126 13.0822 75.6982C13.2264 75.8611 13.3925 76.0185 13.5639 76.198C13.9014 76.5349 14.2497 76.916 14.6636 77.2807C14.8705 77.463 15.0692 77.6591 15.2897 77.8498C15.3959 77.952 15.5102 78.0404 15.6164 78.1426C15.7226 78.2448 15.8369 78.3333 15.9649 78.43C17.8138 79.9692 20.2108 81.6172 23.0586 83.0707C23.2439 83.1649 23.4074 83.2645 23.6009 83.3448L24.1515 83.6052C24.5303 83.7797 24.8873 83.9597 25.288 84.1288C25.6751 84.2895 26.0757 84.4586 26.4628 84.6194C26.6563 84.6998 26.8635 84.7885 27.057 84.8689C27.2588 84.9355 27.4659 85.0242 27.6677 85.0908C27.8694 85.1575 28.0766 85.2461 28.2783 85.3128C28.4937 85.3877 28.6872 85.4681 28.9108 85.5293C29.328 85.6708 29.7533 85.7986 30.1841 85.9485C30.2959 85.9791 30.3994 86.0235 30.5112 86.054L30.8029 86.1567C31.0265 86.2179 31.2365 86.2708 31.4601 86.332C31.6837 86.3931 31.9073 86.4543 32.1173 86.5072C32.3409 86.5684 32.5727 86.6158 32.7827 86.6687C33.0063 86.7299 33.2735 86.7802 33.5462 86.8525C33.6935 86.8859 33.8407 86.9194 34.0016 86.9611C34.1625 87.0028 34.3316 87.0308 34.5007 87.0588C34.8526 87.1231 35.2316 87.2039 35.6326 87.2794C35.7307 87.3016 35.8289 87.3239 35.9489 87.3408C36.0553 87.3493 36.1671 87.3799 36.2735 87.3884C36.4917 87.4276 36.7181 87.4529 36.95 87.5004C38.8183 87.7945 41.1534 88.0539 43.8765 88.0995C44.5614 88.104 45.2599 88.1169 45.9967 88.0967C46.3596 88.1114 46.7253 88.0904 47.1046 88.0776C47.4703 88.0565 47.8578 88.0299 48.2454 88.0034C48.4391 87.9901 48.6329 87.9768 48.8267 87.9636C48.9194 87.9638 49.0204 87.9503 49.1214 87.9368C49.2224 87.9233 49.3152 87.9235 49.4162 87.91C49.812 87.8697 50.2077 87.8294 50.6171 87.7974C50.8109 87.7841 51.0211 87.7434 51.2231 87.7163C51.425 87.6893 51.627 87.6623 51.829 87.6353C52.2412 87.5675 52.6588 87.5217 53.0793 87.4401C53.4997 87.3586 53.9255 87.2991 54.3595 87.2258C54.4605 87.2123 54.5698 87.1851 54.679 87.1578C54.7882 87.1305 54.8892 87.117 54.9984 87.0898C55.2168 87.0352 55.427 86.9944 55.6591 86.9482C55.8775 86.8937 56.1014 86.8612 56.3198 86.8067C56.5382 86.7521 56.7567 86.6976 56.9751 86.6431C57.1935 86.5885 57.412 86.534 57.6386 86.4657C57.7478 86.4385 57.857 86.4112 57.9745 86.3702L58.1492 86.3266L58.3103 86.2746C58.7554 86.1518 59.2087 86.0153 59.662 85.8787C59.7795 85.8377 59.8887 85.8104 60.0061 85.7694C60.1236 85.7284 60.2328 85.7011 60.3502 85.6601C60.5769 85.5918 60.7981 85.5015 61.033 85.4195C61.2679 85.3374 61.4945 85.2692 61.7158 85.1788C61.937 85.0885 62.1719 85.0064 62.3931 84.9161C62.6144 84.8258 62.8493 84.7437 63.0788 84.6397C63.1962 84.5986 63.3136 84.5576 63.4174 84.5083C63.5349 84.4673 63.6469 84.4042 63.7643 84.3632C64.2233 84.1551 64.6876 83.9689 65.1466 83.7608C65.376 83.6567 65.6055 83.5526 65.8432 83.4347C66.0727 83.3307 66.2967 83.2045 66.5262 83.1005C67.4469 82.6483 68.3651 82.1383 69.286 81.5925C70.2069 81.0467 71.1089 80.4705 72.0028 79.8145C72.8885 79.1722 73.7634 78.4857 74.6085 77.7249C74.83 77.5409 75.0243 77.3403 75.2321 77.148C75.44 76.9557 75.6342 76.7551 75.8503 76.5491C76.0446 76.3485 76.247 76.1342 76.4413 75.9336C76.5425 75.8264 76.6355 75.733 76.7368 75.6258C76.838 75.5186 76.9392 75.4115 77.0268 75.296C77.7876 74.4275 78.5157 73.5203 79.184 72.5579C79.3456 72.3186 79.529 72.074 79.6906 71.8347C79.8386 71.5872 80.0084 71.3342 80.1564 71.0866C80.4878 70.5944 80.7647 70.069 81.0553 69.5518C81.2115 69.2905 81.3322 69.0264 81.4748 68.7568C81.6091 68.501 81.7381 68.2231 81.8807 67.9535C82.0014 67.6893 82.1303 67.4115 82.2457 67.1253L82.435 66.7153L82.4789 66.6107L82.5228 66.5062L82.6107 66.297C82.726 66.0109 82.8331 65.7384 82.9485 65.4522L83.0363 65.2431C83.0638 65.166 83.083 65.1027 83.1105 65.0257L83.259 64.5908C83.3525 64.3101 83.4542 64.0156 83.5477 63.7348C83.6275 63.4458 83.7156 63.143 83.7955 62.854L83.9221 62.4246C83.9552 62.2759 83.9883 62.1273 84.0214 61.9786C84.0877 61.6812 84.1539 61.3839 84.2202 61.0866C84.2533 60.9379 84.2864 60.7892 84.3059 60.6323L84.3916 60.178L84.4774 59.7237L84.5162 59.5034C84.5218 59.4318 84.5357 59.3464 84.5413 59.2748C84.5803 58.9609 84.6247 58.669 84.6637 58.3551C84.6832 58.1981 84.7163 58.0494 84.714 57.8979L84.7506 57.4325C84.7678 57.124 84.7985 56.8238 84.8239 56.5016C84.8411 56.1931 84.8582 55.8846 84.8618 55.5678C84.8813 54.3227 84.8163 53.0637 84.6448 51.7961C84.4652 50.5422 84.1792 49.2798 83.7266 48.0473C83.274 46.8148 82.6822 45.6288 81.9046 44.5359C81.8529 44.4669 81.8012 44.3979 81.7632 44.3372L81.6082 44.1302C81.5049 43.9922 81.4069 43.8762 81.3036 43.7382C81.0887 43.476 80.8383 43.2109 80.5661 42.9512C80.2939 42.6916 79.9644 42.4345 79.5883 42.2242C79.2205 42.0001 78.7926 41.8145 78.3154 41.7113C77.8736 41.611 77.3907 41.5794 76.8939 41.6332C76.4108 41.6954 75.9493 41.8457 75.5394 42.065C75.1296 42.2843 74.7878 42.5451 74.4869 42.8308C74.1861 43.1165 73.9343 43.4134 73.7097 43.7268C73.2688 44.34 72.9616 44.9783 72.7035 45.6278C72.4672 46.2717 72.28 46.9269 72.1691 47.6097C72.1414 47.7805 72.1136 47.9512 72.0859 48.1219L72.0692 48.2431L72.0608 48.3505L72.0357 48.579L71.999 49.0445L71.9706 49.4962C71.9593 49.6394 71.9534 49.8047 71.9421 49.9479L71.9273 50.4079C71.9102 50.7164 71.9149 51.0194 71.9196 51.3224C71.9301 52.5483 72.0115 53.7799 72.194 54.9979C72.3765 56.2159 72.6463 57.4122 73.0336 58.5674C74.5143 63.2404 77.9095 67.2601 82.2707 69.0729C84.4405 69.9821 86.7892 70.2498 88.9918 70.0159C90.0999 69.903 91.162 69.6496 92.1724 69.3271C93.1829 69.0047 94.1581 68.5858 95.0515 68.117C96.8739 67.1824 98.4868 66.0075 99.8979 64.766C101.317 63.5108 102.565 62.1698 103.63 60.7924C103.764 60.6302 103.893 60.446 104.027 60.2838C104.098 60.1959 104.147 60.1133 104.219 60.0254C104.276 59.9291 104.339 59.8549 104.397 59.7586C104.517 59.5881 104.638 59.4177 104.758 59.2472C104.879 59.0767 104.999 58.9062 105.106 58.7275C105.333 58.3782 105.552 58.0427 105.772 57.7072C105.977 57.3634 106.183 57.0196 106.388 56.6757C107.18 55.3197 107.849 53.9827 108.42 52.717C108.552 52.4033 108.692 52.0759 108.824 51.7622C108.955 51.4485 109.065 51.1402 109.189 50.8403C109.244 50.6862 109.312 50.5403 109.367 50.3862C109.422 50.2321 109.469 50.0917 109.524 49.9376C109.626 49.6431 109.728 49.3486 109.821 49.0679C110.19 47.9229 110.501 46.8741 110.713 45.8968C110.768 45.649 110.829 45.4233 110.876 45.1893C110.923 44.9552 110.962 44.7349 111.014 44.523C111.053 44.3027 111.097 44.1045 111.127 43.898C111.172 43.6997 111.202 43.4932 111.225 43.3004C111.26 43.116 111.283 42.9232 111.311 42.7525C111.338 42.5817 111.366 42.411 111.372 42.2458C111.411 41.9318 111.442 41.6317 111.47 41.3673C111.497 41.1029 111.509 40.866 111.518 40.6649C111.526 40.4639 111.532 40.2986 111.53 40.1471C111.522 39.8799 111.512 39.7421 111.471 39.7172C111.436 39.7144 111.375 39.8464 111.298 40.0997C111.26 40.2263 111.218 40.3887 111.174 40.5869C111.13 40.7851 111.091 41.0054 111.014 41.2586C110.959 41.5064 110.879 41.7955 110.805 42.1066C110.763 42.269 110.722 42.4314 110.681 42.5938C110.639 42.7562 110.59 42.9324 110.546 43.1306C110.496 43.3068 110.452 43.505 110.394 43.6949C110.336 43.8849 110.284 44.0969 110.218 44.3005C110.152 44.5042 110.099 44.7162 110.039 44.9419C109.965 45.1594 109.904 45.3851 109.822 45.6163C109.527 46.5438 109.162 47.5594 108.733 48.6491C108.626 48.9216 108.505 49.1857 108.39 49.4719C108.33 49.604 108.275 49.7581 108.214 49.8901C108.146 50.036 108.086 50.168 108.017 50.3139C107.88 50.6055 107.764 50.8917 107.619 51.1971C107.482 51.4887 107.323 51.7858 107.177 52.0912C106.569 53.2962 105.856 54.5505 105.042 55.8183C104.831 56.1401 104.629 56.4481 104.41 56.7836C104.185 57.097 103.952 57.4242 103.728 57.7377C103.257 58.3701 102.769 59.0299 102.236 59.6429C101.187 60.899 99.9701 62.1272 98.6057 63.2284C97.2467 64.3515 95.7325 65.3613 94.0715 66.1504C92.4104 66.9394 90.6026 67.5077 88.7276 67.6599C87.7942 67.7291 86.8475 67.6964 85.9174 67.5424C85.6774 67.5088 85.4538 67.4476 85.2219 67.4002C85.1019 67.3833 84.9901 67.3527 84.8783 67.3222C84.7665 67.2916 84.6547 67.261 84.5293 67.2221C84.2921 67.1526 84.0767 67.0777 83.8477 66.9944C83.627 66.8974 83.398 66.8142 83.1772 66.7172C81.4192 65.9276 79.8125 64.6673 78.5367 63.1021C77.892 62.3153 77.3239 61.4627 76.8459 60.5524C76.368 59.6421 75.9802 58.6742 75.6745 57.6624C75.0766 55.6472 74.8119 53.4786 74.8557 51.2914C74.87 51.0188 74.8625 50.7515 74.8851 50.4651C74.8994 50.1924 74.9137 49.9198 74.9417 49.6554L74.9809 49.2478L75.0202 48.8402L75.0507 48.6337L75.0591 48.5263L75.073 48.4409C75.0897 48.3197 75.1064 48.1986 75.1367 48.0857C75.2306 47.6177 75.3683 47.1387 75.5522 46.7067C75.7225 46.2664 75.9473 45.8592 76.2019 45.5266C76.4565 45.1939 76.7245 44.9632 76.9403 44.8509C77.0442 44.8015 77.1397 44.766 77.2325 44.7662C77.3413 44.9263 77.4477 44.9348 77.5595 44.9654C77.6576 44.9877 77.7748 45.0403 77.8974 45.115C78.02 45.1897 78.1671 45.3168 78.3141 45.4439C78.4529 45.5847 78.6107 45.756 78.7603 45.9409L78.986 46.2473L79.103 46.3935C79.1493 46.4405 79.1737 46.4929 79.2117 46.5536C80.3372 48.2149 80.9978 50.2495 81.2462 52.352C81.3773 53.4074 81.4073 54.4763 81.3718 55.5615C81.3575 55.8342 81.3431 56.1069 81.337 56.3658C81.3091 56.6302 81.2729 56.9083 81.2586 57.181L81.2193 57.5886C81.208 57.7318 81.1831 57.8667 81.1665 57.9879C81.1167 58.2577 81.0887 58.5221 81.0389 58.792C81.0333 58.8636 81.014 58.9269 81.0084 58.9985L80.937 59.1801L80.8486 59.5766L80.7603 59.973C80.7354 60.1079 80.7105 60.2428 80.672 60.3694C80.6086 60.631 80.5451 60.8925 80.4817 61.154C80.4432 61.2806 80.4183 61.4156 80.3798 61.5422L80.2642 61.922C80.1872 62.1753 80.1101 62.4285 80.0249 62.6955C79.9478 62.9487 79.8489 63.2074 79.7583 63.4523L79.6509 63.8184C79.6316 63.8817 79.6124 63.945 79.5795 64.0001L79.5081 64.1817C79.4092 64.4404 79.3185 64.6853 79.2142 64.9219L79.1429 65.1036L79.1071 65.1944L79.0714 65.2852L78.9068 65.6539C78.8025 65.8905 78.6764 66.1326 78.5721 66.3692C78.4542 66.5976 78.328 66.8397 78.2101 67.068C78.0922 67.2963 77.9661 67.5384 77.8345 67.7585C77.5633 68.2123 77.3138 68.6607 77.0235 69.0841C76.8783 69.2959 76.7468 69.5159 76.6016 69.7276C76.4565 69.9394 76.2977 70.1428 76.1525 70.3546C75.5583 71.1932 74.8905 71.9683 74.2256 72.7076C74.1462 72.8093 74.0614 72.889 73.9684 72.9824C73.8754 73.0758 73.7906 73.1555 73.7112 73.2572C73.5334 73.4303 73.3692 73.6117 73.1914 73.7848C73.0136 73.9578 72.8222 74.1226 72.6444 74.2957C72.4666 74.4688 72.2888 74.6419 72.092 74.7846C71.3345 75.43 70.5662 76.0313 69.7735 76.5802C68.9726 77.1428 68.1554 77.6393 67.3247 78.1275C66.5022 78.602 65.6606 79.0461 64.8082 79.446C64.6006 79.5447 64.393 79.6433 64.1635 79.7474C63.9559 79.846 63.7346 79.9364 63.527 80.035C63.1063 80.2102 62.6857 80.3854 62.265 80.5606C62.1612 80.6099 62.0574 80.6592 61.9482 80.6865C61.8444 80.7358 61.7352 80.7631 61.6313 80.8124C61.4183 80.889 61.2053 80.9656 61.0059 81.0505C60.7928 81.127 60.5798 81.2036 60.3804 81.2885C60.1756 81.3513 59.9626 81.4279 59.7578 81.4907C59.553 81.5536 59.3399 81.6301 59.1351 81.693C59.0395 81.7285 58.9303 81.7558 58.8265 81.8051C58.7309 81.8407 58.6217 81.8679 58.5125 81.8952C58.0892 82.0126 57.6878 82.1245 57.2782 82.2501L57.1253 82.2883L56.9724 82.3265C56.8632 82.3537 56.7758 82.3755 56.6666 82.4028C56.47 82.4519 56.2516 82.5064 56.055 82.5555C55.8584 82.6046 55.6482 82.6453 55.4516 82.6944C55.2414 82.7352 55.053 82.7705 54.8428 82.8113C54.6462 82.8604 54.4442 82.8874 54.2476 82.9365C54.1466 82.95 54.051 82.9856 53.9501 82.9991C53.8491 83.0126 53.7535 83.0481 53.6525 83.0616C53.2621 83.124 52.8718 83.1863 52.4814 83.2487C52.091 83.311 51.7089 83.3596 51.3268 83.4082C51.1466 83.4298 50.9446 83.4568 50.7645 83.4784C50.5843 83.5 50.3823 83.527 50.2104 83.5348C49.8365 83.5697 49.4708 83.5908 49.1105 83.6339C49.0177 83.6337 48.9304 83.6555 48.8376 83.6553C48.7448 83.655 48.6575 83.6768 48.5647 83.6766C48.3928 83.6844 48.199 83.6977 48.0271 83.7055C47.6832 83.7211 47.3175 83.7422 46.9736 83.7579C46.638 83.7598 46.2942 83.7754 45.9585 83.7773C45.2927 83.8031 44.6461 83.7656 44.0185 83.7585C41.5192 83.6804 39.3916 83.416 37.6786 83.1416C37.4605 83.1024 37.2559 83.0716 37.0513 83.0408C36.9531 83.0185 36.8467 83.0099 36.7486 82.9876C36.6504 82.9654 36.5522 82.9431 36.4677 82.9291C36.0886 82.8482 35.7504 82.7923 35.4204 82.7225C35.2595 82.6808 35.104 82.6611 34.9567 82.6277C34.8095 82.5942 34.6758 82.5691 34.5504 82.5302C34.2913 82.4662 34.0459 82.4105 33.8496 82.3659C33.6396 82.313 33.4432 82.2684 33.2333 82.2155C33.0233 82.1626 32.8352 82.1043 32.6252 82.0514C32.4152 81.9985 32.2271 81.9402 32.0171 81.8873L31.7172 81.7984C31.619 81.7761 31.5154 81.7318 31.4173 81.7095C31.0192 81.5983 30.6293 81.4733 30.2394 81.3483C30.0513 81.29 29.8495 81.2234 29.6614 81.165C29.4732 81.1067 29.2715 81.04 29.0916 80.968C28.9035 80.9096 28.7153 80.8513 28.5354 80.7792C28.3473 80.7209 28.1674 80.6488 27.9875 80.5767C27.6194 80.4463 27.2596 80.3021 26.8916 80.1717C26.5318 80.0275 26.1856 79.8916 25.8257 79.7475L25.2996 79.5395C25.1197 79.4674 24.9617 79.3899 24.7954 79.3261C22.0805 78.1786 19.7152 76.9439 17.7698 75.815C17.6472 75.7403 17.5163 75.6793 17.4074 75.6129C17.2848 75.5382 17.1758 75.4718 17.0532 75.3971C16.8352 75.2644 16.6037 75.1233 16.3775 75.0042C15.9333 74.7524 15.5329 74.4897 15.1379 74.249C14.9471 74.1328 14.7564 74.0166 14.5793 73.9087C14.484 73.8506 14.4022 73.8008 14.3205 73.751C14.2388 73.7012 14.157 73.6514 14.0617 73.5933C13.7348 73.3942 13.4214 73.2033 13.1408 73.0511C13.0727 73.0096 13.0046 72.9681 12.9282 72.9403C12.8601 72.8988 12.8056 72.8656 12.7375 72.8241C12.6149 72.7494 12.4841 72.6885 12.3751 72.6221C12.1489 72.503 11.9418 72.4144 11.7755 72.3506C11.4074 72.2202 11.1592 72.2002 11.058 72.3074Z" fill="white"/>
<path d="M20.4261 81.6009C21.2707 82.1154 22.1453 82.6108 23.0582 83.0732C23.1127 83.1064 23.1891 83.1341 23.2436 83.1673C23.3525 83.2337 23.4834 83.2946 23.6006 83.3473L24.1511 83.6077C24.2547 83.652 24.3719 83.7046 24.4672 83.7627C24.7289 83.8846 25.0041 84.0148 25.2658 84.1367C25.6528 84.2974 26.0399 84.4582 26.427 84.619C26.5033 84.6467 26.5714 84.6882 26.6477 84.716C26.7786 84.7769 26.9176 84.8241 27.0348 84.8767C27.2366 84.9434 27.4437 85.0321 27.6455 85.0987C27.8117 85.1625 27.978 85.2263 28.1443 85.2901L28.2479 85.3344C28.297 85.3456 28.3242 85.3622 28.3733 85.3733C28.5396 85.4371 28.7059 85.5009 28.8804 85.5509L29.3957 85.7148C29.6465 85.7926 29.911 85.8786 30.1618 85.9564C30.1973 85.9593 30.2382 85.9842 30.2736 85.987C30.3364 86.0065 30.4127 86.0342 30.489 86.0619L30.8026 86.1592C31.0125 86.2121 31.2143 86.2787 31.4379 86.3398L31.4651 86.3564C31.6887 86.4176 31.9123 86.4788 32.1223 86.5317C32.2696 86.5651 32.4168 86.5986 32.5641 86.632C32.6404 86.6597 32.7113 86.6655 32.7959 86.6794L33.5595 86.8632C33.6576 86.8855 33.7558 86.9078 33.8676 86.9384L34.0149 86.9718C34.1131 86.9941 34.2331 87.011 34.3313 87.0333C34.394 87.0527 34.4513 87.0501 34.514 87.0695C34.7185 87.1004 34.9285 87.1533 35.1603 87.2007L35.6594 87.2984C35.6949 87.3012 35.7304 87.3041 35.7712 87.329C35.8339 87.3484 35.9049 87.3541 35.9758 87.3598C36.0822 87.3684 36.194 87.3989 36.3004 87.4075C36.5186 87.4466 36.745 87.472 36.9768 87.5194C38.0488 87.6847 39.0662 87.8168 40.122 87.9159C41.3769 88.0239 42.6482 88.1043 43.8952 88.1323C44.0234 88.1354 44.1516 88.1385 44.2881 88.1278C44.8448 88.1293 45.415 88.139 46.0017 88.1212L46.3728 88.1222C46.6157 88.1201 46.8668 88.1042 47.1096 88.1021C47.418 88.0836 47.7264 88.0651 48.0348 88.0466L48.2504 88.0279C48.3432 88.0281 48.4442 88.0146 48.5369 88.0148C48.6297 88.0151 48.7307 88.0016 48.8235 88.0018C48.9163 88.002 49.0172 87.9885 49.1182 87.975C49.2192 87.9615 49.312 87.9617 49.413 87.9482L49.7815 87.8913C50.0544 87.87 50.3356 87.8349 50.6085 87.8136C50.7668 87.7975 50.9251 87.7813 51.0916 87.7515C51.1353 87.7406 51.1708 87.7434 51.2145 87.7325C51.2936 87.7245 51.3946 87.7109 51.4738 87.7029C51.5966 87.6839 51.7194 87.665 51.8423 87.646C51.9433 87.6325 52.0443 87.619 52.1535 87.5917C52.4565 87.5512 52.7813 87.5052 53.0925 87.4509C53.3382 87.4129 53.5921 87.3613 53.8378 87.3233L54.3728 87.2366C54.4738 87.2231 54.5748 87.2096 54.6922 87.1685C54.8014 87.1413 54.9024 87.1278 55.0116 87.1005C55.099 87.0787 55.2 87.0652 55.2874 87.0433C55.4185 87.0106 55.5413 86.9917 55.6724 86.9589L56.333 86.8174C56.4859 86.7792 56.6471 86.7273 56.8136 86.6975L56.9883 86.6538L57.6519 86.4765C57.7611 86.4492 57.8703 86.422 57.9877 86.3809L58.1625 86.3373L58.3236 86.2854L58.5502 86.2171C58.9162 86.1024 59.2957 85.9959 59.6835 85.8757C59.7272 85.8648 59.7709 85.8539 59.8009 85.8347C59.8665 85.8183 59.9538 85.7965 60.0276 85.7664L60.115 85.7446C60.2023 85.7228 60.2761 85.6927 60.3717 85.6571L60.5382 85.6272C60.7076 85.5615 60.8823 85.5179 61.0516 85.4523C61.2865 85.3702 61.5132 85.302 61.7344 85.2116L61.83 85.176C62.0212 85.1049 62.2206 85.02 62.4254 84.9572L62.7122 84.8505C62.8515 84.8041 62.9854 84.7355 63.1246 84.6891L63.4633 84.5577C63.5371 84.5276 63.6108 84.4975 63.6846 84.4674C63.7283 84.4565 63.7583 84.4373 63.8102 84.4126C64.0533 84.3168 64.291 84.199 64.5341 84.1032C64.7554 84.0129 64.9848 83.9088 65.1925 83.8102L65.8891 83.4841C66.023 83.4156 66.1486 83.3609 66.2825 83.2923C66.3863 83.243 66.4683 83.1992 66.5721 83.1498C67.5229 82.6785 68.4546 82.1768 69.3237 81.6556C70.2474 81.074 71.1658 80.4704 72.0132 79.861C72.929 79.1995 73.7985 78.491 74.619 77.7714C74.8022 77.6204 74.98 77.4473 75.1578 77.2742C75.1961 77.2413 75.2125 77.2138 75.2508 77.1808C75.4586 76.9885 75.6447 76.8017 75.8525 76.6094L75.869 76.5819C75.9921 76.4692 76.1316 76.3291 76.2492 76.1945C76.3122 76.1202 76.3888 76.0543 76.4517 75.9801L76.5912 75.84C76.646 75.7795 76.7007 75.7191 76.7472 75.6723C76.7772 75.6531 76.8019 75.6119 76.832 75.5927C76.8949 75.5185 76.9797 75.4388 77.0427 75.3646C77.954 74.3064 78.6192 73.4734 79.1998 72.6265C79.2491 72.544 79.3121 72.4697 79.3614 72.3872C79.4737 72.2305 79.5942 72.06 79.6928 71.895L80.1804 71.1415C80.416 70.7785 80.6326 70.3851 80.8463 70.0275C80.9285 69.89 80.9971 69.7442 81.0711 69.6204C81.178 69.4417 81.2794 69.2408 81.3727 69.0537C81.4056 68.9987 81.4331 68.9217 81.4742 68.8529C81.7222 68.9665 81.9838 69.0884 82.2319 69.202C83.2895 69.6399 84.4211 69.9542 85.5804 70.0976C86.696 70.252 87.8229 70.2632 88.9529 70.1449C89.4851 70.094 90.0284 69.9934 90.5798 69.8792C91.0876 69.7758 91.6065 69.6229 92.1335 69.4562C93.1003 69.1447 94.0673 68.7395 95.0126 68.2461C95.876 67.7965 96.7451 67.2754 97.5843 66.6798C98.3469 66.1501 99.1234 65.5351 99.8673 64.8814C101.232 63.6866 102.48 62.3455 103.599 60.9077C103.703 60.7647 103.813 60.6438 103.917 60.5008C103.941 60.4596 103.98 60.4266 104.004 60.3854L104.046 60.3166C104.1 60.2561 104.141 60.1874 104.196 60.1269C104.254 60.0307 104.317 59.9564 104.374 59.8602C104.478 59.7172 104.59 59.5605 104.681 59.4092L104.722 59.3404C104.747 59.2992 104.771 59.2579 104.81 59.225C104.905 59.0957 104.988 58.9582 105.083 58.829C105.149 58.719 105.237 58.6035 105.303 58.4935C105.456 58.268 105.596 58.0342 105.749 57.8087L106.366 56.7773C107.1 55.5176 107.783 54.1888 108.398 52.8186C108.529 52.5049 108.669 52.1774 108.801 51.8637C108.889 51.6546 108.969 51.4592 109.035 51.2555C109.079 51.151 109.123 51.0464 109.166 50.9418L109.345 50.4878L109.361 50.4603C109.408 50.3199 109.455 50.1795 109.515 50.0475L109.606 49.8025C109.68 49.5851 109.746 49.3814 109.826 49.186C110.241 47.9007 110.527 46.8932 110.718 46.0149C110.743 45.88 110.781 45.7534 110.806 45.6185L110.881 45.3074C110.914 45.1587 110.942 44.988 110.966 44.8531C110.986 44.7898 110.991 44.7182 111.005 44.6328L111.119 44.0078C111.144 43.8729 111.168 43.738 111.193 43.603C111.199 43.5314 111.21 43.4819 111.216 43.4103C111.241 43.2754 111.257 43.1542 111.274 43.033L111.302 42.8623C111.329 42.6916 111.357 42.5209 111.363 42.3556C111.402 42.0417 111.433 41.7415 111.461 41.4771C111.494 41.2348 111.497 41.0117 111.498 40.8244L111.509 40.7748C111.518 40.5737 111.523 40.4085 111.521 40.2569C111.527 39.998 111.503 39.852 111.476 39.8354C111.44 39.8325 111.38 39.9646 111.303 40.2178C111.264 40.3444 111.223 40.5068 111.179 40.7051C111.16 40.7684 111.154 40.84 111.127 40.9171C111.102 41.052 111.06 41.2144 111.019 41.3768C110.964 41.6246 110.884 41.9136 110.809 42.2247C110.776 42.3734 110.735 42.5358 110.685 42.712C110.644 42.8744 110.594 43.0506 110.55 43.2488C110.531 43.3121 110.512 43.3754 110.498 43.4608C110.468 43.5736 110.429 43.7002 110.412 43.8214L110.352 44.0471C110.313 44.1738 110.275 44.3004 110.236 44.427C110.209 44.504 110.195 44.5894 110.167 44.6665C110.129 44.7931 110.104 44.928 110.057 45.0684L109.84 45.7427C109.59 46.5657 109.252 47.5042 108.752 48.7756C108.645 49.048 108.524 49.3122 108.409 49.5984C108.348 49.7304 108.296 49.8487 108.249 49.9891L108.225 50.0304L108.027 50.4541C108.01 50.5752 107.953 50.6715 107.909 50.7761C107.824 50.9494 107.744 51.1448 107.651 51.3318C107.514 51.6235 107.355 51.9206 107.209 52.226C106.543 53.5272 105.83 54.7815 105.074 55.9531L104.442 56.9183C104.305 57.1163 104.168 57.3143 104.017 57.504C103.93 57.6195 103.834 57.7487 103.76 57.8724C103.297 58.4911 102.81 59.1509 102.268 59.7776C101.165 61.0942 99.942 62.3004 98.6295 63.3769C97.9268 63.9618 97.1996 64.4943 96.4781 64.9552C95.6882 65.4683 94.8957 65.9236 94.0953 66.2989C92.2785 67.1619 90.49 67.6669 88.7514 67.8084C87.7962 67.8831 86.8577 67.8366 85.9412 67.6909C85.7857 67.6713 85.6248 67.6295 85.4557 67.6016C85.393 67.5821 85.3085 67.5681 85.2375 67.5624C85.1394 67.5401 85.0412 67.5178 84.9512 67.4818C84.9376 67.4735 84.9158 67.479 84.8885 67.4624L84.7413 67.4289C84.6785 67.4095 84.6158 67.39 84.5449 67.3843C84.4059 67.3372 84.2668 67.29 84.1414 67.2511C84.0514 67.215 83.9533 67.1927 83.8633 67.1567L83.787 67.1289C83.5935 67.0486 83.3999 66.9682 83.1928 66.8795C82.972 66.7825 82.7458 66.6635 82.5196 66.5444L82.5911 66.3628L82.6625 66.1812C82.7503 65.972 82.8327 65.7409 82.9206 65.5317L83.0084 65.3226C83.0195 65.2731 83.0441 65.2318 83.0552 65.1822C83.0716 65.1547 83.0662 65.1327 83.0827 65.1052L83.2311 64.6703C83.2668 64.5795 83.2971 64.4666 83.3328 64.3758C83.3906 64.1859 83.462 64.0043 83.5198 63.8144L83.7676 62.9335L83.9024 62.4903C83.9245 62.3912 83.9466 62.2921 83.9687 62.193C83.9797 62.1434 83.9908 62.0939 84.0018 62.0443L84.0873 61.6837C84.1369 61.5075 84.1646 61.3368 84.2142 61.1606C84.2445 61.0477 84.2611 60.9266 84.2832 60.8275C84.286 60.7917 84.2888 60.7559 84.2999 60.7063L84.3856 60.252L84.5101 59.5774C84.5212 59.5279 84.5322 59.4783 84.5296 59.4205C84.5242 59.3984 84.5407 59.3709 84.5435 59.3351C84.5825 59.0212 84.6269 58.7293 84.6659 58.4154C84.6769 58.3658 84.6744 58.3079 84.6854 58.2584C84.7075 58.1593 84.7077 58.0656 84.7162 57.9582L84.7528 57.4928C84.7615 57.2917 84.7921 57.0852 84.809 56.8703L84.8261 56.5619C84.8264 56.4682 84.8266 56.3745 84.8405 56.2892C84.8574 56.0744 84.8607 55.8512 84.864 55.6281C84.871 54.9945 84.8645 54.3527 84.8333 53.7521C84.8049 53.1157 84.741 52.4764 84.6471 51.8564C84.556 51.2005 84.4348 50.5639 84.2889 49.9685C84.1323 49.329 83.9538 48.6949 83.7288 48.1076C83.2518 46.8227 82.6381 45.6421 81.9068 44.5962C81.8551 44.5272 81.8034 44.4582 81.7654 44.3975L81.6104 44.1905C81.5777 44.1518 81.5451 44.1132 81.5261 44.0828C81.4554 43.9835 81.3765 43.8979 81.3058 43.7985C81.031 43.481 80.8079 43.2325 80.5683 43.0115C80.2688 42.7353 79.9584 42.5086 79.6587 42.326C79.645 42.3177 79.6178 42.3011 79.6042 42.2928C79.2091 42.0521 78.773 41.8802 78.3312 41.7799C77.8539 41.6767 77.371 41.6452 76.9098 41.7018C76.4485 41.7585 75.9733 41.9005 75.5552 42.1336C75.1837 42.3199 74.8201 42.5862 74.4891 42.8911C74.2183 43.1576 73.9529 43.4462 73.7119 43.7872C73.3176 44.3536 72.9831 44.9753 72.7057 45.688C72.4612 46.3458 72.2822 46.9872 72.1713 47.67C72.1407 47.8766 72.1212 48.0335 72.0881 48.1822L72.0714 48.3034L72.0379 48.6394L71.9876 49.0965L71.9591 49.5482C71.9617 49.6061 71.9507 49.6556 71.9533 49.7135C71.953 49.8071 71.9446 49.9145 71.9361 50.0219L71.9213 50.4819C71.9044 50.6968 71.9093 50.9061 71.9142 51.1155C71.914 51.2092 71.9138 51.3028 71.9135 51.3965C71.9159 52.6361 72.0109 53.876 72.188 55.0719C72.3759 56.312 72.6593 57.5166 73.0276 58.6414C73.2603 59.4023 73.5586 60.1469 73.9087 60.8668C73.5722 60.1552 73.2821 59.3969 73.0276 58.6414C72.6593 57.5166 72.3759 56.312 72.188 55.0719C72.0109 53.876 71.9159 52.6361 71.9135 51.3965C71.9138 51.3028 71.914 51.2092 71.9142 51.1155C71.9093 50.9061 71.9126 50.683 71.9213 50.4819L71.9361 50.0219C71.9364 49.9283 71.9448 49.8209 71.9533 49.7135C71.9507 49.6556 71.9617 49.6061 71.9591 49.5482L71.9876 49.0965L72.0714 48.3034L72.0881 48.1822C72.0994 48.039 72.1271 47.8683 72.1713 47.67C72.2958 46.9955 72.4612 46.3458 72.7057 45.688C72.9831 44.9753 73.2903 44.337 73.6983 43.7789C73.9393 43.4379 74.1911 43.141 74.4755 42.8828C74.8065 42.5779 75.1618 42.3254 75.528 42.117C75.9597 41.8922 76.4212 41.7419 76.8825 41.6852C77.3438 41.6286 77.8131 41.6518 78.3039 41.7633C78.7457 41.8636 79.1819 42.0355 79.5769 42.2762C79.9039 42.4754 80.2416 42.7187 80.5683 43.0115C80.8079 43.2325 81.0446 43.4893 81.3058 43.7985C81.3765 43.8979 81.4554 43.9835 81.5261 44.0828C81.5451 44.1132 81.5777 44.1518 81.6104 44.1905L81.7654 44.3975C81.8171 44.4665 81.8551 44.5272 81.8932 44.5879C82.6464 45.6284 83.2655 46.831 83.7288 48.1076C83.9538 48.6949 84.1323 49.329 84.2889 49.9685C84.4348 50.5639 84.556 51.2005 84.6471 51.8564C84.7274 52.4681 84.7912 53.1074 84.8333 53.7521C84.8645 54.3527 84.871 54.9945 84.864 55.6281C84.8607 55.8512 84.8438 56.0661 84.8405 56.2892C84.8266 56.3745 84.8264 56.4682 84.8261 56.5619L84.809 56.8703C84.8003 57.0714 84.7561 57.2696 84.7474 57.4707L84.7108 57.9361C84.7023 58.0436 84.6884 58.1289 84.68 58.2363C84.6689 58.2859 84.6715 58.3438 84.6605 58.3933C84.6297 58.6935 84.5771 58.9991 84.5381 59.3131C84.5435 59.3351 84.5271 59.3626 84.5242 59.3984C84.5132 59.448 84.5158 59.5058 84.5047 59.5554L84.466 59.7757L84.3802 60.2299L84.2999 60.7063C84.2888 60.7559 84.286 60.7917 84.2832 60.8275C84.2529 60.9404 84.2445 61.0477 84.2142 61.1606C84.1646 61.3368 84.1369 61.5075 84.0873 61.6837L84.0018 62.0443C83.9908 62.0939 83.9797 62.1434 83.9687 62.193C83.9466 62.2921 83.9245 62.3912 83.9024 62.4903L83.7758 62.9197L83.528 63.8006C83.4702 63.9905 83.4042 64.1942 83.3328 64.3758C83.2971 64.4666 83.2668 64.5795 83.2311 64.6703L83.0827 65.1052C83.0662 65.1327 83.0716 65.1547 83.0552 65.1822C83.0441 65.2318 83.0277 65.2593 83.0167 65.3088L82.9288 65.518C82.841 65.7271 82.7503 65.972 82.6625 66.1812L82.5911 66.3628L82.5196 66.5444C81.4296 65.9741 80.4002 65.1781 79.4802 64.2612L79.5077 64.1841L79.5791 64.0025C79.6038 63.9612 79.6066 63.9254 79.6176 63.8759C79.6259 63.8621 79.6287 63.8263 79.6369 63.8126L79.7661 63.441C79.8018 63.3502 79.8375 63.2594 79.8596 63.1603C79.9145 63.0062 79.9777 62.8383 80.0327 62.6842L80.0355 62.6484C80.1126 62.3951 80.1814 62.1557 80.2502 61.9162L80.3658 61.5363C80.3933 61.4593 80.4071 61.3739 80.421 61.2886C80.432 61.239 80.4431 61.1894 80.4541 61.1399L80.5065 60.9279C80.5507 60.7297 80.6084 60.5397 80.6444 60.3553C80.6665 60.2562 80.6885 60.1571 80.7106 60.0579C80.7134 60.0221 80.7299 59.9946 80.7327 59.9588L80.821 59.5624L80.9399 58.9594C80.9509 58.9099 80.9537 58.8741 80.9648 58.8245C80.9594 58.8025 80.9758 58.775 80.9704 58.7529L81.098 57.9488C81.109 57.8993 81.1201 57.8497 81.1229 57.8139C81.1367 57.7286 81.1506 57.6432 81.1644 57.5579L81.2037 57.1503C81.2316 56.8859 81.2678 56.6078 81.2822 56.3351C81.2824 56.2414 81.2963 56.1561 81.3047 56.0486C81.3106 55.8834 81.3247 55.7044 81.3388 55.5253C81.3689 54.418 81.3471 53.3354 81.2132 52.3158C81.085 51.2246 80.8584 50.2048 80.5334 49.2563C80.1839 48.2555 79.736 47.326 79.1923 46.5257C79.1679 46.4733 79.1216 46.4264 79.0836 46.3657L78.9666 46.2194L78.7409 45.913C78.5723 45.6977 78.4281 45.5348 78.2947 45.416C78.1423 45.2669 78.0006 45.1618 77.878 45.0871C77.8644 45.0788 77.8508 45.0705 77.8508 45.0705C77.7554 45.0124 77.6518 44.9681 77.5401 44.9375C77.4283 44.9069 77.3219 44.8984 77.2209 44.9119C77.1199 44.9254 77.0325 44.9472 76.9287 44.9965C76.6992 45.1006 76.423 45.3451 76.1902 45.6723C75.9438 45.9912 75.7191 46.3983 75.5405 46.8523C75.362 47.3064 75.2108 47.7771 75.125 48.2314C75.1029 48.3305 75.078 48.4654 75.0614 48.5866L75.0475 48.6719L75.0167 48.9721L74.9965 49.41L74.9573 49.8176C74.9375 50.0683 74.9096 50.3327 74.9117 50.5778L74.9143 50.6357C74.9002 50.8147 74.8997 51.002 74.8992 51.1893C74.899 51.283 74.8987 51.3766 74.8931 51.4482C74.8712 52.5418 74.9203 53.6411 75.0595 54.6827C75.196 55.7602 75.4198 56.8158 75.7201 57.8055C76.0231 58.853 76.4245 59.8293 76.8916 60.6954C77.3695 61.6057 77.9377 62.4584 78.5824 63.2451C78.8762 63.593 79.1918 63.9354 79.5021 64.2557L79.2139 64.9244L79.1068 65.1968L78.8928 65.648L78.5581 66.3634C78.4895 66.5092 78.4155 66.633 78.3469 66.7788C78.2894 66.8751 78.2537 66.9659 78.1961 67.0621C78.155 67.1309 78.1275 67.208 78.0864 67.2767C78.0096 67.4363 77.911 67.6013 77.8205 67.7526C77.7383 67.8901 77.6643 68.0139 77.5904 68.1377C77.4013 68.454 77.2258 68.7786 77.0095 69.0783L76.5876 69.7218C76.4918 69.851 76.396 69.9802 76.3001 70.1095C76.2372 70.1837 76.1879 70.2662 76.1249 70.3404C75.476 71.2395 74.7535 72.0751 74.198 72.6934C74.135 72.7676 74.0803 72.8281 74.012 72.8803C73.9819 72.8995 73.9654 72.927 73.9272 72.96C73.8424 73.0396 73.7712 73.1276 73.6864 73.2072L73.67 73.2347C73.607 73.309 73.5387 73.3611 73.4757 73.4353C73.3663 73.5563 73.2514 73.6551 73.142 73.7761C72.9642 73.9492 72.7727 74.1139 72.5949 74.287C72.5566 74.32 72.5266 74.3392 72.5019 74.3804C72.3624 74.5206 72.2093 74.6524 72.0561 74.7842C71.3287 75.4104 70.5386 76.0171 69.7377 76.5798C68.9668 77.1232 68.1415 77.6335 67.2889 78.1271C66.4964 78.5823 65.6548 79.0264 64.7724 79.4456L64.1277 79.747C63.92 79.8456 63.7206 79.9305 63.513 80.0291L63.4912 80.0346C63.1879 80.1688 62.8929 80.2892 62.5979 80.4097L62.2292 80.5602C62.1855 80.5711 62.1554 80.5903 62.1254 80.6095C62.0516 80.6396 61.9997 80.6643 61.926 80.6944L61.8085 80.7354C61.743 80.7518 61.6693 80.7819 61.6173 80.8065L60.9919 81.0446C60.8662 81.0994 60.7269 81.1458 60.6013 81.2006L60.3664 81.2826C60.2053 81.3346 60.0442 81.3865 59.883 81.4384L59.7219 81.4903C59.5171 81.5531 59.3041 81.6297 59.0993 81.6926C59.0119 81.7144 58.9381 81.7445 58.8508 81.7663L58.7852 81.7827C58.7197 81.799 58.6542 81.8154 58.5804 81.8455C58.5367 81.8564 58.5067 81.8756 58.4712 81.8728C58.048 81.9901 57.6384 82.1158 57.237 82.2277L57.0841 82.2658L56.9312 82.304C56.8219 82.3313 56.7346 82.3531 56.6254 82.3804C56.4725 82.4185 56.3195 82.4567 56.153 82.4866L55.8035 82.5738C55.6725 82.6065 55.5414 82.6393 55.3967 82.6637L55.1428 82.7153C55.02 82.7343 54.9108 82.7616 54.7879 82.7805C54.5914 82.8296 54.3894 82.8566 54.1928 82.9057L53.8952 82.9683C53.786 82.9956 53.685 83.0091 53.6058 83.0171C53.382 83.0496 53.1499 83.0958 52.9261 83.1283L52.4348 83.2042C52.1454 83.253 51.8642 83.2881 51.5831 83.3232C51.4821 83.3367 51.3811 83.3502 51.2801 83.3637C51.1437 83.3744 51.0208 83.3934 50.8761 83.4178L50.7178 83.4339C50.6741 83.4448 50.6387 83.442 50.595 83.4529C50.4503 83.4773 50.3002 83.4797 50.1556 83.5041L50.0546 83.5176C49.7161 83.5553 49.3859 83.5792 49.0556 83.6032C48.9983 83.6058 48.9547 83.6167 48.8974 83.6193L48.7827 83.6245C48.6817 83.638 48.6026 83.646 48.5098 83.6458C48.3379 83.6536 48.1441 83.6669 47.9722 83.6747L47.9149 83.6773C47.571 83.693 47.2408 83.7169 46.9188 83.7271L46.5477 83.7261C46.3267 83.7228 46.1193 83.7278 45.8983 83.7245C45.3689 83.7396 44.8559 83.7273 44.3648 83.7095C44.2366 83.7064 44.0947 83.695 43.9582 83.7057C41.8437 83.6369 39.7677 83.4414 37.6184 83.0888L36.991 82.988C36.8929 82.9657 36.7865 82.9571 36.7019 82.9431C36.631 82.9375 36.5819 82.9263 36.5192 82.9069C36.4837 82.904 36.4565 82.8874 36.421 82.8846C36.0419 82.8037 35.7037 82.7477 35.3737 82.678C35.311 82.6586 35.2537 82.6612 35.2046 82.65C35.1064 82.6278 35.0083 82.6054 34.9237 82.5915C34.8256 82.5692 34.741 82.5552 34.6647 82.5274L34.5174 82.494L34.2856 82.4466C34.1111 82.3965 33.9556 82.3769 33.8165 82.3297C33.732 82.3157 33.6693 82.2962 33.5847 82.2822C33.4511 82.2571 33.3257 82.2182 33.192 82.1931C33.0939 82.1708 32.9957 82.1485 32.8921 82.1041C32.7939 82.0819 32.6821 82.0513 32.5839 82.029C32.3876 81.9844 32.1858 81.9178 31.9895 81.8732L31.6896 81.7842C31.6269 81.7648 31.5642 81.7453 31.5014 81.7259C31.466 81.7231 31.4251 81.6982 31.3896 81.6953L31.2288 81.6536C30.8934 81.5618 30.5526 81.448 30.2172 81.3562C30.0699 81.3228 29.9173 81.2673 29.7782 81.2201C29.7291 81.2089 29.6882 81.1841 29.6392 81.1729C29.451 81.1146 29.2493 81.048 29.0611 80.9896C28.9493 80.959 28.8458 80.9147 28.734 80.8841L28.4831 80.8063C28.3577 80.7674 28.2541 80.7231 28.1287 80.6842C28.066 80.6647 27.9897 80.637 27.927 80.6175L27.4199 80.4399C27.2181 80.3733 27.0246 80.2929 26.8228 80.2263C26.6157 80.1376 26.4003 80.0627 26.2068 79.9823C26.0541 79.9268 25.9097 79.8575 25.757 79.802L25.2309 79.5941C25.1273 79.5498 25.0101 79.4971 24.9066 79.4528C24.8521 79.4196 24.7894 79.4001 24.713 79.3724C23.4565 78.832 22.1755 78.2392 20.9192 77.6051C19.8346 77.0568 18.7528 76.4728 17.6874 75.8613C17.6466 75.8364 17.5921 75.8032 17.5512 75.7783C17.4831 75.7368 17.415 75.6953 17.3469 75.6538C17.2379 75.5874 17.1017 75.5044 16.9927 75.438C16.7884 75.3135 16.5976 75.1973 16.3851 75.0866L16.317 75.0451C16.0363 74.8928 15.7857 74.7214 15.5405 74.572C15.377 74.4724 15.2408 74.3894 15.091 74.2981C14.9003 74.1819 14.7096 74.0658 14.5325 73.9579C14.4507 73.9081 14.369 73.8583 14.2873 73.8085L14.26 73.7919C14.1783 73.7421 14.0965 73.6923 14.0012 73.6342C13.6743 73.435 13.3609 73.2441 13.0803 73.0919L12.8677 72.9812L12.677 72.865C12.5544 72.7903 12.4236 72.7293 12.3146 72.6629C12.0884 72.5439 11.8813 72.4552 11.715 72.3914C11.3688 72.2556 11.1342 72.2439 11.0247 72.3649C10.9235 72.472 10.9474 72.7118 11.0994 73.0482C11.178 73.2275 11.284 73.4233 11.4171 73.6358C11.4796 73.7489 11.5557 73.8703 11.6454 74L11.7732 74.1904C11.8112 74.2511 11.8711 74.3063 11.9092 74.367L11.9228 74.3753C12.1295 74.6514 12.3716 74.9302 12.6246 75.2532L12.6762 75.3222C12.7361 75.3774 12.7742 75.4381 12.8258 75.5071C12.8911 75.5844 12.97 75.67 13.049 75.7556C13.2068 75.9268 13.3728 76.0843 13.5307 76.2555C13.5906 76.3107 13.6559 76.388 13.7157 76.4432C14.007 76.7332 14.29 77.037 14.6167 77.3298C14.8236 77.5122 15.0223 77.7083 15.2428 77.8989L15.3572 77.9874C15.4307 78.0509 15.5042 78.1145 15.5777 78.178C15.6513 78.2416 15.7248 78.3051 15.7983 78.3687C15.8392 78.3935 15.8718 78.4322 15.9127 78.4571C16.8765 79.2695 17.9497 80.0546 19.0747 80.815C19.5407 81.0614 19.9765 81.327 20.4261 81.6009ZM81.4742 68.8529C81.4331 68.9217 81.4056 68.9987 81.3727 69.0537C81.2794 69.2408 81.1862 69.4279 81.0711 69.6204C80.9889 69.758 80.9067 69.8955 80.8463 70.0275C80.638 70.4072 80.4296 70.7868 80.1804 71.1415L79.7147 71.8895C79.6024 72.0463 79.4819 72.2168 79.3832 72.3818C79.3339 72.4643 79.271 72.5385 79.2216 72.621C78.641 73.468 77.9758 74.3009 77.0645 75.3591C76.9933 75.4471 76.9304 75.5213 76.8538 75.5872C76.8238 75.6064 76.7991 75.6477 76.769 75.6669C76.7143 75.7274 76.6678 75.7741 76.6131 75.8345L76.4736 75.9746C76.4106 76.0489 76.334 76.1148 76.2711 76.189C76.1534 76.3237 76.0003 76.4555 75.869 76.5819L75.8525 76.6094C75.6447 76.8017 75.4723 76.9968 75.2644 77.1891C75.2261 77.2221 75.1961 77.2413 75.1578 77.2742C74.9882 77.4335 74.824 77.6149 74.6408 77.766C73.8122 78.4993 72.9426 79.2078 72.0351 79.8556C71.1794 80.4787 70.2693 81.0686 69.3183 81.6336C68.4492 82.1547 67.5311 82.6647 66.5721 83.1498C66.4683 83.1992 66.3863 83.243 66.2825 83.2923C66.1486 83.3609 66.0148 83.4294 65.8891 83.4841L65.1788 83.8019C64.9576 83.8922 64.7417 84.0046 64.5341 84.1032C64.291 84.199 64.0533 84.3168 63.8102 84.4126C63.7583 84.4373 63.7283 84.4565 63.6846 84.4674C63.6108 84.4975 63.5234 84.5193 63.4497 84.5494L63.1246 84.6891C62.9854 84.7355 62.8597 84.7903 62.7122 84.8505L62.4118 84.9489C62.2124 85.0338 62.0348 85.1132 61.83 85.176L61.7344 85.2116C61.4995 85.2937 61.2729 85.3619 61.0516 85.4523C60.8823 85.5179 60.7076 85.5615 60.5382 85.6272L60.3552 85.6846C60.2679 85.7064 60.1941 85.7365 60.0985 85.7721L60.0111 85.7939C59.9374 85.824 59.8719 85.8404 59.7845 85.8622C59.7408 85.8731 59.6971 85.884 59.6671 85.9032C59.2875 86.0097 58.9298 86.1107 58.5502 86.2171L58.3236 86.2854L58.1542 86.3511L57.9877 86.3809C57.8785 86.4082 57.7611 86.4492 57.6519 86.4765L56.9883 86.6538L56.8136 86.6975C56.6607 86.7356 56.4859 86.7792 56.333 86.8174L55.6724 86.9589C55.5413 86.9917 55.4185 87.0106 55.2874 87.0433C55.2 87.0652 55.099 87.0787 55.0116 87.1005C54.9024 87.1278 54.8014 87.1413 54.6922 87.1685C54.5694 87.1875 54.4602 87.2148 54.3728 87.2366L53.8378 87.3233C53.5921 87.3613 53.3382 87.4129 53.0925 87.4509C52.7813 87.5052 52.4565 87.5512 52.1535 87.5917C52.0525 87.6052 51.9515 87.6187 51.8505 87.6322C51.7277 87.6512 51.6131 87.6564 51.4902 87.6754C51.4111 87.6834 51.3101 87.6969 51.2309 87.705C51.1872 87.7159 51.1518 87.7131 51.1081 87.724C50.9498 87.7401 50.7832 87.77 50.6249 87.7861C50.352 87.8074 50.0709 87.8425 49.798 87.8638L49.424 87.8987C49.323 87.9122 49.2303 87.9119 49.1293 87.9255C49.0283 87.939 48.9273 87.9525 48.8345 87.9523C48.7417 87.952 48.6407 87.9655 48.5397 87.979C48.447 87.9788 48.346 87.9923 48.2532 87.9921L48.0376 88.0108C47.7292 88.0293 47.4208 88.0478 47.1124 88.0662C46.8696 88.0684 46.6185 88.0843 46.3756 88.0864L45.9963 88.0992C45.4096 88.1169 44.8394 88.1072 44.2827 88.1058C44.1545 88.1027 44.0262 88.0996 43.898 88.0965C42.6428 88.0822 41.3715 88.0018 40.1248 87.8802C39.0827 87.7893 38.0516 87.6489 36.9796 87.4836C36.7396 87.4499 36.5214 87.4108 36.3032 87.3717C36.1968 87.3631 36.085 87.3325 35.9786 87.324C35.9077 87.3183 35.845 87.2989 35.774 87.2932C35.7386 87.2903 35.7031 87.2875 35.6623 87.2626L35.1632 87.1649C34.9313 87.1174 34.7268 87.0866 34.5168 87.0337C34.4541 87.0143 34.3968 87.0169 34.3341 86.9974C34.2141 86.9806 34.1159 86.9583 34.0177 86.936L33.8704 86.9026C33.7586 86.872 33.6605 86.8497 33.5623 86.8274L32.7987 86.6436C32.7224 86.6159 32.6378 86.6019 32.5669 86.5962C32.4196 86.5628 32.2724 86.5293 32.1333 86.4821C31.9097 86.421 31.6861 86.3598 31.4762 86.3069L31.4489 86.2903C31.2389 86.2374 31.0372 86.1708 30.8136 86.1096L30.4782 86.0178C30.4155 85.9984 30.3392 85.9706 30.2628 85.9429C30.2356 85.9263 30.1865 85.9152 30.151 85.9123C29.9002 85.8345 29.6358 85.7484 29.3849 85.6707L28.8696 85.5068C28.6951 85.4568 28.5288 85.393 28.3625 85.3292C28.3216 85.3043 28.2862 85.3014 28.2371 85.2903L28.1335 85.246C27.9672 85.1822 27.8009 85.1184 27.6264 85.0684C27.4247 85.0017 27.2175 84.913 27.0158 84.8464C26.8767 84.7992 26.7459 84.7383 26.6287 84.6856C26.566 84.6662 26.4979 84.6247 26.4216 84.5969C26.0345 84.4362 25.6338 84.2671 25.2468 84.1063C24.9715 83.9761 24.7098 83.8543 24.4482 83.7324C24.3446 83.688 24.2274 83.6354 24.1321 83.5773L23.5815 83.3169C23.4615 83.3001 23.3389 83.2254 23.2217 83.1728C23.1672 83.1396 23.0991 83.0981 23.0364 83.0786C21.6711 82.3782 20.3606 81.6172 19.113 80.7821C17.9797 80.0354 16.9148 79.2365 15.9427 78.4379C15.9019 78.413 15.8692 78.3744 15.8283 78.3495C15.7548 78.2859 15.6813 78.2224 15.6078 78.1588C15.5343 78.0953 15.4608 78.0317 15.3873 77.9682L15.2729 77.8797C15.066 77.6974 14.8673 77.5013 14.6467 77.3106C14.32 77.0178 14.0152 76.7195 13.7458 76.4241C13.6723 76.3605 13.6206 76.2915 13.5607 76.2363C13.4029 76.0651 13.2369 75.9076 13.079 75.7364C13.0001 75.6508 12.9212 75.5652 12.8559 75.4879C12.8042 75.4189 12.758 75.3719 12.7063 75.3029L12.6546 75.234C12.3934 74.9248 12.1459 74.6239 11.9529 74.3562L11.9475 74.3341C11.8958 74.2651 11.8495 74.2181 11.8115 74.1574L11.6837 73.967C11.594 73.8373 11.5179 73.7159 11.4554 73.6028C11.3169 73.3683 11.2109 73.1725 11.1377 73.0153C10.9857 72.6788 10.9618 72.4391 11.063 72.3319C11.1642 72.2247 11.3989 72.2364 11.7533 72.3585C11.9196 72.4223 12.1267 72.5109 12.3529 72.63C12.4701 72.6826 12.5791 72.749 12.7153 72.832L12.906 72.9482L13.1049 73.0506C13.3229 73.1834 13.5763 73.3191 13.8351 73.4768C13.9032 73.5183 13.9714 73.5598 14.0395 73.6013C14.1212 73.651 14.2029 73.7008 14.2983 73.7589L14.3255 73.7755C14.4073 73.8253 14.489 73.8751 14.5707 73.9249C14.7478 74.0328 14.9385 74.149 15.1292 74.2652C15.2791 74.3565 15.4289 74.4478 15.5788 74.5391C15.824 74.6885 16.0828 74.8462 16.3553 75.0121L16.4234 75.0536C16.6277 75.1781 16.8184 75.2943 17.031 75.405C17.14 75.4714 17.2626 75.5461 17.3715 75.6125C17.4396 75.654 17.5214 75.7038 17.5895 75.7453C17.6304 75.7702 17.6848 75.8034 17.7257 75.8283C18.7911 76.4398 19.8729 77.0239 20.9575 77.5721C22.2138 78.2062 23.4948 78.799 24.7513 79.3394C24.814 79.3589 24.8685 79.3921 24.9448 79.4198C25.0484 79.4642 25.1656 79.5168 25.2692 79.5611L25.7953 79.7691C25.948 79.8246 26.0924 79.8938 26.2451 79.9493C26.4386 80.0297 26.654 80.1046 26.8611 80.1933C27.0629 80.26 27.2564 80.3404 27.4582 80.407L27.9652 80.5846C28.028 80.604 28.1043 80.6318 28.167 80.6512C28.2842 80.7039 28.396 80.7344 28.5214 80.7733L28.7723 80.8511C28.8841 80.8817 28.9876 80.9261 29.0994 80.9567C29.2876 81.015 29.4893 81.0816 29.6692 81.1537C29.7183 81.1648 29.7592 81.1898 29.8083 81.2009C29.9473 81.2481 30.1 81.3036 30.2472 81.337C30.5826 81.4288 30.9234 81.5426 31.2588 81.6344L31.4197 81.6761C31.4552 81.679 31.496 81.7038 31.5315 81.7067C31.5942 81.7261 31.6569 81.7456 31.7196 81.765L32.0278 81.8402C32.2241 81.8848 32.4123 81.9431 32.6086 81.9877C32.7068 82.01 32.8322 82.0489 32.9304 82.0712C33.0286 82.0935 33.1185 82.1295 33.2303 82.1601C33.3557 82.199 33.4894 82.2241 33.623 82.2493C33.6994 82.277 33.7703 82.2827 33.8466 82.3105C33.9939 82.3439 34.1548 82.3856 34.3239 82.4136L34.5475 82.4748L34.6947 82.5082C34.7793 82.5222 34.8692 82.5583 34.9538 82.5723C35.052 82.5946 35.1365 82.6085 35.2347 82.6308C35.2838 82.642 35.3465 82.6614 35.4038 82.6588C35.7202 82.7202 36.0638 82.7982 36.4511 82.8654C36.4866 82.8682 36.5138 82.8848 36.5493 82.8877C36.612 82.9071 36.6693 82.9045 36.732 82.924C36.8301 82.9463 36.9229 82.9465 37.0211 82.9688L37.6456 83.1054C39.8085 83.4663 41.8846 83.6618 43.9855 83.7223C44.1137 83.7254 44.2556 83.7367 44.3838 83.7398C44.8832 83.7439 45.3879 83.77 45.9173 83.7548C46.1247 83.7498 46.3457 83.7532 46.5667 83.7565L46.9378 83.7575C47.2598 83.7473 47.59 83.7233 47.9339 83.7077L47.9912 83.7051C48.1631 83.6973 48.3569 83.684 48.5288 83.6762C48.608 83.6681 48.7008 83.6684 48.8018 83.6548L48.9164 83.6496C48.9737 83.647 49.0174 83.6361 49.0747 83.6335C49.4049 83.6096 49.7434 83.5719 50.0736 83.5479L50.1746 83.5344C50.3247 83.5321 50.4693 83.5076 50.614 83.4832C50.6495 83.4861 50.6932 83.4752 50.7369 83.4643L50.8952 83.4481C51.0316 83.4375 51.1545 83.4185 51.2992 83.3941C51.4002 83.3806 51.5011 83.3671 51.6021 83.3536C51.8833 83.3185 52.1644 83.2834 52.4538 83.2345L52.9451 83.1587C53.169 83.1262 53.3928 83.0937 53.6249 83.0475C53.704 83.0394 53.805 83.0259 53.9224 82.9849L54.22 82.9223C54.4084 82.887 54.6186 82.8462 54.8152 82.7971C54.9244 82.7699 55.0472 82.7509 55.1701 82.7319L55.4021 82.6857C55.5332 82.653 55.6642 82.6203 55.8089 82.5959L56.1502 82.5224C56.3031 82.4842 56.456 82.446 56.6225 82.4162C56.7317 82.3889 56.8191 82.3671 56.9283 82.3398L57.0895 82.2879L57.2424 82.2497C57.6438 82.1378 58.067 82.0205 58.4766 81.8948C58.5203 81.8839 58.5504 81.8647 58.5858 81.8675C58.6514 81.8512 58.7169 81.8348 58.7906 81.8047L58.8562 81.7883C58.9435 81.7665 59.0173 81.7364 59.1047 81.7146C59.3095 81.6518 59.5225 81.5752 59.7273 81.5124L59.8884 81.4604C60.0496 81.4085 60.2107 81.3566 60.3718 81.3047L60.6067 81.2226C60.7323 81.1679 60.8716 81.1214 60.9973 81.0666L61.6227 80.8286C61.6883 80.8123 61.762 80.7821 61.8139 80.7575L61.926 80.6944C61.9997 80.6643 62.0789 80.6562 62.139 80.6178C62.1691 80.5986 62.2127 80.5877 62.2564 80.5768L62.6252 80.4263C62.9202 80.3058 63.2234 80.1716 63.5184 80.0512L63.5403 80.0457C63.7397 79.9608 63.9473 79.8622 64.1549 79.7636L64.7914 79.476C65.6602 79.0485 66.5154 78.6127 67.3079 78.1575C68.1605 77.6638 68.9858 77.1536 69.7567 76.6102C70.5576 76.0475 71.3477 75.4408 72.0752 74.8146C72.2283 74.6827 72.3814 74.5509 72.521 74.4108C72.5592 74.3778 72.5893 74.3586 72.614 74.3174C72.7918 74.1443 72.9832 73.9795 73.161 73.8064C73.2841 73.6938 73.3853 73.5866 73.4948 73.4657C73.5577 73.3915 73.626 73.3393 73.689 73.2651L73.7054 73.2376C73.7902 73.1579 73.8614 73.07 73.9462 72.9903C73.9626 72.9628 73.9927 72.9436 74.0228 72.9244C74.0775 72.8639 74.1541 72.798 74.217 72.7238C74.7725 72.1054 75.495 71.2699 76.144 70.3707C76.2069 70.2965 76.2562 70.214 76.3192 70.1398C76.415 70.0106 76.5108 69.8814 76.6067 69.7521L77.0285 69.1086C77.2312 68.8006 77.4203 68.4843 77.6094 68.168C77.6834 68.0443 77.7656 67.9067 77.8396 67.783C77.93 67.6317 78.0286 67.4667 78.1055 67.3071C78.1466 67.2383 78.174 67.1613 78.2151 67.0925C78.2727 66.9963 78.3084 66.9054 78.3659 66.8092C78.641 67.033 78.916 67.2568 79.1992 67.4669C79.8937 67.9839 80.6702 68.4569 81.4742 68.8529ZM81.4742 68.8529C81.0681 68.6618 80.673 68.4211 80.2916 68.1887C79.6105 67.7738 78.9623 67.3038 78.3469 66.7788C78.4155 66.633 78.4895 66.5092 78.5581 66.3634L78.8928 65.648L79.1068 65.1968L79.2139 64.9244L79.4802 64.2612C80.2342 65.0207 81.0538 65.6701 81.912 66.193C82.1164 66.3175 82.3207 66.442 82.5333 66.5527L82.4811 66.671L82.4372 66.7756L82.2479 67.1856C82.1518 67.4084 82.0557 67.6313 81.9543 67.8322L81.8775 67.9917L81.4988 68.8117C81.4906 68.8254 81.4742 68.8529 81.4742 68.8529ZM111.476 39.8354C111.503 39.852 111.541 40.0063 111.535 40.2652C111.532 40.3947 111.531 40.582 111.531 40.7693L111.52 40.8189C111.519 41.0062 111.502 41.221 111.483 41.4717C111.455 41.736 111.432 42.0225 111.385 42.3502C111.371 42.5292 111.343 42.6999 111.324 42.8569L111.296 43.0276C111.279 43.1488 111.254 43.2837 111.238 43.4048C111.218 43.4681 111.221 43.526 111.215 43.5976C111.199 43.7188 111.174 43.8537 111.149 43.9886L111.005 44.6328C110.986 44.6961 110.98 44.7677 110.966 44.8531C110.942 44.988 110.914 45.1587 110.881 45.3074L110.806 45.6185C110.781 45.7534 110.743 45.88 110.718 46.0149C110.514 46.8849 110.227 47.8924 109.826 49.186C109.76 49.3897 109.672 49.5988 109.606 49.8025L109.515 50.0475C109.469 50.1878 109.422 50.3282 109.361 50.4603L109.345 50.4878L109.166 50.9418C109.123 51.0464 109.079 51.151 109.035 51.2555C108.955 51.4509 108.881 51.6683 108.801 51.8637C108.669 52.1774 108.538 52.4911 108.398 52.8186C107.783 54.1888 107.1 55.5176 106.366 56.7773L105.749 57.8087C105.609 58.0425 105.456 58.268 105.303 58.4935C105.237 58.6035 105.149 58.719 105.083 58.829C105.001 58.9665 104.905 59.0957 104.81 59.225C104.785 59.2662 104.76 59.3075 104.722 59.3404L104.681 59.4092C104.577 59.5522 104.465 59.7089 104.374 59.8602C104.317 59.9564 104.254 60.0307 104.196 60.1269C104.141 60.1874 104.1 60.2561 104.046 60.3166L104.004 60.3854C103.98 60.4266 103.941 60.4596 103.917 60.5008C103.821 60.6301 103.717 60.773 103.599 60.9077C102.48 62.3455 101.232 63.6866 99.8673 64.8814C99.1234 65.5351 98.3551 66.1363 97.5843 66.6798C96.7533 67.2616 95.876 67.7965 95.0126 68.2461C94.0673 68.7395 93.0784 69.1501 92.1335 69.4562C91.6065 69.6229 91.0876 69.7758 90.5798 69.8792C90.0284 69.9934 89.4851 70.094 88.9529 70.1449C86.6274 70.3978 84.298 70.0668 82.2319 69.202C81.9756 69.1021 81.714 68.9802 81.4742 68.8529C81.4824 68.8392 81.4906 68.8254 81.4988 68.8117L81.8965 68.0221L81.9733 67.8625C82.0694 67.6396 82.1654 67.4168 82.2669 67.2159L82.5002 66.7014L82.5523 66.5831C82.7785 66.7021 82.991 66.8129 83.2254 66.9181C83.4189 66.9985 83.6125 67.0789 83.8196 67.1676L83.896 67.1953C83.9859 67.2314 84.0841 67.2537 84.174 67.2897C84.3131 67.3369 84.4385 67.3758 84.5776 67.423C84.6403 67.4424 84.703 67.4619 84.7739 67.4676L84.9021 67.4707C84.9158 67.479 84.924 67.4652 84.9512 67.4818C85.0494 67.5041 85.153 67.5484 85.2594 67.557C85.3303 67.5627 85.4067 67.5904 85.4776 67.5961C85.6248 67.6295 85.7939 67.6575 85.9631 67.6855C86.8795 67.8311 87.8181 67.8776 88.7733 67.803C90.5036 67.6752 92.3004 67.1565 94.1171 66.2934C94.9176 65.9181 95.71 65.4629 96.4999 64.9498C97.2297 64.4751 97.9569 63.9426 98.6596 63.3576C99.9721 62.2812 101.195 61.075 102.29 59.7721C102.818 59.1372 103.319 58.4856 103.782 57.867C103.869 57.7515 103.951 57.614 104.039 57.4985C104.176 57.3006 104.313 57.1026 104.463 56.9129L105.096 55.9476C105.852 54.7761 106.565 53.5218 107.231 52.2205C107.377 51.9151 107.536 51.618 107.673 51.3264C107.766 51.1393 107.846 50.9439 107.931 50.7706C107.975 50.666 108.027 50.5477 108.084 50.4515L108.282 50.0277L108.307 49.9865C108.367 49.8544 108.419 49.7361 108.466 49.5957C108.581 49.3095 108.702 49.0454 108.809 48.773C109.301 47.5153 109.625 46.5686 109.897 45.7401L110.115 45.0658C110.161 44.9254 110.2 44.7988 110.225 44.6639C110.252 44.5868 110.266 44.5015 110.294 44.4244C110.332 44.2978 110.371 44.1712 110.409 44.0445L110.47 43.8188C110.508 43.6922 110.539 43.5793 110.555 43.4582C110.574 43.3948 110.588 43.3095 110.608 43.2462C110.657 43.07 110.693 42.8855 110.743 42.7094C110.792 42.5332 110.834 42.3708 110.867 42.2221C110.941 41.911 110.999 41.6274 111.076 41.3742C111.118 41.2118 111.159 41.0494 111.184 40.9144C111.198 40.8291 111.217 40.7658 111.236 40.7025C111.28 40.5043 111.322 40.3418 111.36 40.2152C111.394 39.9729 111.427 39.8242 111.476 39.8354ZM77.878 45.0871C77.8916 45.0954 77.8971 45.1175 77.8971 45.1175C78.0197 45.1922 78.1531 45.3109 78.3137 45.4463C78.4471 45.5651 78.5913 45.7281 78.7599 45.9434L78.9857 46.2497L79.1026 46.396C79.1489 46.4429 79.1733 46.4954 79.2113 46.5561C79.7551 47.3563 80.2112 48.2721 80.5524 49.2867C80.8774 50.2351 81.1094 51.277 81.2322 52.3461C81.3525 53.3574 81.3879 54.4484 81.3578 55.5557C81.3437 55.7347 81.3378 55.9 81.3237 56.079C81.3235 56.1726 81.3096 56.258 81.3094 56.3517C81.2814 56.6161 81.2453 56.8942 81.2309 57.1669L81.1917 57.5745C81.1778 57.6598 81.164 57.7452 81.1501 57.8305C81.1391 57.8801 81.128 57.9296 81.1252 57.9654L80.9977 58.7695C81.0031 58.7916 80.9866 58.8191 80.992 58.8411C80.9892 58.8769 80.9782 58.9265 80.9753 58.9623L80.9366 59.1825L80.8483 59.579L80.7736 59.9837C80.7708 60.0195 80.7543 60.047 80.7515 60.0828C80.7294 60.182 80.7073 60.2811 80.6852 60.3802C80.6411 60.5784 80.5833 60.7683 80.5474 60.9528L80.5032 61.151C80.4922 61.2006 80.4811 61.2501 80.4701 61.2997C80.4562 61.385 80.4287 61.4621 80.4149 61.5475L80.2993 61.9273C80.2305 62.1668 80.1534 62.42 80.0846 62.6595L80.0818 62.6953C80.0268 62.8495 79.9636 63.0173 79.9087 63.1714C79.873 63.2622 79.8373 63.3531 79.8152 63.4522L79.6505 63.8209C79.6341 63.8484 79.6259 63.8621 79.6176 63.8759C79.6066 63.9254 79.6038 63.9612 79.5928 64.0108L79.4856 64.2832C79.1754 63.9629 78.8597 63.6205 78.5659 63.2727C77.9212 62.4859 77.3531 61.6332 76.8752 60.7229C76.4162 59.843 76.0149 58.8668 75.7037 57.833C75.4033 56.8433 75.1795 55.7876 75.0431 54.7102C74.9121 53.6548 74.8548 52.5693 74.8767 51.4758C74.8769 51.3821 74.8771 51.2884 74.8828 51.2168C74.8833 51.0295 74.8974 50.8505 74.8978 50.6632L74.8952 50.6053C74.915 50.3547 74.9211 50.0958 74.9408 49.8451L74.9801 49.4376L75.0583 48.716L75.0722 48.6307C75.0888 48.5095 75.1055 48.3883 75.1358 48.2755C75.2298 47.8074 75.3592 47.3422 75.5513 46.8964C75.7299 46.4424 75.9546 46.0353 76.201 45.7164C76.4256 45.4029 76.71 45.1447 76.9395 45.0406C77.0433 44.9913 77.1307 44.9695 77.2317 44.956C77.3409 44.9287 77.4473 44.9372 77.5591 44.9678C77.6709 44.9984 77.769 45.0207 77.878 45.0871Z" fill="white"/>
</svg>
