<svg width="232" height="47" viewBox="0 0 232 47" fill="none" xmlns="http://www.w3.org/2000/svg">
<path d="M35.5139 22.2652H48.3525C47.681 23.5613 46.7989 24.7781 45.7116 25.8658L25.0002 46.5772L4.28885 25.8658C2.86011 24.4371 1.78877 22.7881 1.07349 21.0257H19.0951L25.8687 36.5814L31.9757 13.9043L35.5139 22.2652Z" fill="#5DB93D"/>
<path d="M49.6113 18.8664H37.766L31.2614 3.49205L25.1106 26.3278L21.3227 17.6268H0.153122C-0.489222 13.2093 0.889377 8.55512 4.28938 5.15558C10.0098 -0.564881 19.2817 -0.564881 25.0007 5.15558C30.7194 -0.564881 39.9917 -0.564881 45.7121 5.15558C49.4303 8.87424 50.7314 14.0978 49.6113 18.8664Z" fill="white"/>
<path d="M74.848 33.9167C73.4107 33.9167 72.1227 33.6834 70.984 33.2167C69.8453 32.75 68.9307 32.0594 68.24 31.1447C67.568 30.23 67.2133 29.1287 67.176 27.8407H72.272C72.3467 28.5687 72.5987 29.1287 73.028 29.5207C73.4573 29.894 74.0173 30.0807 74.708 30.0807C75.4173 30.0807 75.9773 29.922 76.388 29.6047C76.7987 29.2687 77.004 28.8114 77.004 28.2327C77.004 27.7474 76.836 27.346 76.5 27.0287C76.1827 26.7114 75.7813 26.45 75.296 26.2447C74.8293 26.0394 74.1573 25.806 73.28 25.5447C72.0107 25.1527 70.9747 24.7607 70.172 24.3687C69.3693 23.9767 68.6787 23.398 68.1 22.6327C67.5213 21.8674 67.232 20.8687 67.232 19.6367C67.232 17.8074 67.8947 16.3794 69.22 15.3527C70.5453 14.3074 72.272 13.7847 74.4 13.7847C76.5653 13.7847 78.3107 14.3074 79.636 15.3527C80.9613 16.3794 81.6707 17.8167 81.764 19.6647H76.584C76.5467 19.03 76.3133 18.5354 75.884 18.1807C75.4547 17.8074 74.904 17.6207 74.232 17.6207C73.6533 17.6207 73.1867 17.7794 72.832 18.0967C72.4773 18.3954 72.3 18.834 72.3 19.4127C72.3 20.0474 72.5987 20.542 73.196 20.8967C73.7933 21.2514 74.7267 21.634 75.996 22.0447C77.2653 22.474 78.292 22.8847 79.076 23.2767C79.8787 23.6687 80.5693 24.238 81.148 24.9847C81.7267 25.7314 82.016 26.6927 82.016 27.8687C82.016 28.9887 81.7267 30.006 81.148 30.9207C80.588 31.8354 79.7667 32.5634 78.684 33.1047C77.6013 33.646 76.3227 33.9167 74.848 33.9167ZM89.7506 17.9007V21.8767H96.1626V25.5727H89.7506V29.8847H97.0026V33.7207H84.9626V14.0647H97.0026V17.9007H89.7506ZM104.899 30.0247H111.171V33.7207H100.111V14.0647H104.899V30.0247ZM118.243 30.0247H124.515V33.7207H113.455V14.0647H118.243V30.0247ZM133.911 33.9167C132.473 33.9167 131.185 33.6834 130.047 33.2167C128.908 32.75 127.993 32.0594 127.303 31.1447C126.631 30.23 126.276 29.1287 126.239 27.8407H131.335C131.409 28.5687 131.661 29.1287 132.091 29.5207C132.52 29.894 133.08 30.0807 133.771 30.0807C134.48 30.0807 135.04 29.922 135.451 29.6047C135.861 29.2687 136.067 28.8114 136.067 28.2327C136.067 27.7474 135.899 27.346 135.563 27.0287C135.245 26.7114 134.844 26.45 134.359 26.2447C133.892 26.0394 133.22 25.806 132.343 25.5447C131.073 25.1527 130.037 24.7607 129.235 24.3687C128.432 23.9767 127.741 23.398 127.163 22.6327C126.584 21.8674 126.295 20.8687 126.295 19.6367C126.295 17.8074 126.957 16.3794 128.283 15.3527C129.608 14.3074 131.335 13.7847 133.463 13.7847C135.628 13.7847 137.373 14.3074 138.699 15.3527C140.024 16.3794 140.733 17.8167 140.827 19.6647H135.647C135.609 19.03 135.376 18.5354 134.947 18.1807C134.517 17.8074 133.967 17.6207 133.294 17.6207C132.716 17.6207 132.249 17.7794 131.895 18.0967C131.54 18.3954 131.363 18.834 131.363 19.4127C131.363 20.0474 131.661 20.542 132.258 20.8967C132.856 21.2514 133.789 21.634 135.059 22.0447C136.328 22.474 137.355 22.8847 138.139 23.2767C138.941 23.6687 139.632 24.238 140.211 24.9847C140.789 25.7314 141.079 26.6927 141.079 27.8687C141.079 28.9887 140.789 30.006 140.211 30.9207C139.651 31.8354 138.829 32.5634 137.747 33.1047C136.664 33.646 135.385 33.9167 133.911 33.9167ZM166.285 14.0647V33.7207H161.497V21.9327L157.101 33.7207H153.237L148.813 21.9047V33.7207H144.025V14.0647H149.681L155.197 27.6727L160.657 14.0647H166.285ZM181.964 30.2487H174.628L173.452 33.7207H168.44L175.552 14.0647H181.096L188.208 33.7207H183.14L181.964 30.2487ZM180.732 26.5527L178.296 19.3567L175.888 26.5527H180.732ZM200.397 33.7207L196.309 26.3007H195.161V33.7207H190.373V14.0647H198.409C199.958 14.0647 201.274 14.3354 202.357 14.8767C203.458 15.418 204.279 16.1647 204.821 17.1167C205.362 18.05 205.633 19.0954 205.633 20.2527C205.633 21.5594 205.259 22.726 204.513 23.7527C203.785 24.7794 202.702 25.5074 201.265 25.9367L205.801 33.7207H200.397ZM195.161 22.9127H198.129C199.006 22.9127 199.659 22.698 200.089 22.2687C200.537 21.8394 200.761 21.2327 200.761 20.4487C200.761 19.702 200.537 19.114 200.089 18.6847C199.659 18.2554 199.006 18.0407 198.129 18.0407H195.161V22.9127ZM222.778 14.0647V17.9007H217.57V33.7207H212.782V17.9007H207.574V14.0647H222.778Z" fill="white"/>
<path d="M227.421 33.9447C226.581 33.9447 225.891 33.702 225.349 33.2167C224.827 32.7127 224.565 32.0967 224.565 31.3687C224.565 30.622 224.827 29.9967 225.349 29.4927C225.891 28.9887 226.581 28.7367 227.421 28.7367C228.243 28.7367 228.915 28.9887 229.437 29.4927C229.979 29.9967 230.249 30.622 230.249 31.3687C230.249 32.0967 229.979 32.7127 229.437 33.2167C228.915 33.702 228.243 33.9447 227.421 33.9447Z" fill="#5DB93D"/>
</svg>
