<svg width="45" height="46" viewBox="0 0 45 46" fill="none" xmlns="http://www.w3.org/2000/svg">
<path d="M23.0556 16.8557C22.8674 16.6652 22.644 16.5141 22.3982 16.411C22.1523 16.3079 21.8888 16.2549 21.6227 16.2549C21.3566 16.2549 21.0931 16.3079 20.8473 16.411C20.6014 16.5141 20.378 16.6652 20.1899 16.8557L16.8682 20.2184C16.6798 20.4088 16.5304 20.635 16.4284 20.8839C16.3264 21.1328 16.2739 21.3997 16.2739 21.6691C16.2739 21.9386 16.3264 22.2055 16.4284 22.4544C16.5304 22.7033 16.6798 22.9295 16.8682 23.1199L21.8773 28.1901C22.0654 28.3807 22.2888 28.5319 22.5347 28.635C22.7806 28.7382 23.0442 28.7913 23.3103 28.7913C23.5765 28.7913 23.84 28.7382 24.0859 28.635C24.3318 28.5319 24.5552 28.3807 24.7433 28.1901L28.065 24.8274C28.2535 24.6371 28.4029 24.411 28.5049 24.1621C28.6069 23.9132 28.6594 23.6463 28.6594 23.3769C28.6594 23.1074 28.6069 22.8406 28.5049 22.5917C28.4029 22.3428 28.2535 22.1167 28.065 21.9263L23.0556 16.8557ZM27.2052 23.9573L23.8831 27.32C23.7309 27.4734 23.5249 27.5595 23.3101 27.5595C23.0954 27.5595 22.8894 27.4734 22.7371 27.32L17.7284 22.2497C17.5769 22.0957 17.4918 21.8871 17.4918 21.6697C17.4918 21.4523 17.5769 21.2437 17.7284 21.0896L21.0497 17.7269C21.202 17.5735 21.408 17.4874 21.6227 17.4874C21.8375 17.4874 22.0435 17.5735 22.1957 17.7269L27.2059 22.7961C27.3576 22.9503 27.4428 23.1592 27.4428 23.3769C27.4428 23.5946 27.3576 23.8034 27.2059 23.9576L27.2052 23.9573Z" fill="#5DB93D"/>
<path d="M32.6038 22.5162L36.7478 18.3178C37.3766 17.6825 37.8755 16.9279 38.2159 16.0971C38.5563 15.2664 38.7315 14.3758 38.7315 13.4765C38.7315 12.5771 38.5563 11.6866 38.2159 10.8558C37.8755 10.0251 37.3766 9.27044 36.7478 8.63511L36.1696 8.04659C34.8988 6.76555 33.1784 6.04633 31.385 6.04633C29.5916 6.04633 27.8712 6.76555 26.6004 8.04659L22.4581 12.245L18.311 8.04659C17.0411 6.76519 15.3213 6.04565 13.5283 6.04565C11.7353 6.04565 10.0155 6.76519 8.74562 8.04659L8.16567 8.63405C6.89922 9.91923 6.18799 11.6604 6.18799 13.4758C6.18799 15.2911 6.89922 17.0323 8.16567 18.3175L12.3125 22.5159L8.16567 26.7114C6.89922 27.9966 6.18799 29.7378 6.18799 31.5531C6.18799 33.3684 6.89922 35.1097 8.16567 36.3948L8.74597 36.9823C10.0158 38.2637 11.7356 38.9832 13.5285 38.9832C15.3214 38.9832 17.0412 38.2637 18.311 36.9823L22.4585 32.7867L26.6025 36.9823C27.8734 38.2636 29.594 38.9829 31.3876 38.9829C33.1812 38.9829 34.9018 38.2636 36.1727 36.9823L36.7481 36.3962C37.3772 35.761 37.8763 35.0063 38.2168 34.1755C38.5573 33.3447 38.7326 32.454 38.7326 31.5545C38.7326 30.655 38.5573 29.7644 38.2168 28.9335C37.8763 28.1027 37.3772 27.3481 36.7481 26.7128L32.6038 22.5162ZM27.4613 8.91706C28.5039 7.86683 29.9148 7.27724 31.3855 7.27724C32.8563 7.27724 34.2672 7.86683 35.3097 8.91706L35.889 9.50487C36.4049 10.026 36.8143 10.645 37.0936 11.3265C37.3729 12.0081 37.5167 12.7386 37.5167 13.4765C37.5167 14.2143 37.3729 14.9449 37.0936 15.6264C36.8143 16.3079 36.4049 16.927 35.889 17.4481L31.7446 21.6461L23.3176 13.1154L27.4613 8.91706ZM21.5972 31.9166L17.4518 36.1122C16.4099 37.1637 14.9988 37.7542 13.5276 37.7542C12.0564 37.7542 10.6453 37.1637 9.60339 36.1122L9.02344 35.5251C7.98485 34.4706 7.40163 33.0423 7.40163 31.5533C7.40163 30.0642 7.98485 28.6359 9.02344 27.5815L13.1723 23.386L21.5972 31.9166ZM35.8876 35.5247L35.3129 36.1104C34.2702 37.1613 32.8588 37.7513 31.3874 37.7513C29.9161 37.7513 28.5047 37.1613 27.462 36.1104C21.3152 29.8878 15.1358 23.6321 9.02518 17.446C7.98606 16.3915 7.4025 14.9628 7.4025 13.4733C7.4025 11.9838 7.98606 10.5552 9.02518 9.50065L9.60478 8.9139C10.6464 7.86195 12.0577 7.27119 13.529 7.27119C15.0003 7.27119 16.4116 7.86195 17.4532 8.9139L35.8904 27.5787C36.4067 28.1 36.8163 28.7193 37.0957 29.4011C37.3751 30.0829 37.5189 30.8138 37.5188 31.552C37.5186 32.2902 37.3746 33.0211 37.0949 33.7028C36.8153 34.3845 36.4055 35.0036 35.889 35.5247H35.8876Z" fill="#5DB93D"/>
<path d="M32.2846 30.6113C32.5743 30.6113 32.809 30.3736 32.809 30.0804C32.809 29.7872 32.5743 29.5496 32.2846 29.5496C31.995 29.5496 31.7603 29.7872 31.7603 30.0804C31.7603 30.3736 31.995 30.6113 32.2846 30.6113Z" fill="#5DB93D"/>
<path d="M30.0938 27.8621C30.1672 27.7879 30.2172 27.6933 30.2374 27.5903C30.2577 27.4873 30.2473 27.3806 30.2076 27.2836C30.1679 27.1866 30.1007 27.1036 30.0145 27.0453C29.9282 26.9869 29.8268 26.9558 29.7231 26.9558C29.6194 26.9558 29.518 26.9869 29.4318 27.0453C29.3455 27.1036 29.2783 27.1866 29.2386 27.2836C29.1989 27.3806 29.1886 27.4873 29.2088 27.5903C29.2291 27.6933 29.279 27.7879 29.3524 27.8621C29.4011 27.9114 29.4589 27.9506 29.5225 27.9772C29.5861 28.0039 29.6543 28.0177 29.7231 28.0177C29.792 28.0177 29.8602 28.0039 29.9238 27.9772C29.9874 27.9506 30.0452 27.9114 30.0938 27.8621Z" fill="#5DB93D"/>
<path d="M29.5607 32.086C29.4874 32.1603 29.4375 32.2548 29.4173 32.3578C29.3971 32.4608 29.4075 32.5675 29.4472 32.6645C29.4869 32.7615 29.5541 32.8444 29.6403 32.9027C29.7265 32.961 29.8279 32.9921 29.9316 32.9921C30.0353 32.9921 30.1367 32.961 30.2229 32.9027C30.3091 32.8444 30.3764 32.7615 30.4161 32.6645C30.4558 32.5675 30.4662 32.4608 30.4459 32.3578C30.4257 32.2548 30.3758 32.1603 30.3025 32.086C30.2538 32.0367 30.196 31.9976 30.1323 31.9709C30.0687 31.9442 30.0005 31.9304 29.9316 31.9304C29.8627 31.9304 29.7945 31.9442 29.7309 31.9709C29.6672 31.9976 29.6094 32.0367 29.5607 32.086Z" fill="#5DB93D"/>
<path d="M32.0179 32.1913C31.9446 32.2655 31.8946 32.3601 31.8744 32.4631C31.8541 32.5661 31.8645 32.6728 31.9042 32.7698C31.9438 32.8669 32.011 32.9498 32.0973 33.0081C32.1835 33.0665 32.2849 33.0976 32.3886 33.0976C32.4924 33.0976 32.5938 33.0665 32.68 33.0081C32.7662 32.9498 32.8335 32.8669 32.8731 32.7698C32.9128 32.6728 32.9232 32.5661 32.9029 32.4631C32.8827 32.3601 32.8327 32.2655 32.7594 32.1913C32.661 32.0918 32.5277 32.0359 32.3886 32.0359C32.2496 32.0359 32.1163 32.0918 32.0179 32.1913Z" fill="#5DB93D"/>
<path d="M30.1978 30.3504C30.2712 30.2762 30.3212 30.1816 30.3414 30.0786C30.3617 29.9756 30.3513 29.8689 30.3116 29.7719C30.2719 29.6748 30.2047 29.5919 30.1185 29.5336C30.0322 29.4752 29.9308 29.4441 29.8271 29.4441C29.7234 29.4441 29.622 29.4752 29.5358 29.5336C29.4495 29.5919 29.3823 29.6748 29.3426 29.7719C29.3029 29.8689 29.2926 29.9756 29.3128 30.0786C29.3331 30.1816 29.383 30.2762 29.4564 30.3504C29.5547 30.4499 29.6881 30.5058 29.8271 30.5058C29.9662 30.5058 30.0995 30.4499 30.1978 30.3504Z" fill="#5DB93D"/>
<path d="M26.9992 29.4939C26.9259 29.5682 26.876 29.6628 26.8558 29.7657C26.8355 29.8687 26.8459 29.9754 26.8856 30.0724C26.9253 30.1694 26.9926 30.2523 27.0788 30.3106C27.165 30.3689 27.2664 30.4001 27.3701 30.4001C27.4738 30.4001 27.5752 30.3689 27.6614 30.3106C27.7476 30.2523 27.8148 30.1694 27.8545 30.0724C27.8942 29.9754 27.9046 29.8687 27.8844 29.7657C27.8642 29.6628 27.8143 29.5682 27.741 29.4939C27.6425 29.3945 27.5092 29.3386 27.3701 29.3386C27.231 29.3386 27.0976 29.3945 26.9992 29.4939Z" fill="#5DB93D"/>
<path d="M12.2746 14.5877C12.2013 14.6619 12.1514 14.7565 12.1312 14.8595C12.1109 14.9624 12.1213 15.0692 12.161 15.1662C12.2007 15.2631 12.2679 15.346 12.3542 15.4044C12.4404 15.4627 12.5418 15.4938 12.6455 15.4938C12.7492 15.4938 12.8506 15.4627 12.9368 15.4044C13.023 15.346 13.0902 15.2631 13.1299 15.1662C13.1696 15.0692 13.18 14.9624 13.1598 14.8595C13.1396 14.7565 13.0897 14.6619 13.0164 14.5877C12.9179 14.4882 12.7845 14.4324 12.6455 14.4324C12.5064 14.4324 12.373 14.4882 12.2746 14.5877Z" fill="#5DB93D"/>
<path d="M15.207 18.0859C15.4966 18.0859 15.7314 17.8482 15.7314 17.555C15.7314 17.2618 15.4966 17.0242 15.207 17.0242C14.9174 17.0242 14.6826 17.2618 14.6826 17.555C14.6826 17.8482 14.9174 18.0859 15.207 18.0859Z" fill="#5DB93D"/>
<path d="M15.3694 12.9555C15.4427 12.8812 15.4926 12.7866 15.5128 12.6836C15.533 12.5807 15.5226 12.4739 15.483 12.377C15.4433 12.28 15.376 12.1971 15.2898 12.1388C15.2036 12.0804 15.1022 12.0493 14.9985 12.0493C14.8948 12.0493 14.7934 12.0804 14.7072 12.1388C14.621 12.1971 14.5538 12.28 14.5141 12.377C14.4744 12.4739 14.464 12.5807 14.4842 12.6836C14.5044 12.7866 14.5543 12.8812 14.6276 12.9555C14.726 13.055 14.8594 13.1109 14.9985 13.1109C15.1376 13.1109 15.271 13.055 15.3694 12.9555Z" fill="#5DB93D"/>
<path d="M12.9124 12.85C12.9857 12.7757 13.0356 12.6811 13.0558 12.5782C13.076 12.4752 13.0656 12.3685 13.0259 12.2715C12.9862 12.1745 12.919 12.0916 12.8328 12.0333C12.7466 11.975 12.6452 11.9438 12.5415 11.9438C12.4378 11.9438 12.3364 11.975 12.2502 12.0333C12.1639 12.0916 12.0967 12.1745 12.057 12.2715C12.0173 12.3685 12.0069 12.4752 12.0271 12.5782C12.0474 12.6811 12.0973 12.7757 12.1706 12.85C12.2193 12.8994 12.2771 12.9385 12.3407 12.9652C12.4044 12.992 12.4726 13.0057 12.5415 13.0057C12.6104 13.0057 12.6786 12.992 12.7422 12.9652C12.8059 12.9385 12.8637 12.8994 12.9124 12.85Z" fill="#5DB93D"/>
<path d="M15.4734 15.444C15.5467 15.3697 15.5966 15.2751 15.6168 15.1722C15.6371 15.0692 15.6267 14.9625 15.587 14.8655C15.5473 14.7685 15.48 14.6856 15.3938 14.6273C15.3076 14.569 15.2062 14.5378 15.1025 14.5378C14.9988 14.5378 14.8974 14.569 14.8112 14.6273C14.725 14.6856 14.6578 14.7685 14.6181 14.8655C14.5784 14.9625 14.568 15.0692 14.5882 15.1722C14.6084 15.2751 14.6583 15.3697 14.7316 15.444C14.83 15.5435 14.9634 15.5994 15.1025 15.5994C15.2416 15.5994 15.375 15.5435 15.4734 15.444Z" fill="#5DB93D"/>
<path d="M17.5605 15.705C17.8501 15.705 18.0849 15.4674 18.0849 15.1742C18.0849 14.881 17.8501 14.6433 17.5605 14.6433C17.2709 14.6433 17.0361 14.881 17.0361 15.1742C17.0361 15.4674 17.2709 15.705 17.5605 15.705Z" fill="#5DB93D"/>
<path d="M15.3551 32.8367C15.4284 32.7625 15.4784 32.6679 15.4986 32.5649C15.5189 32.4619 15.5085 32.3552 15.4688 32.2582C15.4292 32.1612 15.3619 32.0782 15.2757 32.0199C15.1895 31.9616 15.0881 31.9304 14.9843 31.9304C14.8806 31.9304 14.7792 31.9616 14.693 32.0199C14.6067 32.0782 14.5395 32.1612 14.4999 32.2582C14.4602 32.3552 14.4498 32.4619 14.4701 32.5649C14.4903 32.6679 14.5403 32.7625 14.6136 32.8367C14.712 32.9362 14.8453 32.9921 14.9843 32.9921C15.1234 32.9921 15.2567 32.9362 15.3551 32.8367Z" fill="#5DB93D"/>
<path d="M17.9161 30.2449C17.9895 30.1707 18.0394 30.0761 18.0597 29.9731C18.0799 29.8701 18.0696 29.7634 18.0299 29.6664C17.9902 29.5694 17.923 29.4864 17.8367 29.4281C17.7505 29.3698 17.6491 29.3386 17.5454 29.3386C17.4417 29.3386 17.3403 29.3698 17.254 29.4281C17.1678 29.4864 17.1006 29.5694 17.0609 29.6664C17.0212 29.7634 17.0108 29.8701 17.0311 29.9731C17.0513 30.0761 17.1013 30.1707 17.1747 30.2449C17.273 30.3444 17.4063 30.4003 17.5454 30.4003C17.6844 30.4003 17.8178 30.3444 17.9161 30.2449Z" fill="#5DB93D"/>
<path d="M13.0027 30.4557C13.076 30.3814 13.1259 30.2869 13.1461 30.1839C13.1663 30.0809 13.1559 29.9742 13.1163 29.8772C13.0766 29.7802 13.0093 29.6973 12.9231 29.639C12.8369 29.5807 12.7355 29.5496 12.6318 29.5496C12.5281 29.5496 12.4267 29.5807 12.3405 29.639C12.2543 29.6973 12.1871 29.7802 12.1474 29.8772C12.1077 29.9742 12.0973 30.0809 12.1175 30.1839C12.1377 30.2869 12.1876 30.3814 12.2609 30.4557C12.3096 30.505 12.3674 30.5442 12.4311 30.5708C12.4947 30.5975 12.5629 30.6113 12.6318 30.6113C12.7007 30.6113 12.7689 30.5975 12.8325 30.5708C12.8962 30.5442 12.954 30.505 13.0027 30.4557Z" fill="#5DB93D"/>
<path d="M12.5273 33.0976C12.8169 33.0976 13.0517 32.8599 13.0517 32.5667C13.0517 32.2736 12.8169 32.0359 12.5273 32.0359C12.2377 32.0359 12.0029 32.2736 12.0029 32.5667C12.0029 32.8599 12.2377 33.0976 12.5273 33.0976Z" fill="#5DB93D"/>
<path d="M15.4597 30.3502C15.533 30.276 15.583 30.1814 15.6032 30.0784C15.6234 29.9754 15.613 29.8687 15.5733 29.7717C15.5336 29.6748 15.4664 29.5919 15.3801 29.5335C15.2939 29.4752 15.1925 29.4441 15.0888 29.4441C14.9851 29.4441 14.8838 29.4752 14.7975 29.5335C14.7113 29.5919 14.6441 29.6748 14.6044 29.7717C14.5647 29.8687 14.5543 29.9754 14.5745 30.0784C14.5947 30.1814 14.6446 30.276 14.7179 30.3502C14.8164 30.4497 14.9498 30.5055 15.0888 30.5055C15.2279 30.5055 15.3613 30.4497 15.4597 30.3502Z" fill="#5DB93D"/>
<path d="M15.5642 27.862C15.6375 27.7877 15.6874 27.6931 15.7077 27.5901C15.7279 27.4872 15.7175 27.3804 15.6778 27.2835C15.6381 27.1865 15.5709 27.1036 15.4846 27.0453C15.3984 26.9869 15.297 26.9558 15.1933 26.9558C15.0896 26.9558 14.9883 26.9869 14.902 27.0453C14.8158 27.1036 14.7486 27.1865 14.7089 27.2835C14.6692 27.3804 14.6588 27.4872 14.679 27.5901C14.6992 27.6931 14.7491 27.7877 14.8224 27.862C14.8711 27.9113 14.9289 27.9505 14.9926 27.9772C15.0562 28.0039 15.1244 28.0177 15.1933 28.0177C15.2622 28.0177 15.3305 28.0039 15.3941 27.9772C15.4577 27.9505 15.5155 27.9113 15.5642 27.862Z" fill="#5DB93D"/>
<path d="M29.5471 12.2053C29.4737 12.2795 29.4238 12.3741 29.4036 12.4771C29.3834 12.5801 29.3938 12.6868 29.4335 12.7838C29.4732 12.8808 29.5404 12.9637 29.6266 13.022C29.7129 13.0803 29.8142 13.1114 29.9179 13.1114C30.0216 13.1114 30.123 13.0803 30.2092 13.022C30.2955 12.9637 30.3627 12.8808 30.4024 12.7838C30.4421 12.6868 30.4525 12.5801 30.4323 12.4771C30.4121 12.3741 30.3621 12.2795 30.2888 12.2053C30.2402 12.1559 30.1823 12.1168 30.1187 12.09C30.0551 12.0633 29.9868 12.0496 29.9179 12.0496C29.849 12.0496 29.7808 12.0633 29.7172 12.09C29.6535 12.1168 29.5957 12.1559 29.5471 12.2053Z" fill="#5DB93D"/>
<path d="M26.9855 14.7971C26.9122 14.8713 26.8623 14.9659 26.8421 15.0689C26.8219 15.1719 26.8323 15.2786 26.872 15.3756C26.9117 15.4726 26.9789 15.5555 27.0651 15.6138C27.1513 15.6721 27.2527 15.7032 27.3564 15.7032C27.4601 15.7032 27.5615 15.6721 27.6477 15.6138C27.734 15.5555 27.8012 15.4726 27.8409 15.3756C27.8806 15.2786 27.891 15.1719 27.8707 15.0689C27.8505 14.9659 27.8006 14.8713 27.7273 14.7971C27.6786 14.7477 27.6208 14.7086 27.5572 14.6818C27.4935 14.6551 27.4253 14.6414 27.3564 14.6414C27.2875 14.6414 27.2193 14.6551 27.1557 14.6818C27.092 14.7086 27.0342 14.7477 26.9855 14.7971Z" fill="#5DB93D"/>
<path d="M32.6402 15.3367C32.7136 15.2625 32.7635 15.1679 32.7838 15.0649C32.804 14.9619 32.7937 14.8552 32.754 14.7582C32.7143 14.6612 32.6471 14.5782 32.5609 14.5199C32.4746 14.4616 32.3732 14.4304 32.2695 14.4304C32.1658 14.4304 32.0644 14.4616 31.9781 14.5199C31.8919 14.5782 31.8247 14.6612 31.785 14.7582C31.7453 14.8552 31.735 14.9619 31.7552 15.0649C31.7755 15.1679 31.8254 15.2625 31.8988 15.3367C31.9971 15.4362 32.1305 15.4921 32.2695 15.4921C32.4085 15.4921 32.5419 15.4362 32.6402 15.3367Z" fill="#5DB93D"/>
<path d="M32.7447 12.8504C32.8181 12.7762 32.868 12.6816 32.8883 12.5786C32.9085 12.4756 32.8982 12.3689 32.8585 12.2719C32.8188 12.1748 32.7516 12.0919 32.6654 12.0336C32.5791 11.9752 32.4777 11.9441 32.374 11.9441C32.2703 11.9441 32.1689 11.9752 32.0826 12.0336C31.9964 12.0919 31.9292 12.1748 31.8895 12.2719C31.8498 12.3689 31.8395 12.4756 31.8597 12.5786C31.88 12.6816 31.9299 12.7762 32.0033 12.8504C32.0519 12.8997 32.1097 12.9388 32.1733 12.9655C32.237 12.9922 32.3051 13.006 32.374 13.006C32.4429 13.006 32.511 12.9922 32.5746 12.9655C32.6383 12.9388 32.696 12.8997 32.7447 12.8504Z" fill="#5DB93D"/>
<path d="M29.8134 15.5976C30.1031 15.5976 30.3378 15.3599 30.3378 15.0667C30.3378 14.7736 30.1031 14.5359 29.8134 14.5359C29.5238 14.5359 29.2891 14.7736 29.2891 15.0667C29.2891 15.3599 29.5238 15.5976 29.8134 15.5976Z" fill="#5DB93D"/>
<path d="M29.3387 17.1796C29.2654 17.2538 29.2154 17.3484 29.1952 17.4514C29.1749 17.5544 29.1853 17.6611 29.225 17.7581C29.2646 17.8551 29.3318 17.9381 29.4181 17.9964C29.5043 18.0547 29.6057 18.0859 29.7094 18.0859C29.8132 18.0859 29.9146 18.0547 30.0008 17.9964C30.087 17.9381 30.1543 17.8551 30.1939 17.7581C30.2336 17.6611 30.244 17.5544 30.2237 17.4514C30.2035 17.3484 30.1535 17.2538 30.0802 17.1796C29.9818 17.0801 29.8485 17.0242 29.7094 17.0242C29.5704 17.0242 29.4371 17.0801 29.3387 17.1796Z" fill="#5DB93D"/>
</svg>
