<svg width="45" height="46" viewBox="0 0 45 46" fill="none" xmlns="http://www.w3.org/2000/svg">
<path d="M23.0746 17.1669C22.8865 16.9764 22.6631 16.8253 22.4172 16.7222C22.1714 16.6191 21.9079 16.566 21.6418 16.566C21.3757 16.566 21.1122 16.6191 20.8663 16.7222C20.6205 16.8253 20.3971 16.9764 20.2089 17.1669L16.8872 20.5296C16.6988 20.72 16.5494 20.9461 16.4474 21.195C16.3455 21.444 16.293 21.7108 16.293 21.9803C16.293 22.2498 16.3455 22.5166 16.4474 22.7656C16.5494 23.0145 16.6988 23.2406 16.8872 23.431L21.8963 28.5013C22.0845 28.6918 22.3079 28.843 22.5538 28.9462C22.7996 29.0493 23.0632 29.1024 23.3294 29.1024C23.5955 29.1024 23.8591 29.0493 24.105 28.9462C24.3508 28.843 24.5742 28.6918 24.7624 28.5013L28.0841 25.1386C28.2725 24.9482 28.422 24.7221 28.524 24.4732C28.626 24.2243 28.6785 23.9575 28.6785 23.688C28.6785 23.4185 28.626 23.1517 28.524 22.9028C28.422 22.6539 28.2725 22.4278 28.0841 22.2375L23.0746 17.1669ZM27.2242 24.2684L23.9022 27.6311C23.75 27.7845 23.544 27.8706 23.3292 27.8706C23.1144 27.8706 22.9084 27.7845 22.7562 27.6311L17.7474 22.5609C17.5959 22.4068 17.5109 22.1982 17.5109 21.9808C17.5109 21.7634 17.5959 21.5548 17.7474 21.4008L21.0688 18.0381C21.221 17.8847 21.427 17.7986 21.6418 17.7986C21.8565 17.7986 22.0626 17.8847 22.2148 18.0381L27.2249 23.1072C27.3767 23.2615 27.4619 23.4703 27.4619 23.688C27.4619 23.9057 27.3767 24.1146 27.2249 24.2688L27.2242 24.2684Z" fill="#5DB93D"/>
<path d="M32.6228 22.8274L36.7668 18.6291C37.3957 17.9937 37.8945 17.2391 38.2349 16.4084C38.5753 15.5776 38.7505 14.6871 38.7505 13.7877C38.7505 12.8883 38.5753 11.9978 38.2349 11.167C37.8945 10.3363 37.3957 9.58165 36.7668 8.94633L36.1886 8.35781C34.9178 7.07677 33.1974 6.35755 31.4041 6.35755C29.6107 6.35755 27.8903 7.07677 26.6195 8.35781L22.4772 12.5562L18.33 8.35781C17.0602 7.07641 15.3403 6.35687 13.5473 6.35687C11.7544 6.35687 10.0345 7.07641 8.76466 8.35781L8.18471 8.94527C6.91826 10.2304 6.20703 11.9717 6.20703 13.787C6.20703 15.6023 6.91826 17.3435 8.18471 18.6287L12.3315 22.8271L8.18471 27.0226C6.91826 28.3078 6.20703 30.049 6.20703 31.8643C6.20703 33.6797 6.91826 35.4209 8.18471 36.706L8.76501 37.2935C10.0348 38.5749 11.7546 39.2944 13.5475 39.2944C15.3404 39.2944 17.0602 38.5749 18.33 37.2935L22.4775 33.098L26.6216 37.2935C27.8925 38.5748 29.613 39.2942 31.4067 39.2942C33.2003 39.2942 34.9208 38.5748 36.1918 37.2935L36.7672 36.7075C37.3962 36.0722 37.8953 35.3175 38.2358 34.4867C38.5764 33.6559 38.7516 32.7652 38.7516 31.8657C38.7516 30.9662 38.5764 30.0756 38.2358 29.2448C37.8953 28.4139 37.3962 27.6593 36.7672 27.024L32.6228 22.8274ZM27.4804 9.22828C28.5229 8.17805 29.9338 7.58846 31.4046 7.58846C32.8753 7.58846 34.2862 8.17805 35.3288 9.22828L35.908 9.81609C36.424 10.3372 36.8333 10.9563 37.1126 11.6378C37.3919 12.3193 37.5357 13.0499 37.5357 13.7877C37.5357 14.5255 37.3919 15.2561 37.1126 15.9376C36.8333 16.6191 36.424 17.2382 35.908 17.7593L31.7637 21.9573L23.3367 13.4266L27.4804 9.22828ZM21.6163 32.2278L17.4709 36.4234C16.429 37.4749 15.0178 38.0654 13.5466 38.0654C12.0755 38.0654 10.6643 37.4749 9.62243 36.4234L9.04248 35.8363C8.00389 34.7819 7.42067 33.3536 7.42067 31.8645C7.42067 30.3755 8.00389 28.9472 9.04248 27.8927L13.1914 23.6972L21.6163 32.2278ZM35.9066 35.8359L35.3319 36.4216C34.2892 37.4725 32.8778 38.0625 31.4065 38.0625C29.9352 38.0625 28.5237 37.4725 27.4811 36.4216C21.3343 30.199 15.1549 23.9433 9.04422 17.7572C8.0051 16.7027 7.42154 15.274 7.42154 13.7845C7.42154 12.295 8.0051 10.8664 9.04422 9.81187L9.62382 9.22512C10.6655 8.17317 12.0767 7.5824 13.548 7.5824C15.0193 7.5824 16.4306 8.17317 17.4722 9.22512L35.9094 27.8899C36.4257 28.4112 36.8353 29.0305 37.1147 29.7123C37.3942 30.3941 37.5379 31.125 37.5378 31.8632C37.5377 32.6014 37.3936 33.3323 37.114 34.014C36.8343 34.6957 36.4245 35.3148 35.908 35.8359H35.9066Z" fill="#5DB93D"/>
<path d="M32.3037 30.9225C32.5933 30.9225 32.8281 30.6848 32.8281 30.3916C32.8281 30.0985 32.5933 29.8608 32.3037 29.8608C32.0141 29.8608 31.7793 30.0985 31.7793 30.3916C31.7793 30.6848 32.0141 30.9225 32.3037 30.9225Z" fill="#5DB93D"/>
<path d="M30.1129 28.1733C30.1862 28.0991 30.2362 28.0045 30.2565 27.9015C30.2767 27.7985 30.2663 27.6917 30.2266 27.5947C30.187 27.4977 30.1198 27.4148 30.0335 27.3564C29.9473 27.2981 29.8459 27.267 29.7422 27.267C29.6384 27.267 29.537 27.2981 29.4508 27.3564C29.3646 27.4148 29.2974 27.4977 29.2577 27.5947C29.218 27.6917 29.2076 27.7985 29.2279 27.9015C29.2481 28.0045 29.2981 28.0991 29.3714 28.1733C29.4201 28.2226 29.4779 28.2617 29.5415 28.2884C29.6051 28.3151 29.6733 28.3288 29.7422 28.3288C29.811 28.3288 29.8792 28.3151 29.9428 28.2884C30.0064 28.2617 30.0642 28.2226 30.1129 28.1733Z" fill="#5DB93D"/>
<path d="M29.5793 32.3972C29.506 32.4715 29.4561 32.5661 29.4358 32.669C29.4156 32.772 29.426 32.8787 29.4657 32.9757C29.5054 33.0727 29.5726 33.1556 29.6589 33.2139C29.7451 33.2722 29.8465 33.3034 29.9502 33.3034C30.0539 33.3034 30.1552 33.2722 30.2415 33.2139C30.3277 33.1556 30.3949 33.0727 30.4346 32.9757C30.4743 32.8787 30.4847 32.772 30.4645 32.669C30.4443 32.5661 30.3944 32.4715 30.3211 32.3972C30.2724 32.3479 30.2145 32.3088 30.1509 32.2821C30.0873 32.2554 30.0191 32.2416 29.9502 32.2416C29.8813 32.2416 29.8131 32.2554 29.7494 32.2821C29.6858 32.3088 29.628 32.3479 29.5793 32.3972Z" fill="#5DB93D"/>
<path d="M32.0365 32.5025C31.9631 32.5767 31.9132 32.6713 31.8929 32.7743C31.8727 32.8773 31.883 32.984 31.9227 33.0811C31.9624 33.1781 32.0296 33.261 32.1158 33.3193C32.2021 33.3777 32.3035 33.4088 32.4072 33.4088C32.5109 33.4088 32.6123 33.3777 32.6986 33.3193C32.7848 33.261 32.852 33.1781 32.8917 33.0811C32.9314 32.984 32.9417 32.8773 32.9215 32.7743C32.9012 32.6713 32.8513 32.5767 32.7779 32.5025C32.6796 32.403 32.5462 32.3471 32.4072 32.3471C32.2682 32.3471 32.1348 32.403 32.0365 32.5025Z" fill="#5DB93D"/>
<path d="M30.2174 30.6616C30.2907 30.5874 30.3407 30.4928 30.3609 30.3898C30.3812 30.2868 30.3708 30.1801 30.3311 30.0831C30.2915 29.9861 30.2242 29.9031 30.138 29.8448C30.0518 29.7865 29.9504 29.7553 29.8467 29.7553C29.7429 29.7553 29.6415 29.7865 29.5553 29.8448C29.4691 29.9031 29.4018 29.9861 29.3622 30.0831C29.3225 30.1801 29.3121 30.2868 29.3324 30.3898C29.3526 30.4928 29.4026 30.5874 29.4759 30.6616C29.5743 30.7611 29.7076 30.817 29.8467 30.817C29.9857 30.817 30.119 30.7611 30.2174 30.6616Z" fill="#5DB93D"/>
<path d="M27.0187 29.8051C26.9454 29.8794 26.8955 29.974 26.8753 30.0769C26.8551 30.1799 26.8655 30.2866 26.9052 30.3836C26.9449 30.4806 27.0121 30.5635 27.0983 30.6218C27.1845 30.6801 27.2859 30.7113 27.3896 30.7113C27.4933 30.7113 27.5947 30.6801 27.6809 30.6218C27.7672 30.5635 27.8344 30.4806 27.8741 30.3836C27.9138 30.2866 27.9242 30.1799 27.9039 30.0769C27.8837 29.974 27.8338 29.8794 27.7605 29.8051C27.6621 29.7057 27.5287 29.6498 27.3896 29.6498C27.2506 29.6498 27.1172 29.7057 27.0187 29.8051Z" fill="#5DB93D"/>
<path d="M12.2941 14.8989C12.2208 14.9731 12.1709 15.0677 12.1507 15.1707C12.1305 15.2737 12.1409 15.3804 12.1806 15.4774C12.2203 15.5744 12.2875 15.6573 12.3737 15.7156C12.4599 15.7739 12.5613 15.805 12.665 15.805C12.7687 15.805 12.8701 15.7739 12.9563 15.7156C13.0425 15.6573 13.1098 15.5744 13.1495 15.4774C13.1892 15.3804 13.1996 15.2737 13.1793 15.1707C13.1591 15.0677 13.1092 14.9731 13.0359 14.8989C12.9375 14.7994 12.8041 14.7436 12.665 14.7436C12.5259 14.7436 12.3926 14.7994 12.2941 14.8989Z" fill="#5DB93D"/>
<path d="M15.2256 18.3971C15.5152 18.3971 15.7499 18.1594 15.7499 17.8662C15.7499 17.5731 15.5152 17.3354 15.2256 17.3354C14.9359 17.3354 14.7012 17.5731 14.7012 17.8662C14.7012 18.1594 14.9359 18.3971 15.2256 18.3971Z" fill="#5DB93D"/>
<path d="M15.3884 13.2667C15.4617 13.1924 15.5117 13.0978 15.5319 12.9949C15.5521 12.8919 15.5417 12.7852 15.502 12.6882C15.4623 12.5912 15.3951 12.5083 15.3089 12.45C15.2226 12.3917 15.1213 12.3605 15.0175 12.3605C14.9138 12.3605 14.8125 12.3917 14.7262 12.45C14.64 12.5083 14.5728 12.5912 14.5331 12.6882C14.4934 12.7852 14.483 12.8919 14.5032 12.9949C14.5234 13.0978 14.5734 13.1924 14.6467 13.2667C14.7451 13.3662 14.8785 13.4221 15.0175 13.4221C15.1566 13.4221 15.29 13.3662 15.3884 13.2667Z" fill="#5DB93D"/>
<path d="M12.9314 13.1612C13.0047 13.087 13.0546 12.9924 13.0748 12.8894C13.0951 12.7864 13.0847 12.6797 13.045 12.5827C13.0053 12.4857 12.9381 12.4028 12.8518 12.3445C12.7656 12.2862 12.6642 12.2551 12.5605 12.2551C12.4568 12.2551 12.3554 12.2862 12.2692 12.3445C12.183 12.4028 12.1158 12.4857 12.0761 12.5827C12.0364 12.6797 12.026 12.7864 12.0462 12.8894C12.0664 12.9924 12.1163 13.087 12.1896 13.1612C12.2383 13.2106 12.2961 13.2497 12.3598 13.2765C12.4234 13.3032 12.4916 13.3169 12.5605 13.3169C12.6294 13.3169 12.6976 13.3032 12.7613 13.2765C12.8249 13.2497 12.8827 13.2106 12.9314 13.1612Z" fill="#5DB93D"/>
<path d="M15.4929 15.7552C15.5662 15.6809 15.6162 15.5864 15.6364 15.4834C15.6566 15.3804 15.6462 15.2737 15.6065 15.1767C15.5668 15.0797 15.4996 14.9968 15.4133 14.9385C15.3271 14.8802 15.2257 14.8491 15.122 14.8491C15.0183 14.8491 14.917 14.8802 14.8307 14.9385C14.7445 14.9968 14.6773 15.0797 14.6376 15.1767C14.5979 15.2737 14.5875 15.3804 14.6077 15.4834C14.6279 15.5864 14.6778 15.6809 14.7512 15.7552C14.8495 15.8547 14.9829 15.9106 15.122 15.9106C15.2611 15.9106 15.3945 15.8547 15.4929 15.7552Z" fill="#5DB93D"/>
<path d="M17.5791 16.0162C17.8687 16.0162 18.1035 15.7786 18.1035 15.4854C18.1035 15.1922 17.8687 14.9545 17.5791 14.9545C17.2895 14.9545 17.0547 15.1922 17.0547 15.4854C17.0547 15.7786 17.2895 16.0162 17.5791 16.0162Z" fill="#5DB93D"/>
<path d="M15.3736 33.148C15.447 33.0737 15.4969 32.9791 15.5172 32.8761C15.5374 32.7732 15.5271 32.6664 15.4874 32.5694C15.4477 32.4724 15.3805 32.3895 15.2943 32.3311C15.208 32.2728 15.1066 32.2416 15.0029 32.2416C14.8992 32.2416 14.7978 32.2728 14.7115 32.3311C14.6253 32.3895 14.5581 32.4724 14.5184 32.5694C14.4787 32.6664 14.4684 32.7732 14.4886 32.8761C14.5089 32.9791 14.5588 33.0737 14.6322 33.148C14.7305 33.2475 14.8639 33.3034 15.0029 33.3034C15.1419 33.3034 15.2753 33.2475 15.3736 33.148Z" fill="#5DB93D"/>
<path d="M17.9351 30.5562C18.0085 30.4819 18.0585 30.3873 18.0787 30.2843C18.099 30.1814 18.0886 30.0746 18.0489 29.9776C18.0092 29.8806 17.942 29.7977 17.8558 29.7393C17.7695 29.681 17.6681 29.6498 17.5644 29.6498C17.4607 29.6498 17.3593 29.681 17.2731 29.7393C17.1868 29.7977 17.1196 29.8806 17.0799 29.9776C17.0403 30.0746 17.0299 30.1814 17.0501 30.2843C17.0704 30.3873 17.1203 30.4819 17.1937 30.5562C17.292 30.6557 17.4254 30.7116 17.5644 30.7116C17.7035 30.7116 17.8368 30.6557 17.9351 30.5562Z" fill="#5DB93D"/>
<path d="M13.0222 30.7669C13.0955 30.6927 13.1455 30.5981 13.1657 30.4951C13.1859 30.3921 13.1755 30.2854 13.1358 30.1884C13.0961 30.0914 13.0289 30.0085 12.9426 29.9502C12.8564 29.8919 12.755 29.8608 12.6513 29.8608C12.5476 29.8608 12.4463 29.8919 12.36 29.9502C12.2738 30.0085 12.2066 30.0914 12.1669 30.1884C12.1272 30.2854 12.1168 30.3921 12.137 30.4951C12.1572 30.5981 12.2071 30.6927 12.2804 30.7669C12.3291 30.8162 12.387 30.8554 12.4506 30.8821C12.5142 30.9088 12.5825 30.9225 12.6513 30.9225C12.7202 30.9225 12.7884 30.9088 12.8521 30.8821C12.9157 30.8554 12.9735 30.8162 13.0222 30.7669Z" fill="#5DB93D"/>
<path d="M12.5459 33.4088C12.8355 33.4088 13.0703 33.1712 13.0703 32.878C13.0703 32.5848 12.8355 32.3471 12.5459 32.3471C12.2563 32.3471 12.0215 32.5848 12.0215 32.878C12.0215 33.1712 12.2563 33.4088 12.5459 33.4088Z" fill="#5DB93D"/>
<path d="M15.4793 30.6614C15.5526 30.5872 15.6025 30.4926 15.6227 30.3896C15.6429 30.2867 15.6325 30.1799 15.5928 30.083C15.5531 29.986 15.4859 29.9031 15.3997 29.8448C15.3134 29.7864 15.2121 29.7553 15.1084 29.7553C15.0047 29.7553 14.9033 29.7864 14.8171 29.8448C14.7308 29.9031 14.6636 29.986 14.6239 30.083C14.5842 30.1799 14.5738 30.2867 14.594 30.3896C14.6143 30.4926 14.6642 30.5872 14.7375 30.6614C14.8359 30.7609 14.9693 30.8167 15.1084 30.8167C15.2474 30.8167 15.3808 30.7609 15.4793 30.6614Z" fill="#5DB93D"/>
<path d="M15.5828 28.1733C15.6561 28.099 15.706 28.0044 15.7262 27.9015C15.7464 27.7985 15.736 27.6918 15.6963 27.5948C15.6566 27.4978 15.5894 27.4149 15.5032 27.3566C15.417 27.2983 15.3156 27.2672 15.2119 27.2672C15.1082 27.2672 15.0068 27.2983 14.9206 27.3566C14.8344 27.4149 14.7671 27.4978 14.7274 27.5948C14.6877 27.6918 14.6773 27.7985 14.6976 27.9015C14.7178 28.0044 14.7677 28.099 14.841 28.1733C14.8897 28.2227 14.9475 28.2618 15.0111 28.2885C15.0748 28.3153 15.143 28.329 15.2119 28.329C15.2808 28.329 15.349 28.3153 15.4126 28.2885C15.4763 28.2618 15.5341 28.2227 15.5828 28.1733Z" fill="#5DB93D"/>
<path d="M29.5656 12.5165C29.4923 12.5908 29.4424 12.6853 29.4222 12.7883C29.402 12.8913 29.4124 12.998 29.4521 13.095C29.4917 13.192 29.559 13.2749 29.6452 13.3332C29.7314 13.3915 29.8328 13.4226 29.9365 13.4226C30.0402 13.4226 30.1416 13.3915 30.2278 13.3332C30.314 13.2749 30.3812 13.192 30.4209 13.095C30.4606 12.998 30.471 12.8913 30.4508 12.7883C30.4306 12.6853 30.3807 12.5908 30.3074 12.5165C30.2587 12.4671 30.2009 12.428 30.1373 12.4013C30.0736 12.3745 30.0054 12.3608 29.9365 12.3608C29.8676 12.3608 29.7994 12.3745 29.7357 12.4013C29.6721 12.428 29.6143 12.4671 29.5656 12.5165Z" fill="#5DB93D"/>
<path d="M27.0051 15.1083C26.9317 15.1826 26.8818 15.2771 26.8616 15.3801C26.8414 15.4831 26.8518 15.5898 26.8915 15.6868C26.9312 15.7838 26.9984 15.8667 27.0846 15.925C27.1709 15.9833 27.2722 16.0144 27.3759 16.0144C27.4797 16.0144 27.581 15.9833 27.6673 15.925C27.7535 15.8667 27.8207 15.7838 27.8604 15.6868C27.9001 15.5898 27.9105 15.4831 27.8903 15.3801C27.8701 15.2771 27.8201 15.1826 27.7468 15.1083C27.6982 15.0589 27.6404 15.0198 27.5767 14.9931C27.5131 14.9663 27.4448 14.9526 27.3759 14.9526C27.3071 14.9526 27.2388 14.9663 27.1752 14.9931C27.1115 15.0198 27.0537 15.0589 27.0051 15.1083Z" fill="#5DB93D"/>
<path d="M32.6588 15.648C32.7321 15.5737 32.7821 15.4791 32.8024 15.3761C32.8226 15.2732 32.8122 15.1664 32.7725 15.0694C32.7329 14.9724 32.6657 14.8895 32.5794 14.8311C32.4932 14.7728 32.3918 14.7416 32.2881 14.7416C32.1843 14.7416 32.0829 14.7728 31.9967 14.8311C31.9105 14.8895 31.8432 14.9724 31.8036 15.0694C31.7639 15.1664 31.7535 15.2732 31.7738 15.3761C31.794 15.4791 31.844 15.5737 31.9173 15.648C32.0157 15.7475 32.149 15.8034 32.2881 15.8034C32.4271 15.8034 32.5604 15.7475 32.6588 15.648Z" fill="#5DB93D"/>
<path d="M32.7642 13.1616C32.8376 13.0874 32.8876 12.9928 32.9078 12.8898C32.9281 12.7868 32.9177 12.6801 32.878 12.5831C32.8383 12.4861 32.7711 12.4031 32.6849 12.3448C32.5986 12.2864 32.4973 12.2553 32.3935 12.2553C32.2898 12.2553 32.1884 12.2864 32.1022 12.3448C32.0159 12.4031 31.9487 12.4861 31.909 12.5831C31.8694 12.6801 31.859 12.7868 31.8792 12.8898C31.8995 12.9928 31.9495 13.0874 32.0228 13.1616C32.0715 13.2109 32.1293 13.2501 32.1929 13.2767C32.2565 13.3034 32.3247 13.3172 32.3935 13.3172C32.4624 13.3172 32.5306 13.3034 32.5942 13.2767C32.6578 13.2501 32.7156 13.2109 32.7642 13.1616Z" fill="#5DB93D"/>
<path d="M29.833 15.9088C30.1226 15.9088 30.3574 15.6712 30.3574 15.378C30.3574 15.0848 30.1226 14.8471 29.833 14.8471C29.5434 14.8471 29.3086 15.0848 29.3086 15.378C29.3086 15.6712 29.5434 15.9088 29.833 15.9088Z" fill="#5DB93D"/>
<path d="M29.3578 17.4908C29.2844 17.565 29.2344 17.6596 29.2142 17.7626C29.1939 17.8656 29.2043 17.9723 29.244 18.0693C29.2837 18.1664 29.3509 18.2493 29.4371 18.3076C29.5234 18.366 29.6248 18.3971 29.7285 18.3971C29.8322 18.3971 29.9336 18.366 30.0198 18.3076C30.1061 18.2493 30.1733 18.1664 30.213 18.0693C30.2527 17.9723 30.263 17.8656 30.2428 17.7626C30.2225 17.6596 30.1726 17.565 30.0992 17.4908C30.0009 17.3913 29.8675 17.3354 29.7285 17.3354C29.5894 17.3354 29.4561 17.3913 29.3578 17.4908Z" fill="#5DB93D"/>
</svg>
