<svg width="36" height="36" viewBox="0 0 36 36" fill="none" xmlns="http://www.w3.org/2000/svg">
<path d="M26.5766 4.5819C25.0205 3.30775 23.2009 2.39483 21.2493 1.90899C19.2976 1.42314 17.2625 1.3765 15.2906 1.7724C12.7552 2.29221 10.4226 3.52988 8.57078 5.33797C6.71895 7.14607 5.42588 9.44837 4.84562 11.9706C4.26536 14.4929 4.42236 17.1288 5.29793 19.5643C6.17349 21.9999 7.73071 24.1324 9.78408 25.7079C12.1285 27.4238 14.1246 29.5705 15.6656 32.0334L16.7156 33.7794C16.8489 34.0012 17.0374 34.1847 17.2627 34.3121C17.4879 34.4395 17.7423 34.5064 18.0011 34.5064C18.2599 34.5064 18.5143 34.4395 18.7395 34.3121C18.9648 34.1847 19.1532 34.0012 19.2866 33.7794L20.2931 32.1024C21.635 29.7435 23.4647 27.6979 25.6601 26.1024C27.3815 24.918 28.8041 23.3499 29.8157 21.5216C30.8273 19.6933 31.4003 17.655 31.4893 15.5674C31.5783 13.4798 31.181 11.4001 30.3287 9.49235C29.4764 7.5846 28.1924 5.901 26.5781 4.5744L26.5766 4.5819ZM17.9996 21.0084C16.8129 21.0084 15.6529 20.6565 14.6662 19.9972C13.6795 19.3379 12.9104 18.4009 12.4563 17.3045C12.0022 16.2081 11.8834 15.0017 12.1149 13.8379C12.3464 12.674 12.9178 11.6049 13.7569 10.7658C14.5961 9.92665 15.6652 9.3552 16.829 9.12369C17.9929 8.89218 19.1993 9.011 20.2957 9.46513C21.392 9.91925 22.3291 10.6883 22.9884 11.675C23.6477 12.6617 23.9996 13.8217 23.9996 15.0084C23.9996 16.5997 23.3674 18.1258 22.2422 19.251C21.117 20.3763 19.5909 21.0084 17.9996 21.0084Z" fill="#5DB93D"/>
</svg>
