<svg width="46" height="46" viewBox="0 0 46 46" fill="none" xmlns="http://www.w3.org/2000/svg">
<path d="M12.4531 15.6611C14.2109 15.6611 15.6523 14.2197 15.6523 12.4619C15.6523 10.7041 14.2109 9.2627 12.4531 9.2627C10.6953 9.2627 9.25391 10.7041 9.25391 12.4619C9.25391 14.2197 10.6953 15.6611 12.4531 15.6611ZM12.4531 14.4307C11.5742 14.4307 10.8359 13.8682 10.5547 13.0596H14.3164C14.0703 13.8682 13.332 14.4307 12.4531 14.4307ZM12.4531 10.4932C13.332 10.4932 14.0703 11.0557 14.3516 11.8643H10.5898C10.8359 11.0557 11.5742 10.4932 12.4531 10.4932Z" fill="#5DB93D"/>
<path d="M26.3398 6.59082H9.11328C7.70703 6.59082 6.58203 7.71582 6.58203 9.12207V36.9307C6.58203 38.3369 7.70703 39.4619 9.11328 39.4619H26.3398C27.7461 39.4619 28.8711 38.3369 28.8711 36.9307V9.12207C28.8711 7.71582 27.7461 6.59082 26.3398 6.59082ZM7.8125 18.333H17.1289V27.6494H7.8125V18.333ZM18.3242 18.333H27.6406V27.6494H18.3242V18.333ZM27.6406 9.12207V17.1377H18.3242V7.82129H26.3398C27.0781 7.82129 27.6406 8.38379 27.6406 9.12207ZM9.11328 7.82129H17.1289V17.1377H7.8125V9.12207C7.8125 8.38379 8.375 7.82129 9.11328 7.82129ZM7.8125 36.8955V28.8799H17.1289V38.1963H9.11328C8.375 38.2314 7.8125 37.6338 7.8125 36.8955ZM26.3398 38.2314H18.3242V28.8799H27.6406V36.8955C27.6406 37.6338 27.0781 38.2314 26.3398 38.2314Z" fill="#5DB93D"/>
<path d="M23 15.6611C24.7578 15.6611 26.1992 14.2197 26.1992 12.4619C26.1992 10.7041 24.7578 9.2627 23 9.2627C21.2422 9.2627 19.7656 10.7041 19.7656 12.4619C19.7656 14.2197 21.207 15.6611 23 15.6611ZM23 14.4307C22.1211 14.4307 21.3828 13.8682 21.1016 13.0596H24.8633C24.6172 13.8682 23.8789 14.4307 23 14.4307ZM23 10.4932C23.8789 10.4932 24.6172 11.0557 24.8984 11.8643H21.1016C21.3828 11.0557 22.1211 10.4932 23 10.4932Z" fill="#5DB93D"/>
<path d="M12.4531 19.8096C10.6953 19.8096 9.25391 21.251 9.25391 23.0088C9.25391 24.7666 10.6953 26.208 12.4531 26.208C14.2109 26.208 15.6523 24.7666 15.6523 23.0088C15.6523 21.251 14.2461 19.8096 12.4531 19.8096ZM10.4844 23.0088C10.4844 22.1299 11.0469 21.3916 11.8555 21.1104V24.8721C11.0469 24.626 10.4844 23.8877 10.4844 23.0088ZM13.0859 24.8721V21.1104C13.8945 21.3564 14.457 22.1299 14.457 23.0088C14.457 23.8877 13.8594 24.626 13.0859 24.8721Z" fill="#5DB93D"/>
<path d="M25.25 20.7236C23.9844 19.458 21.9453 19.458 20.7148 20.7236C19.4492 21.9893 19.4492 24.0283 20.7148 25.2588C21.3477 25.8916 22.1562 26.208 23 26.208C23.8438 26.208 24.6523 25.8916 25.2852 25.2588C26.5156 24.0283 26.5156 21.9893 25.25 20.7236ZM21.5937 21.6025C21.9805 21.2158 22.4727 21.04 23 21.04C23.3164 21.04 23.5977 21.1104 23.8789 21.251L21.2422 23.8877C21.1016 23.6064 21.0313 23.3252 21.0313 23.0088C20.9961 22.4814 21.207 21.9893 21.5937 21.6025ZM24.4062 24.415C23.7734 25.0479 22.8594 25.1533 22.1211 24.7666L24.7578 22.1299C24.8984 22.4111 24.9687 22.6924 24.9687 23.0088C24.9687 23.5361 24.7578 24.0283 24.4062 24.415Z" fill="#5DB93D"/>
<path d="M14.7383 31.2705C13.4727 30.0049 11.4336 30.0049 10.2031 31.2705C8.9375 32.5361 8.9375 34.5752 10.2031 35.8057C10.8359 36.4385 11.6445 36.7549 12.4883 36.7549C13.2969 36.7549 14.1406 36.4385 14.7734 35.8057C15.9688 34.5752 15.9688 32.5361 14.7383 31.2705ZM11.0469 32.1494C11.4336 31.7627 11.9258 31.5518 12.4531 31.5518C12.7695 31.5518 13.0859 31.6221 13.332 31.7627L10.6953 34.4346C10.3086 33.6963 10.4492 32.7822 11.0469 32.1494ZM13.8594 34.9619C13.4727 35.3486 12.9805 35.5596 12.4531 35.5596C12.1367 35.5596 11.8203 35.4893 11.5742 35.3486L14.2109 32.7119C14.5977 33.415 14.4922 34.3291 13.8594 34.9619Z" fill="#5DB93D"/>
<path d="M20.7148 31.2705C19.4492 32.5361 19.4492 34.5752 20.7148 35.8057C21.3477 36.4385 22.1562 36.7549 23 36.7549C23.8437 36.7549 24.6523 36.4385 25.2852 35.8057C26.5508 34.54 26.5508 32.501 25.2852 31.2705C24.0195 30.04 21.9805 30.04 20.7148 31.2705ZM23 31.5869C23.4922 31.5869 24.0195 31.7627 24.4062 32.1494C25.0391 32.7822 25.1445 33.6963 24.7578 34.4346L22.0859 31.7979C22.3672 31.6572 22.6836 31.5869 23 31.5869ZM21.5937 34.9619C20.9609 34.3291 20.8555 33.415 21.2422 32.6768L23.8789 35.3135C23.1406 35.7002 22.2266 35.5596 21.5937 34.9619Z" fill="#5DB93D"/>
<path d="M32.1758 33.8721C30.9102 35.1377 30.9102 37.1768 32.1758 38.4072C33.4414 39.6729 35.4805 39.6729 36.7109 38.4072C37.9766 37.1416 37.9766 35.1025 36.7109 33.8721C35.4453 32.6416 33.4414 32.6416 32.1758 33.8721ZM35.8672 34.751C36.5 35.3838 36.6055 36.2979 36.2188 37.0361L33.582 34.3994C34.3906 33.9775 35.3047 34.1885 35.8672 34.751ZM33.0547 37.5635C32.668 37.1768 32.457 36.6846 32.457 36.1572C32.457 35.8408 32.5273 35.5244 32.668 35.2783L35.3047 37.915C34.5313 38.3369 33.6523 38.126 33.0547 37.5635Z" fill="#5DB93D"/>
<path d="M37.9413 20.4424C39.453 19.4932 39.91 17.5244 38.9608 16.0127C38.0116 14.501 36.0428 14.0439 34.5311 14.9932C33.0194 15.9424 32.5624 17.9111 33.5116 19.4228C34.4257 20.9346 36.4296 21.3916 37.9413 20.4424ZM37.2733 19.4228C36.535 19.8799 35.5858 19.8096 34.953 19.2471L38.1522 17.2432C38.328 18.0518 38.0116 18.9307 37.2733 19.4228ZM35.1639 16.0478C35.9022 15.5908 36.8163 15.6611 37.4842 16.2236L34.285 18.2275C34.0741 17.3135 34.496 16.4697 35.1639 16.0478Z" fill="#5DB93D"/>
<path d="M39.2069 24.7666L39.1366 24.626C38.539 23.501 37.1327 23.044 36.0077 23.6416L33.8983 24.7315L31.789 25.8213C30.664 26.419 30.2069 27.8252 30.8046 28.9502L30.8749 29.0908C31.4726 30.2158 32.8788 30.6729 34.0038 30.0752L36.1132 28.9854L38.2226 27.8955C39.3476 27.2979 39.8046 25.8916 39.2069 24.7666ZM33.4413 28.9854C32.914 29.2666 32.246 29.0557 31.9647 28.5283L31.8944 28.3877C31.6132 27.8604 31.8241 27.1924 32.3515 26.9111L33.8983 26.1026L34.4257 27.1572L34.953 28.2119L33.4413 28.9854ZM37.6601 26.8057L36.1132 27.6143L35.5858 26.5596L35.0585 25.5049L36.6054 24.6963C37.1327 24.4151 37.8007 24.626 38.0819 25.1533L38.1522 25.294C38.3983 25.8565 38.1874 26.5244 37.6601 26.8057Z" fill="#5DB93D"/>
</svg>
