<svg width="80" height="81" viewBox="0 0 80 81" fill="none" xmlns="http://www.w3.org/2000/svg">
<path d="M66.7562 61.1008H61.1613C62.0206 58.9216 62.299 56.5565 61.9691 54.2374C61.6393 51.9182 60.7126 49.7246 59.2797 47.8714C57.8469 46.0182 55.9572 44.5691 53.7957 43.666C51.6343 42.763 49.2753 42.4371 46.95 42.7202V31.657C46.9458 30.0038 46.3149 28.4137 45.1845 27.2074C44.054 26.0011 42.5082 25.2684 40.8587 25.157V21.4483C41.6524 21.4105 42.4011 21.0691 42.9502 20.4948C43.4992 19.9205 43.8066 19.1572 43.8088 18.3627V14.3077C43.8078 13.4856 43.4808 12.6975 42.8995 12.1163C42.3182 11.535 41.5302 11.208 40.7081 11.207H17.0244C16.2023 11.208 15.4143 11.535 14.833 12.1163C14.2517 12.6975 13.9247 13.4856 13.9237 14.3077V18.3633C13.9261 19.1579 14.2337 19.9212 14.783 20.4954C15.3323 21.0696 16.0813 21.4108 16.875 21.4483V25.1539C15.2246 25.2647 13.6777 25.9976 12.5466 27.2046C11.4156 28.4117 10.7847 30.0029 10.7812 31.657V63.1133C10.7831 64.8449 11.4718 66.5051 12.6962 67.7296C13.9207 68.954 15.5809 69.6427 17.3125 69.6445H40.4187C41.5887 69.646 42.7372 69.3313 43.7431 68.7339C44.8527 69.207 46.0259 69.5138 47.225 69.6445H66.7562C67.4091 69.6437 68.035 69.384 68.4966 68.9224C68.9582 68.4607 69.2179 67.8349 69.2188 67.182V63.5633C69.2179 62.9104 68.9582 62.2846 68.4966 61.8229C68.035 61.3613 67.4091 61.1016 66.7562 61.1008ZM59.9194 56.0952C59.9281 57.8297 59.5358 59.5428 58.7731 61.1008H47.225C46.5722 61.1016 45.9463 61.3613 45.4847 61.8229C45.023 62.2846 44.7633 62.9104 44.7625 63.5633V66.7845C42.8117 66.0836 41.0906 64.8607 39.7867 63.2492C38.4829 61.6376 37.6463 59.6992 37.3681 57.645C37.0899 55.5908 37.3808 53.4996 38.209 51.5993C39.0372 49.699 40.3711 48.0624 42.0652 46.8679C43.7593 45.6733 45.7488 44.9665 47.8169 44.8246C49.885 44.6826 51.9523 45.1109 53.7938 46.0628C55.6353 47.0147 57.1802 48.4537 58.2603 50.223C59.3404 51.9923 59.9143 54.0241 59.9194 56.097V56.0952ZM12.9688 36.5133H44.7625V43.1845C41.6402 44.0999 38.9542 46.1133 37.1997 48.8535C35.4453 51.5936 34.7409 54.8758 35.2163 58.0945H12.9688V36.5133ZM19.0625 21.4639H38.6712V25.1295H19.0625V21.4639ZM16.1112 18.3633V14.3077C16.1116 14.0656 16.2079 13.8335 16.3791 13.6623C16.5502 13.4912 16.7823 13.3949 17.0244 13.3945H40.7081C40.9502 13.3949 41.1823 13.4912 41.3534 13.6623C41.5246 13.8335 41.6209 14.0656 41.6213 14.3077V18.3633C41.6209 18.6054 41.5246 18.8375 41.3535 19.0088C41.1823 19.1801 40.9503 19.2765 40.7081 19.277H17.0244C16.7822 19.2765 16.5502 19.1801 16.379 19.0088C16.2079 18.8375 16.1116 18.6054 16.1112 18.3633ZM17.3125 27.3195H40.4187C41.5695 27.32 42.6732 27.777 43.4875 28.5901C44.3018 29.4033 44.7603 30.5062 44.7625 31.657V34.3258H12.9688V31.657C12.9709 30.5062 13.4294 29.4033 14.2438 28.5901C15.0581 27.777 16.1617 27.32 17.3125 27.3195ZM17.3125 67.457C16.1609 67.4557 15.0568 66.9976 14.2425 66.1833C13.4281 65.369 12.9701 64.2649 12.9688 63.1133V60.282H35.7319C36.6768 63.1983 38.5857 65.7064 41.145 67.3939C40.9051 67.4349 40.6621 67.4558 40.4187 67.4564L17.3125 67.457ZM67.0312 67.182C67.0312 67.255 67.0023 67.3249 66.9507 67.3765C66.8991 67.4281 66.8292 67.457 66.7562 67.457H47.1812C47.0319 67.457 46.95 67.3908 46.95 67.2352V63.5633C46.95 63.4903 46.979 63.4204 47.0305 63.3688C47.0821 63.3173 47.1521 63.2883 47.225 63.2883H66.7562C66.8292 63.2883 66.8991 63.3173 66.9507 63.3688C67.0023 63.4204 67.0312 63.4903 67.0312 63.5633V67.182Z" fill="#5DB93D"/>
<path d="M25.4231 51.3702H16.9688C16.6787 51.3702 16.4005 51.4855 16.1954 51.6906C15.9902 51.8957 15.875 52.1739 15.875 52.464C15.875 52.7541 15.9902 53.0323 16.1954 53.2374C16.4005 53.4425 16.6787 53.5577 16.9688 53.5577H25.4231C25.7132 53.5577 25.9914 53.4425 26.1965 53.2374C26.4016 53.0323 26.5169 52.7541 26.5169 52.464C26.5169 52.1739 26.4016 51.8957 26.1965 51.6906C25.9914 51.4855 25.7132 51.3702 25.4231 51.3702Z" fill="#5DB93D"/>
<path d="M25.4231 46.2102H16.9688C16.6787 46.2102 16.4005 46.3254 16.1954 46.5306C15.9902 46.7357 15.875 47.0139 15.875 47.304C15.875 47.594 15.9902 47.8722 16.1954 48.0774C16.4005 48.2825 16.6787 48.3977 16.9688 48.3977H25.4231C25.7132 48.3977 25.9914 48.2825 26.1965 48.0774C26.4016 47.8722 26.5169 47.594 26.5169 47.304C26.5169 47.0139 26.4016 46.7357 26.1965 46.5306C25.9914 46.3254 25.7132 46.2102 25.4231 46.2102Z" fill="#5DB93D"/>
<path d="M25.4231 41.0508H16.9688C16.6787 41.0508 16.4005 41.166 16.1954 41.3711C15.9902 41.5763 15.875 41.8545 15.875 42.1445C15.875 42.4346 15.9902 42.7128 16.1954 42.9179C16.4005 43.123 16.6787 43.2383 16.9688 43.2383H25.4231C25.7132 43.2383 25.9914 43.123 26.1965 42.9179C26.4016 42.7128 26.5169 42.4346 26.5169 42.1445C26.5169 41.8545 26.4016 41.5763 26.1965 41.3711C25.9914 41.166 25.7132 41.0508 25.4231 41.0508Z" fill="#5DB93D"/>
</svg>
