<svg width="31" height="31" viewBox="0 0 31 31" fill="none" xmlns="http://www.w3.org/2000/svg">
<path d="M25.3494 18.4621C24.6704 17.4679 24.2588 16.3157 24.1541 15.1164L23.6947 9.88984C23.924 9.84428 24.1304 9.72071 24.2788 9.54013C24.4273 9.35956 24.5086 9.13313 24.5089 8.89937V8.29867C24.5086 8.03086 24.4021 7.7741 24.2127 7.58473C24.0233 7.39535 23.7666 7.28883 23.4987 7.28852H23.0042V5.7632C23.0038 5.50544 22.9013 5.25834 22.719 5.07609C22.5367 4.89384 22.2896 4.79133 22.0318 4.79102H20.6586C20.4008 4.79126 20.1536 4.89375 19.9713 5.07601C19.7889 5.25826 19.6863 5.5054 19.6859 5.7632V7.28875H19.1063C18.8385 7.28906 18.5817 7.39558 18.3923 7.58495C18.2029 7.77431 18.0963 8.03107 18.0959 8.29891V8.89984C18.0963 9.13384 18.1778 9.36047 18.3266 9.54109C18.4754 9.72171 18.6822 9.84513 18.9118 9.89031L18.4524 15.1169C18.4272 15.3842 18.3863 15.6498 18.3301 15.9123H13.6426L9.70203 10.4676C9.38564 10.0277 8.91213 9.72652 8.37966 9.62635C7.8472 9.52617 7.2966 9.63473 6.842 9.92952C6.3874 10.2243 6.06367 10.6827 5.93791 11.2097C5.81214 11.7367 5.89399 12.2919 6.16648 12.7602L7.98711 15.9116H5.88125C5.52643 15.912 5.18625 16.0531 4.93535 16.304C4.68446 16.5549 4.54334 16.8951 4.54297 17.2499V17.4327C4.54342 17.7051 4.62688 17.9708 4.78224 18.1944C4.9376 18.4181 5.15746 18.5891 5.4125 18.6845V19.4859C5.41317 20.471 5.68601 21.4369 6.20093 22.2768C6.71584 23.1167 7.4528 23.798 8.33047 24.2455V25.4554C8.33115 25.7869 8.46331 26.1046 8.69794 26.3388C8.93257 26.573 9.25052 26.7045 9.58203 26.7046H15.6922C15.9262 26.7039 16.1554 26.6374 16.3533 26.5126C16.5513 26.3878 16.7102 26.2098 16.8118 25.9989C17.0328 26.2226 17.2961 26.4002 17.5863 26.5213C17.8765 26.6425 18.1879 26.7048 18.5023 26.7046H24.1016C24.4145 26.7053 24.7244 26.6442 25.0137 26.5248C25.3029 26.4054 25.5657 26.23 25.7869 26.0087C26.0082 25.7875 26.1836 25.5247 26.303 25.2355C26.4224 24.9462 26.4835 24.6363 26.4828 24.3234V21.178C26.4828 19.7409 25.6433 18.9728 25.3494 18.4621ZM17.9473 23.5804C19.0132 22.6838 19.6889 21.408 19.8317 20.0226H25.3843C25.5655 20.3809 25.6607 20.7765 25.6625 21.178V23.5804H17.9473ZM20.5063 5.7632C20.5064 5.72288 20.5225 5.68425 20.551 5.65578C20.5796 5.62731 20.6183 5.61133 20.6586 5.61133H22.0318C22.0721 5.61133 22.1108 5.62732 22.1393 5.6558C22.1678 5.68427 22.1838 5.7229 22.1839 5.7632V7.28875H20.5063V5.7632ZM18.9162 8.29867C18.9163 8.2483 18.9364 8.20001 18.972 8.16442C19.0076 8.12882 19.056 8.10883 19.1063 8.10883H23.4985C23.5489 8.10883 23.5972 8.12883 23.6328 8.16443C23.6684 8.20003 23.6884 8.24832 23.6884 8.29867V8.89961C23.6884 8.94996 23.6684 8.99825 23.6328 9.03385C23.5972 9.06945 23.5489 9.08945 23.4985 9.08945C16.8139 9.08945 20.4467 9.08945 19.1063 9.08945C19.056 9.08945 19.0076 9.06946 18.972 9.03386C18.9364 8.99827 18.9163 8.94998 18.9162 8.89961V8.29867ZM19.2695 15.1881L19.7333 9.90977H22.8727L23.3366 15.1877C23.4537 16.5275 23.9138 17.8147 24.6725 18.9252L24.8621 19.2023H19.8594V18.6852C20.1145 18.5897 20.3344 18.4186 20.4898 18.1948C20.6452 17.971 20.7286 17.7052 20.7289 17.4327V17.2499C20.7288 16.8954 20.5881 16.5555 20.3376 16.3046C20.0872 16.0537 19.7475 15.9124 19.393 15.9116H19.1682C19.2118 15.674 19.2479 15.433 19.2695 15.1881ZM6.87687 12.3491C6.70942 12.0629 6.65874 11.7231 6.73536 11.4004C6.81197 11.0778 7.01 10.7971 7.28826 10.6166C7.56652 10.4362 7.90361 10.37 8.22945 10.4317C8.55529 10.4934 8.84481 10.6784 9.03781 10.948L12.631 15.9116H8.93445L6.87687 12.3491ZM5.36328 17.2499C5.36341 17.1126 5.41802 16.9809 5.51513 16.8838C5.61224 16.7867 5.74391 16.7321 5.88125 16.732H19.393C19.53 16.7324 19.6612 16.7872 19.7579 16.8843C19.8546 16.9814 19.9088 17.1129 19.9086 17.2499V17.4327C19.9088 17.5698 19.8546 17.7013 19.7579 17.7984C19.6612 17.8955 19.53 17.9503 19.393 17.9507H5.88125C5.74391 17.9506 5.61224 17.896 5.51513 17.7989C5.41802 17.7017 5.36341 17.5701 5.36328 17.4327V17.2499ZM6.23281 19.4859V18.771H19.0391V19.4859C19.0391 19.5205 19.0391 19.5562 19.037 19.603C19.0043 20.7825 18.5135 21.9029 17.6685 22.7264C16.8235 23.5499 15.6908 24.0118 14.5109 24.014H10.7609C9.56027 24.0131 8.40903 23.5358 7.56003 22.6868C6.71103 21.8378 6.23368 20.6865 6.23281 19.4859ZM15.6922 25.8843H9.58203C9.46801 25.8845 9.35856 25.8394 9.27771 25.759C9.19687 25.6786 9.15122 25.5694 9.15078 25.4554V24.5854C9.67145 24.7509 10.2146 24.8349 10.7609 24.8343H14.5109C15.0575 24.8355 15.6009 24.7505 16.1211 24.5826V25.4554C16.121 25.5691 16.0757 25.6781 15.9953 25.7585C15.9149 25.8389 15.8059 25.8842 15.6922 25.8843ZM24.1016 25.8843H18.5023C18.1017 25.8852 17.7163 25.7314 17.4263 25.455C17.1364 25.1786 16.9643 24.8009 16.9461 24.4007H25.658C25.6405 24.8012 25.4687 25.1793 25.1785 25.4559C24.8884 25.7325 24.5024 25.886 24.1016 25.8843Z" fill="white"/>
</svg>
