<svg width="36" height="36" viewBox="0 0 36 36" fill="none" xmlns="http://www.w3.org/2000/svg">
<path fill-rule="evenodd" clip-rule="evenodd" d="M4.41935 6.9248L14.145 16.6546C16.2662 18.7717 19.7336 18.7736 21.8565 16.6546L31.5821 6.9248C31.6801 6.82685 31.6658 6.66556 31.5522 6.58632C30.5602 5.89451 29.3533 5.48438 28.0532 5.48438H7.94833C6.64818 5.48438 5.44127 5.89458 4.4493 6.58632C4.33567 6.66556 4.3214 6.82685 4.41935 6.9248ZM1.82031 11.6123C1.82031 10.59 2.07379 9.62402 2.52028 8.77499C2.5901 8.64217 2.76707 8.61532 2.87317 8.72143L12.4757 18.3239C15.5165 21.3691 20.4832 21.3709 23.5259 18.3239L33.1284 8.72143C33.2345 8.61532 33.4114 8.64217 33.4813 8.77499C33.9277 9.62402 34.1812 10.59 34.1812 11.6123V24.4047C34.1812 27.7863 31.4305 30.5328 28.0532 30.5328H7.94833C4.57108 30.5328 1.82031 27.7863 1.82031 24.4047V11.6123Z" fill="#5DB93D"/>
</svg>
