<svg width="80" height="81" viewBox="0 0 80 81" fill="none" xmlns="http://www.w3.org/2000/svg">
<path d="M69.2188 36.4014C69.2191 35.7516 69.0911 35.1082 68.8424 34.5079C68.5936 33.9077 68.2289 33.3624 67.7691 32.9033C67.3093 32.4442 66.7635 32.0803 66.1628 31.8324C65.5622 31.5846 64.9186 31.4576 64.2688 31.4589H56.6294L60.7819 23.1045C61.9111 22.7448 62.9107 22.0632 63.6578 21.1433C64.405 20.2234 64.8673 19.1054 64.9879 17.9265C65.1086 16.7476 64.8823 15.5591 64.3369 14.507C63.7915 13.4549 62.9507 12.5849 61.9178 12.004C60.8849 11.423 59.7048 11.1564 58.5224 11.2368C57.3401 11.3172 56.2069 11.7411 55.2622 12.4565C54.3174 13.1719 53.6021 14.1477 53.2041 15.2639C52.8062 16.3802 52.7428 17.5884 53.0219 18.7401L44.9851 31.4589H15.7313C14.4199 31.4594 13.1623 31.98 12.2343 32.9066C11.3064 33.8332 10.7838 35.09 10.7813 36.4014C10.7763 37.357 11.0513 38.2932 11.5723 39.0944C12.0934 39.8955 12.8376 40.5265 13.7132 40.9095V41.4339C13.6962 45.6035 14.68 49.7163 16.5817 53.4269C18.4835 57.1376 21.2478 60.3378 24.6426 62.7589C24.2595 63.0807 23.9515 63.4824 23.7402 63.9359C23.5289 64.3893 23.4194 64.8836 23.4194 65.3839V66.4051C23.4194 67.3168 23.7816 68.1911 24.4263 68.8358C25.0709 69.4804 25.9453 69.8426 26.8569 69.8426H52.5001C53.4122 69.8426 54.2871 69.4806 54.9325 68.8361C55.578 68.1916 55.9412 67.3173 55.9426 66.4051V65.3839C55.9414 64.5038 55.6001 63.6582 54.9901 63.0239C58.4673 60.5957 61.3091 57.3663 63.2753 53.6086C65.2415 49.8508 66.2745 45.675 66.2869 41.4339V40.9195C67.1616 40.5325 67.9047 39.8991 68.4253 39.0968C68.946 38.2944 69.2217 37.3578 69.2188 36.4014ZM55.1332 19.4964C55.2201 19.3588 55.2753 19.2037 55.2946 19.0421C55.314 18.8806 55.297 18.7168 55.2451 18.5626C54.9916 17.8157 54.9708 17.0095 55.1853 16.2505C55.3999 15.4915 55.8397 14.8154 56.4466 14.3117C57.0535 13.808 57.799 13.5003 58.5846 13.4294C59.3701 13.3584 60.1587 13.5274 60.8461 13.9142C61.5335 14.3009 62.0874 14.8872 62.4345 15.5954C62.7816 16.3037 62.9056 17.1006 62.7902 17.8808C62.6747 18.6611 62.3252 19.3879 61.7879 19.9653C61.2505 20.5426 60.5506 20.9434 59.7807 21.1145C59.6221 21.1503 59.4734 21.2209 59.3454 21.3212C59.2174 21.4215 59.1133 21.549 59.0407 21.6945L54.1876 31.4589H47.5726L55.1332 19.4964ZM53.7538 66.4026C53.753 66.7347 53.6203 67.053 53.385 67.2873C53.1497 67.5217 52.831 67.6531 52.4988 67.6526H26.8544C26.5229 67.6526 26.205 67.5209 25.9706 67.2865C25.7361 67.0521 25.6044 66.7341 25.6044 66.4026V65.3814C25.6044 65.0498 25.7361 64.7319 25.9706 64.4975C26.205 64.2631 26.5229 64.1314 26.8544 64.1314C54.9426 64.1314 52.3751 64.117 52.7444 64.1564C53.0286 64.2109 53.2849 64.3628 53.4691 64.5859C53.6534 64.8091 53.7541 65.0895 53.7538 65.3789V66.4026ZM64.0994 41.4339C64.0875 45.5448 63.0294 49.5851 61.0248 53.1742C59.0203 56.7633 56.1352 59.7832 52.6413 61.9495C52.5082 61.9432 53.6676 61.9495 27.3488 61.9464C15.1469 54.4126 15.9232 41.4339 15.9007 41.3514H64.0994V41.4339ZM64.2688 39.1657H15.7313C14.9997 39.1657 14.298 38.8751 13.7806 38.3577C13.2632 37.8404 12.9726 37.1387 12.9726 36.407C12.9726 35.6753 13.2632 34.9736 13.7806 34.4563C14.298 33.9389 14.9997 33.6482 15.7313 33.6482H64.2688C65.0005 33.6482 65.7022 33.9389 66.2196 34.4563C66.7369 34.9736 67.0276 35.6753 67.0276 36.407C67.0276 37.1387 66.7369 37.8404 66.2196 38.3577C65.7022 38.8751 65.0005 39.1657 64.2688 39.1657Z" fill="#5DB93D"/>
<path d="M24.2202 27.8844H30.9927C32.8704 27.8823 34.6706 27.1354 35.9984 25.8076C37.3262 24.4799 38.073 22.6796 38.0752 20.8019V19.5C38.075 19.21 37.9597 18.9319 37.7547 18.7268C37.5496 18.5217 37.2715 18.4064 36.9814 18.4063H33.5952C33.1477 18.4078 32.7013 18.4517 32.2621 18.5375C32.1568 17.1142 31.74 15.7315 31.0411 14.4872C30.3422 13.2429 29.3783 12.1674 28.2177 11.3369C28.0371 11.215 27.8243 11.1499 27.6064 11.1499C27.3886 11.1499 27.1757 11.215 26.9952 11.3369C25.8346 12.1674 24.8707 13.2429 24.1718 14.4872C23.4729 15.7315 23.056 17.1142 22.9508 18.5375C22.5116 18.4517 22.0652 18.4078 21.6177 18.4063H18.2314C17.9414 18.4064 17.6633 18.5217 17.4582 18.7268C17.2531 18.9319 17.1379 19.21 17.1377 19.5V20.8019C17.1398 22.6796 17.8867 24.4799 19.2145 25.8076C20.5422 27.1354 22.3425 27.8823 24.2202 27.8844ZM35.8877 20.5938V20.8019C35.8862 22.0997 35.37 23.3439 34.4523 24.2615C33.5347 25.1792 32.2905 25.6954 30.9927 25.6969H28.7002V25.4894C28.7017 24.1916 29.2179 22.9473 30.1355 22.0295C31.0532 21.1118 32.2974 20.5954 33.5952 20.5938H35.8877ZM27.6064 13.6207C28.3934 14.3492 29.0221 15.2317 29.4536 16.2134C29.8851 17.1952 30.11 18.2552 30.1146 19.3275C29.0935 19.903 28.2315 20.7235 27.6064 21.715C26.9815 20.7234 26.1195 19.9029 25.0983 19.3275C25.1028 18.2552 25.3278 17.1952 25.7593 16.2134C26.1908 15.2317 26.8195 14.3492 27.6064 13.6207ZM19.3252 20.5938H21.6177C22.9155 20.5954 24.1597 21.1118 25.0774 22.0295C25.995 22.9473 26.5112 24.1916 26.5127 25.4894V25.6969H24.2202C22.9224 25.6954 21.6782 25.1792 20.7606 24.2615C19.8429 23.3439 19.3267 22.0997 19.3252 20.8019V20.5938Z" fill="#5DB93D"/>
<path d="M35.2598 55.2406H36.406V56.3875C36.406 57.3406 36.7846 58.2547 37.4586 58.9287C38.1326 59.6026 39.0466 59.9812 39.9998 59.9812C40.9529 59.9812 41.867 59.6026 42.5409 58.9287C43.2149 58.2547 43.5935 57.3406 43.5935 56.3875V55.2406H44.7398C45.6929 55.2406 46.607 54.862 47.2809 54.188C47.9549 53.5141 48.3335 52.6 48.3335 51.6469C48.3335 50.6937 47.9549 49.7797 47.2809 49.1057C46.607 48.4317 45.6929 48.0531 44.7398 48.0531H43.5935V46.9069C43.5935 45.9537 43.2149 45.0397 42.5409 44.3657C41.867 43.6917 40.9529 43.3131 39.9998 43.3131C39.0466 43.3131 38.1326 43.6917 37.4586 44.3657C36.7846 45.0397 36.406 45.9537 36.406 46.9069V48.0531H35.2598C34.3066 48.0531 33.3926 48.4317 32.7186 49.1057C32.0446 49.7797 31.666 50.6937 31.666 51.6469C31.666 52.6 32.0446 53.5141 32.7186 54.188C33.3926 54.862 34.3066 55.2406 35.2598 55.2406ZM35.2598 50.2406H37.4998C37.7898 50.2406 38.068 50.1254 38.2732 49.9203C38.4783 49.7151 38.5935 49.4369 38.5935 49.1469V46.9069C38.5935 46.5339 38.7417 46.1762 39.0054 45.9125C39.2691 45.6488 39.6268 45.5006 39.9998 45.5006C40.3727 45.5006 40.7304 45.6488 40.9941 45.9125C41.2579 46.1762 41.406 46.5339 41.406 46.9069V49.1469C41.406 49.4369 41.5213 49.7151 41.7264 49.9203C41.9315 50.1254 42.2097 50.2406 42.4998 50.2406H44.7398C45.1127 50.2406 45.4704 50.3888 45.7341 50.6525C45.9979 50.9162 46.146 51.2739 46.146 51.6469C46.146 52.0198 45.9979 52.3775 45.7341 52.6412C45.4704 52.905 45.1127 53.0531 44.7398 53.0531H42.4998C42.2097 53.0531 41.9315 53.1683 41.7264 53.3735C41.5213 53.5786 41.406 53.8568 41.406 54.1469V56.3875C41.406 56.7604 41.2579 57.1181 40.9941 57.3819C40.7304 57.6456 40.3727 57.7937 39.9998 57.7937C39.6268 57.7937 39.2691 57.6456 39.0054 57.3819C38.7417 57.1181 38.5935 56.7604 38.5935 56.3875V54.1469C38.5935 53.8568 38.4783 53.5786 38.2732 53.3735C38.068 53.1683 37.7898 53.0531 37.4998 53.0531H35.2598C34.8868 53.0531 34.5291 52.905 34.2654 52.6412C34.0017 52.3775 33.8535 52.0198 33.8535 51.6469C33.8535 51.2739 34.0017 50.9162 34.2654 50.6525C34.5291 50.3888 34.8868 50.2406 35.2598 50.2406Z" fill="#5DB93D"/>
</svg>
