<svg width="46" height="46" viewBox="0 0 46 46" fill="none" xmlns="http://www.w3.org/2000/svg">
<path d="M36.9915 22.8576H29.7022V13.1861C30.0522 13.0609 30.3555 12.8292 30.5704 12.5227C30.7852 12.2162 30.9012 11.8499 30.9024 11.474V8.39785C30.9014 7.91422 30.7113 7.45066 30.3734 7.10868C30.0356 6.7667 29.5777 6.57417 29.1 6.57324H8.56666C8.08899 6.57426 7.63117 6.76684 7.29344 7.10881C6.9557 7.45078 6.76557 7.91428 6.76465 8.39785V11.474C6.76583 11.8501 6.88196 12.2166 7.0971 12.5232C7.31223 12.8298 7.61583 13.0615 7.96622 13.1865V36.101C7.96723 36.9874 8.31551 37.8372 8.93464 38.464C9.55378 39.0907 10.3932 39.4433 11.2688 39.4443H36.9915C37.5863 39.4437 38.1565 39.2042 38.5771 38.7784C38.9977 38.3527 39.2342 37.7754 39.2349 37.1732V25.1322C39.2347 24.5296 38.9984 23.9517 38.5778 23.5253C38.1572 23.0989 37.5867 22.8587 36.9915 22.8576ZM21.6766 22.8576V18.6955C21.677 18.3913 21.7965 18.0998 22.0089 17.8847C22.2214 17.6697 22.5094 17.5487 22.8098 17.5483H28.4867V19.5874H24.3295C24.1683 19.5874 24.0137 19.6522 23.8997 19.7676C23.7858 19.883 23.7217 20.0394 23.7217 20.2026C23.7217 20.3658 23.7858 20.5223 23.8997 20.6377C24.0137 20.753 24.1683 20.8179 24.3295 20.8179H28.4867V22.8569L21.6766 22.8576ZM7.98011 8.39785C7.9803 8.24039 8.04214 8.08943 8.15209 7.97806C8.26204 7.86669 8.41112 7.80399 8.56666 7.80371H9.80921V9.93594C9.80921 10.0991 9.87324 10.2556 9.98721 10.371C10.1012 10.4864 10.2558 10.5512 10.4169 10.5512C10.5781 10.5512 10.7327 10.4864 10.8467 10.371C10.9606 10.2556 11.0247 10.0991 11.0247 9.93594V7.80371H13.1757V9.93594C13.1757 10.0991 13.2397 10.2556 13.3537 10.371C13.4677 10.4864 13.6222 10.5512 13.7834 10.5512C13.9446 10.5512 14.0992 10.4864 14.2132 10.371C14.3271 10.2556 14.3912 10.0991 14.3912 9.93594V7.80371H16.5422V9.93594C16.5422 10.0991 16.6062 10.2556 16.7202 10.371C16.8342 10.4864 16.9887 10.5512 17.1499 10.5512C17.3111 10.5512 17.4657 10.4864 17.5796 10.371C17.6936 10.2556 17.7576 10.0991 17.7576 9.93594V7.80371H19.9107V9.93594C19.9107 10.0991 19.9748 10.2556 20.0887 10.371C20.2027 10.4864 20.3573 10.5512 20.5185 10.5512C20.6797 10.5512 20.8342 10.4864 20.9482 10.371C21.0622 10.2556 21.1262 10.0991 21.1262 9.93594V7.80371H23.2776V9.93594C23.2776 10.0991 23.3416 10.2556 23.4556 10.371C23.5696 10.4864 23.7241 10.5512 23.8853 10.5512C24.0465 10.5512 24.2011 10.4864 24.315 10.371C24.429 10.2556 24.493 10.0991 24.493 9.93594V7.80371H26.6441V9.93594C26.6441 10.0991 26.7081 10.2556 26.8221 10.371C26.936 10.4864 27.0906 10.5512 27.2518 10.5512C27.413 10.5512 27.5676 10.4864 27.6815 10.371C27.7955 10.2556 27.8595 10.0991 27.8595 9.93594V7.80371H29.1017C29.2573 7.8039 29.4065 7.86655 29.5165 7.97794C29.6266 8.08932 29.6884 8.24033 29.6886 8.39785V11.474C29.6884 11.6315 29.6266 11.7826 29.5165 11.8939C29.4065 12.0053 29.2573 12.068 29.1017 12.0682H8.56666C8.41112 12.0679 8.26204 12.0052 8.15209 11.8938C8.04214 11.7824 7.9803 11.6315 7.98011 11.474V8.39785ZM9.18168 36.101V13.2986H28.4867V16.3179H22.8084C22.1857 16.3186 21.5888 16.5693 21.1485 17.0151C20.7082 17.4608 20.4605 18.0651 20.4598 18.6955V22.8576H18.7873C18.1921 22.8587 17.6216 23.0989 17.201 23.5253C16.7804 23.9517 16.5441 24.5296 16.5439 25.1322V37.1732C16.5441 37.5356 16.6304 37.8925 16.7957 38.2139H11.2688C10.7155 38.2132 10.185 37.9904 9.7937 37.5943C9.40243 37.1982 9.18233 36.6611 9.18168 36.101ZM38.0194 37.1732C38.019 37.4491 37.9106 37.7136 37.7179 37.9087C37.5252 38.1037 37.264 38.2135 36.9915 38.2139H18.7873C18.5148 38.2135 18.2536 38.1037 18.0609 37.9087C17.8682 37.7136 17.7597 37.4491 17.7594 37.1732V25.1322C17.7592 24.8559 17.8673 24.5907 18.06 24.3949C18.2528 24.1992 18.5143 24.0888 18.7873 24.0881H36.9915C37.2645 24.0888 37.526 24.1992 37.7188 24.3949C37.9115 24.5907 38.0196 24.8559 38.0194 25.1322V37.1732Z" fill="#5DB93D"/>
<path d="M21.4152 32.1097C20.979 32.1097 20.5526 32.2408 20.1899 32.4861C19.8273 32.7315 19.5446 33.0803 19.3777 33.4883C19.2109 33.8962 19.1672 34.3452 19.2524 34.7783C19.3375 35.2114 19.5476 35.6092 19.8561 35.9214C20.1645 36.2336 20.5575 36.4462 20.9854 36.5324C21.4132 36.6185 21.8566 36.5742 22.2596 36.4052C22.6626 36.2362 23.007 35.95 23.2494 35.5829C23.4917 35.2157 23.6211 34.784 23.6211 34.3425C23.6205 33.7504 23.3879 33.1828 22.9743 32.7641C22.5608 32.3455 22 32.1101 21.4152 32.1097ZM21.4152 35.3441C21.2194 35.344 21.028 35.2851 20.8652 35.175C20.7024 35.0648 20.5756 34.9082 20.5007 34.7251C20.4258 34.5419 20.4062 34.3404 20.4445 34.146C20.4827 33.9516 20.5771 33.773 20.7155 33.6329C20.854 33.4928 21.0304 33.3973 21.2225 33.3587C21.4145 33.32 21.6136 33.3399 21.7945 33.4158C21.9754 33.4916 22.13 33.6201 22.2388 33.7849C22.3475 33.9498 22.4056 34.1435 22.4056 34.3417C22.4056 34.6077 22.3013 34.8628 22.1155 35.0509C21.9298 35.2389 21.6779 35.3447 21.4152 35.3448V35.3441Z" fill="#5DB93D"/>
<path d="M21.4152 25.7274C20.979 25.7275 20.5526 25.8585 20.1899 26.1039C19.8273 26.3493 19.5446 26.698 19.3777 27.106C19.2109 27.514 19.1672 27.9629 19.2524 28.396C19.3375 28.8291 19.5476 29.2269 19.8561 29.5391C20.1645 29.8513 20.5575 30.064 20.9854 30.1501C21.4132 30.2362 21.8566 30.192 22.2596 30.023C22.6626 29.854 23.007 29.5678 23.2494 29.2006C23.4917 28.8334 23.6211 28.4018 23.6211 27.9602C23.6205 27.3681 23.3879 26.8005 22.9743 26.3819C22.5608 25.9633 22 25.7279 21.4152 25.7274ZM21.4152 28.9618C21.2194 28.9617 21.028 28.9029 20.8652 28.7927C20.7024 28.6825 20.5756 28.526 20.5007 28.3428C20.4258 28.1597 20.4062 27.9581 20.4445 27.7637C20.4827 27.5693 20.5771 27.3908 20.7155 27.2506C20.854 27.1105 21.0304 27.0151 21.2225 26.9764C21.4145 26.9378 21.6136 26.9576 21.7945 27.0335C21.9754 27.1094 22.13 27.2379 22.2388 27.4027C22.3475 27.5675 22.4056 27.7613 22.4056 27.9595C22.4056 28.2254 22.3013 28.4805 22.1155 28.6686C21.9298 28.8567 21.6779 28.9624 21.4152 28.9625V28.9618Z" fill="#5DB93D"/>
<path d="M27.8891 32.1097C27.4529 32.1097 27.0265 32.2406 26.6638 32.486C26.3011 32.7313 26.0184 33.08 25.8515 33.488C25.6846 33.896 25.6409 34.3449 25.726 34.778C25.8111 35.2112 26.0211 35.609 26.3296 35.9213C26.638 36.2335 27.031 36.4462 27.4589 36.5323C27.8867 36.6185 28.3302 36.5743 28.7332 36.4053C29.1362 36.2363 29.4806 35.9501 29.723 35.5829C29.9653 35.2157 30.0947 34.7841 30.0947 34.3425C30.094 33.7505 29.8615 33.1829 29.448 32.7644C29.0345 32.3458 28.4739 32.1103 27.8891 32.1097ZM27.8891 35.3441C27.6933 35.3441 27.5019 35.2853 27.3391 35.1751C27.1763 35.065 27.0494 34.9085 26.9744 34.7253C26.8995 34.5422 26.8799 34.3406 26.9181 34.1462C26.9563 33.9518 27.0506 33.7732 27.189 33.633C27.3275 33.4928 27.5039 33.3974 27.696 33.3587C27.888 33.32 28.0871 33.3399 28.268 33.4157C28.4489 33.4916 28.6036 33.6201 28.7124 33.7849C28.8212 33.9497 28.8792 34.1435 28.8792 34.3418C28.8791 34.6076 28.7748 34.8626 28.5892 35.0506C28.4035 35.2387 28.1518 35.3445 27.8891 35.3448V35.3441Z" fill="#5DB93D"/>
<path d="M27.8891 25.7274C27.4529 25.7274 27.0265 25.8584 26.6638 26.1037C26.3011 26.349 26.0184 26.6978 25.8515 27.1057C25.6846 27.5137 25.6409 27.9627 25.726 28.3958C25.8111 28.8289 26.0211 29.2267 26.3296 29.539C26.638 29.8513 27.031 30.0639 27.4589 30.1501C27.8867 30.2362 28.3302 30.192 28.7332 30.023C29.1362 29.854 29.4806 29.5678 29.723 29.2007C29.9653 28.8335 30.0947 28.4018 30.0947 27.9602C30.094 27.3682 29.8615 26.8007 29.448 26.3821C29.0345 25.9635 28.4739 25.7281 27.8891 25.7274ZM27.8891 28.9618C27.6933 28.9618 27.5019 28.903 27.3391 28.7929C27.1763 28.6827 27.0494 28.5262 26.9744 28.3431C26.8995 28.1599 26.8799 27.9584 26.9181 27.7639C26.9563 27.5695 27.0506 27.3909 27.189 27.2508C27.3275 27.1106 27.5039 27.0151 27.696 26.9764C27.888 26.9378 28.0871 26.9576 28.268 27.0335C28.4489 27.1093 28.6036 27.2378 28.7124 27.4026C28.8212 27.5675 28.8792 27.7612 28.8792 27.9595C28.8791 28.2254 28.7748 28.4803 28.5892 28.6684C28.4035 28.8564 28.1518 28.9622 27.8891 28.9625V28.9618Z" fill="#5DB93D"/>
<path d="M34.3612 32.1097C33.9249 32.1096 33.4985 32.2405 33.1357 32.4858C32.773 32.7311 32.4902 33.0798 32.3233 33.4878C32.1563 33.8957 32.1125 34.3447 32.1976 34.7778C32.2827 35.211 32.4927 35.6088 32.8011 35.9211C33.1096 36.2334 33.5026 36.4461 33.9304 36.5323C34.3583 36.6185 34.8017 36.5743 35.2048 36.4053C35.6078 36.2363 35.9523 35.9501 36.1946 35.583C36.437 35.2158 36.5664 34.7841 36.5664 34.3425C36.5656 33.7506 36.3331 33.1831 35.9197 32.7646C35.5063 32.346 34.9458 32.1105 34.3612 32.1097ZM34.3612 35.3441C34.1653 35.3441 33.9739 35.2854 33.811 35.1753C33.6481 35.0652 33.5212 34.9087 33.4462 34.7256C33.3712 34.5424 33.3516 34.3409 33.3897 34.1464C33.4279 33.952 33.5222 33.7733 33.6606 33.6331C33.7991 33.4929 33.9755 33.3974 34.1675 33.3587C34.3596 33.32 34.5587 33.3399 34.7396 33.4157C34.9206 33.4916 35.0752 33.62 35.184 33.7849C35.2928 33.9497 35.3509 34.1435 35.3509 34.3417C35.3507 34.6075 35.2464 34.8624 35.0609 35.0504C34.8753 35.2384 34.6237 35.3443 34.3612 35.3448V35.3441Z" fill="#5DB93D"/>
<path d="M34.3612 25.7274C33.9249 25.7273 33.4985 25.8582 33.1357 26.1035C32.773 26.3488 32.4902 26.6975 32.3233 27.1055C32.1563 27.5135 32.1125 27.9624 32.1976 28.3956C32.2827 28.8287 32.4927 29.2266 32.8011 29.5389C33.1096 29.8512 33.5026 30.0639 33.9304 30.15C34.3583 30.2362 34.8017 30.192 35.2048 30.023C35.6078 29.8541 35.9523 29.5679 36.1946 29.2007C36.437 28.8335 36.5664 28.4018 36.5664 27.9602C36.5656 27.3683 36.3331 26.8009 35.9197 26.3823C35.5063 25.9638 34.9458 25.7283 34.3612 25.7274ZM34.3612 28.9618C34.1653 28.9619 33.9739 28.9031 33.811 28.793C33.6481 28.6829 33.5212 28.5264 33.4462 28.3433C33.3712 28.1602 33.3516 27.9586 33.3897 27.7642C33.4279 27.5697 33.5222 27.3911 33.6606 27.2509C33.7991 27.1107 33.9755 27.0152 34.1675 26.9765C34.3596 26.9378 34.5587 26.9576 34.7396 27.0334C34.9206 27.1093 35.0752 27.2378 35.184 27.4026C35.2928 27.5674 35.3509 27.7612 35.3509 27.9595C35.3507 28.2253 35.2464 28.4801 35.0609 28.6681C34.8753 28.8562 34.6237 28.962 34.3612 28.9625V28.9618Z" fill="#5DB93D"/>
</svg>
