<svg width="36" height="36" viewBox="0 0 36 36" fill="none" xmlns="http://www.w3.org/2000/svg">
<g clip-path="url(#clip0_656_25814)">
<path d="M35.02 26.4292L29.9961 21.4053C28.2018 19.611 25.1516 20.3288 24.4339 22.6612C23.8956 24.2761 22.1014 25.1733 20.4865 24.8143C16.898 23.9172 12.0535 19.2522 11.1564 15.4842C10.6181 13.8693 11.6947 12.0751 13.3095 11.5369C15.642 10.8192 16.3597 7.76893 14.5655 5.97468L9.54159 0.950772C8.10618 -0.305205 5.95308 -0.305205 4.69711 0.950772L1.28803 4.35985C-2.12106 7.94836 1.64688 17.4579 10.0799 25.8909C18.5129 34.3239 28.0224 38.2713 31.6109 34.6827L35.02 31.2736C36.276 29.8382 36.276 27.6851 35.02 26.4292Z" fill="#5DB93D"/>
</g>
<defs>
<clipPath id="clip0_656_25814">
<rect width="36" height="36" fill="white" transform="translate(0 0.00878906)"/>
</clipPath>
</defs>
</svg>
