<svg width="31" height="31" viewBox="0 0 31 31" fill="none" xmlns="http://www.w3.org/2000/svg">
<path d="M12.8973 10.8118H13.6604V11.5655C13.6606 11.7259 13.7251 11.8796 13.8399 11.9929C13.9546 12.1063 14.1102 12.17 14.2725 12.1702H15.4517C15.6141 12.1701 15.7697 12.1064 15.8845 11.993C15.9994 11.8796 16.0639 11.7259 16.0641 11.5655V10.8118H16.827C16.9893 10.8117 17.1449 10.7479 17.2597 10.6346C17.3744 10.5212 17.439 10.3674 17.4391 10.2071V9.0425C17.439 8.88212 17.3745 8.72834 17.2597 8.61489C17.1449 8.50144 16.9893 8.43759 16.827 8.43734H16.0651V7.68477C16.0649 7.52441 16.0003 7.37068 15.8855 7.25731C15.7707 7.14394 15.615 7.0802 15.4527 7.08008H14.2735C14.1112 7.08026 13.9556 7.14403 13.8408 7.25739C13.7261 7.37075 13.6615 7.52445 13.6613 7.68477V8.43805H12.8973C12.735 8.43836 12.5794 8.50223 12.4646 8.61566C12.3499 8.7291 12.2853 8.88284 12.2852 9.0432V10.2078C12.2855 10.368 12.3502 10.5215 12.4649 10.6347C12.5797 10.7479 12.7351 10.8116 12.8973 10.8118ZM13.1156 9.25766H14.0756C14.1857 9.25766 14.2913 9.21444 14.3692 9.13752C14.4471 9.0606 14.4908 8.95628 14.4908 8.8475V7.89969H15.2346V8.8475C15.2346 8.90137 15.2453 8.95472 15.2662 9.0045C15.287 9.05427 15.3176 9.0995 15.3562 9.13759C15.3948 9.17569 15.4405 9.2059 15.4909 9.2265C15.5413 9.2471 15.5953 9.25769 15.6499 9.25766H16.6096V9.99148H15.6489C15.5388 9.99148 15.4332 10.0347 15.3553 10.1116C15.2774 10.1885 15.2337 10.2929 15.2337 10.4016V11.3499H14.4908V10.4016C14.4907 10.2929 14.447 10.1886 14.3691 10.1117C14.2913 10.0348 14.1857 9.99155 14.0756 9.99148H13.1156V9.25766Z" fill="white"/>
<path d="M21.0562 20.8622H21.5599C21.6679 20.8623 21.7715 20.9047 21.8478 20.9802C21.9242 21.0556 21.9672 21.1579 21.9673 21.2646C21.9673 21.3734 22.011 21.4777 22.0889 21.5546C22.1668 21.6316 22.2724 21.6748 22.3825 21.6748C22.4926 21.6748 22.5983 21.6316 22.6761 21.5546C22.754 21.4777 22.7977 21.3734 22.7977 21.2646C22.7968 20.9691 22.6874 20.6839 22.4898 20.4621C22.2922 20.2402 22.0198 20.0968 21.7232 20.0583V19.8691C21.7232 19.7604 21.6794 19.656 21.6015 19.5791C21.5237 19.5022 21.4181 19.459 21.3079 19.459C21.1978 19.459 21.0922 19.5022 21.0143 19.5791C20.9365 19.656 20.8927 19.7604 20.8927 19.8691V20.0583C20.5961 20.0968 20.3238 20.2403 20.1262 20.4622C19.9286 20.684 19.8193 20.9691 19.8184 21.2646V21.3068C19.8194 21.5718 19.907 21.8293 20.0683 22.0411C20.2296 22.2528 20.4559 22.4074 20.7133 22.4817L21.6726 22.7548C21.7574 22.7791 21.8319 22.83 21.885 22.8996C21.9381 22.9693 21.967 23.054 21.9673 23.1412V23.1837C21.9672 23.2903 21.9242 23.3926 21.8478 23.468C21.7714 23.5434 21.6679 23.5858 21.5599 23.5859H21.0562C20.9482 23.5858 20.8447 23.5434 20.7683 23.468C20.6919 23.3926 20.6489 23.2903 20.6488 23.1837C20.6488 23.0749 20.6051 22.9706 20.5272 22.8936C20.4493 22.8167 20.3437 22.7735 20.2336 22.7735C20.1235 22.7735 20.0178 22.8167 19.94 22.8936C19.8621 22.9706 19.8184 23.0749 19.8184 23.1837C19.8193 23.4791 19.9286 23.7643 20.1262 23.9861C20.3238 24.208 20.5961 24.3515 20.8927 24.39V24.5791C20.8927 24.6879 20.9365 24.7922 21.0143 24.8692C21.0922 24.9461 21.1978 24.9893 21.3079 24.9893C21.4181 24.9893 21.5237 24.9461 21.6015 24.8692C21.6794 24.7922 21.7232 24.6879 21.7232 24.5791V24.39C22.0198 24.3515 22.2922 24.208 22.4898 23.9862C22.6874 23.7643 22.7968 23.4792 22.7977 23.1837V23.1412C22.7967 22.8762 22.7089 22.6185 22.5474 22.4067C22.3859 22.195 22.1595 22.0405 21.9018 21.9663L20.9425 21.6933C20.8578 21.6689 20.7833 21.6181 20.7302 21.5484C20.677 21.4788 20.6482 21.394 20.6479 21.3068V21.2646C20.6479 21.2117 20.6585 21.1593 20.6791 21.1105C20.6996 21.0616 20.7297 21.0172 20.7676 20.9799C20.8056 20.9425 20.8506 20.9129 20.9001 20.8927C20.9496 20.8725 21.0026 20.8621 21.0562 20.8622Z" fill="white"/>
<path d="M22.5875 17.9512V6.50195C22.5875 6.04859 22.4053 5.61376 22.081 5.29297C21.7567 4.97217 21.3168 4.79164 20.8578 4.79102H8.76185C8.30263 4.79151 7.86236 4.97193 7.53765 5.29269C7.21293 5.61344 7.03029 6.04834 7.02979 6.50195V20.5738C7.03233 20.6821 7.07574 20.7855 7.1515 20.8638L10.6133 24.2833C10.6518 24.3214 10.6975 24.3516 10.7479 24.3723C10.7982 24.3929 10.8522 24.4035 10.9068 24.4035H17.3571C17.7173 25.0444 18.2317 25.5878 18.8548 25.9858C19.4779 26.3839 20.1906 26.6243 20.93 26.6859C21.6694 26.7475 22.4128 26.6284 23.0946 26.3391C23.7764 26.0498 24.3756 25.5992 24.8394 25.0271C25.3032 24.4549 25.6174 23.7788 25.7541 23.0583C25.8908 22.3379 25.8459 21.5953 25.6233 20.896C25.4008 20.1968 25.0075 19.5624 24.478 19.0488C23.9486 18.5352 23.2993 18.1583 22.5875 17.9512ZM8.76185 5.61133H20.8578C21.0965 5.61195 21.3252 5.70606 21.4938 5.87301C21.6624 6.03997 21.757 6.26615 21.757 6.50195V17.792C21.5613 17.773 21.3867 17.766 21.3086 17.766C20.5973 17.7646 19.8957 17.9293 19.261 18.2467C18.6264 18.564 18.0767 19.0251 17.6567 19.5922C17.2368 20.1593 16.9585 20.8165 16.8445 21.51C16.7306 22.2036 16.7842 22.914 17.001 23.5832H11.3222V21.8737C11.3222 21.4199 11.1397 20.9847 10.8149 20.6639C10.4901 20.343 10.0495 20.1627 9.59015 20.1627H7.86023V6.50195C7.86023 6.26574 7.95522 6.03921 8.1243 5.87219C8.29339 5.70516 8.52272 5.61133 8.76185 5.61133ZM8.44865 20.9842H9.59157C9.8307 20.9842 10.06 21.0781 10.2291 21.2451C10.3982 21.4121 10.4932 21.6386 10.4932 21.8748V23.0041L8.44865 20.9842ZM21.3086 25.8801C20.5787 25.8799 19.8652 25.6659 19.2584 25.2652C18.6516 24.8645 18.1786 24.2951 17.8994 23.6289C17.6201 22.9628 17.5471 22.2298 17.6896 21.5226C17.832 20.8155 18.1835 20.1659 18.6997 19.6561C19.2158 19.1462 19.8734 18.799 20.5893 18.6583C21.3051 18.5176 22.0472 18.5897 22.7216 18.8656C23.396 19.1414 23.9724 19.6086 24.3781 20.208C24.7837 20.8074 25.0003 21.5122 25.0005 22.2332C25.0014 22.7124 24.9066 23.187 24.7214 23.6299C24.5362 24.0728 24.2643 24.4752 23.9213 24.814C23.5783 25.1528 23.1709 25.4214 22.7225 25.6044C22.2742 25.7873 21.7937 25.881 21.3086 25.8801Z" fill="white"/>
<path d="M11.1701 14.4512H18.8709C18.981 14.4512 19.0866 14.408 19.1645 14.331C19.2424 14.2541 19.2861 14.1498 19.2861 14.041C19.2861 13.9322 19.2424 13.8279 19.1645 13.751C19.0866 13.6741 18.981 13.6309 18.8709 13.6309H11.1701C11.06 13.6309 10.9544 13.6741 10.8765 13.751C10.7986 13.8279 10.7549 13.9322 10.7549 14.041C10.7549 14.1498 10.7986 14.2541 10.8765 14.331C10.9544 14.408 11.06 14.4512 11.1701 14.4512Z" fill="white"/>
<path d="M11.1701 16.8945H18.8709C18.981 16.8945 19.0866 16.8513 19.1645 16.7744C19.2424 16.6975 19.2861 16.5932 19.2861 16.4844C19.2861 16.3756 19.2424 16.2713 19.1645 16.1944C19.0866 16.1174 18.981 16.0742 18.8709 16.0742H11.1701C11.06 16.0742 10.9544 16.1174 10.8765 16.1944C10.7986 16.2713 10.7549 16.3756 10.7549 16.4844C10.7549 16.5932 10.7986 16.6975 10.8765 16.7744C10.9544 16.8513 11.06 16.8945 11.1701 16.8945Z" fill="white"/>
<path d="M11.1701 19.3379H15.5702C15.6804 19.3379 15.786 19.2947 15.8639 19.2178C15.9417 19.1408 15.9855 19.0365 15.9855 18.9277C15.9855 18.819 15.9417 18.7146 15.8639 18.6377C15.786 18.5608 15.6804 18.5176 15.5702 18.5176H11.1701C11.06 18.5176 10.9544 18.5608 10.8765 18.6377C10.7986 18.7146 10.7549 18.819 10.7549 18.9277C10.7549 19.0365 10.7986 19.1408 10.8765 19.2178C10.9544 19.2947 11.06 19.3379 11.1701 19.3379Z" fill="white"/>
</svg>
