<svg width="46" height="46" viewBox="0 0 46 46" fill="none" xmlns="http://www.w3.org/2000/svg">
<path d="M39.4356 20.2792C39.4357 19.9137 39.3638 19.5517 39.2238 19.2141C39.0839 18.8765 38.8787 18.5697 38.6201 18.3115C38.3615 18.0532 38.0544 17.8486 37.7166 17.7091C37.3787 17.5697 37.0167 17.4983 36.6512 17.499H32.3541L34.6898 12.7997C35.325 12.5973 35.8872 12.2139 36.3075 11.6965C36.7278 11.1791 36.9879 10.5502 37.0557 9.88705C37.1236 9.22391 36.9963 8.55538 36.6895 7.96357C36.3827 7.37175 35.9098 6.88241 35.3287 6.55564C34.7477 6.22886 34.0839 6.07888 33.4189 6.1241C32.7538 6.16932 32.1164 6.40778 31.585 6.81019C31.0535 7.21261 30.6512 7.76146 30.4273 8.38936C30.2035 9.01725 30.1678 9.69686 30.3248 10.3447L25.8041 17.499H9.34887C8.61122 17.4993 7.9038 17.7921 7.38181 18.3133C6.85982 18.8345 6.56589 19.5415 6.56449 20.2792C6.56167 20.8167 6.71636 21.3433 7.00943 21.794C7.30251 22.2446 7.72116 22.5996 8.21367 22.815V23.1099C8.20414 25.4553 8.75748 27.7688 9.82722 29.856C10.897 31.9433 12.4519 33.7434 14.3614 35.1053C14.146 35.2863 13.9727 35.5122 13.8539 35.7673C13.735 36.0224 13.6734 36.3004 13.6734 36.5818V37.1563C13.6734 37.6691 13.8772 38.1609 14.2398 38.5235C14.6024 38.8862 15.0942 39.0899 15.607 39.0899H30.0313C30.5444 39.0899 31.0365 38.8862 31.3995 38.5237C31.7626 38.1612 31.9669 37.6694 31.9677 37.1563V36.5818C31.967 36.0868 31.7751 35.6111 31.4319 35.2543C33.3879 33.8885 34.9863 32.072 36.0924 29.9582C37.1984 27.8445 37.7794 25.4956 37.7864 23.1099V22.8206C38.2784 22.6029 38.6964 22.2467 38.9892 21.7953C39.2821 21.344 39.4372 20.8172 39.4356 20.2792ZM31.5124 10.7701C31.5613 10.6927 31.5923 10.6055 31.6032 10.5146C31.6141 10.4237 31.6046 10.3316 31.5753 10.2449C31.4328 9.82473 31.4211 9.37123 31.5417 8.94429C31.6624 8.51736 31.9098 8.13709 32.2512 7.85375C32.5926 7.57041 33.012 7.39734 33.4538 7.35741C33.8957 7.31749 34.3393 7.41258 34.7259 7.63013C35.1126 7.84768 35.4241 8.17744 35.6194 8.57583C35.8146 8.97422 35.8844 9.42248 35.8195 9.86136C35.7545 10.3002 35.5579 10.7091 35.2557 11.0339C34.9534 11.3586 34.5597 11.584 34.1266 11.6803C34.0374 11.7004 33.9538 11.7401 33.8818 11.7966C33.8098 11.853 33.7512 11.9247 33.7104 12.0065L30.9805 17.499H27.2596L31.5124 10.7701ZM30.7365 37.1549C30.7361 37.3417 30.6614 37.5207 30.5291 37.6525C30.3967 37.7844 30.2174 37.8583 30.0306 37.858H15.6056C15.4191 37.858 15.2403 37.7839 15.1084 37.6521C14.9766 37.5202 14.9025 37.3413 14.9025 37.1549V36.5804C14.9025 36.3939 14.9766 36.2151 15.1084 36.0832C15.2403 35.9514 15.4191 35.8773 15.6056 35.8773C31.4052 35.8773 29.961 35.8692 30.1687 35.8914C30.3286 35.922 30.4728 36.0075 30.5764 36.133C30.68 36.2585 30.7367 36.4162 30.7365 36.579V37.1549ZM36.5559 23.1099C36.5492 25.4224 35.954 27.695 34.8265 29.7139C33.6989 31.7328 32.0761 33.4315 30.1107 34.65C30.0359 34.6465 30.688 34.65 15.8837 34.6482C9.02015 30.4105 9.4568 23.1099 9.44414 23.0635H36.5559V23.1099ZM36.6512 21.8341H9.34887C8.9373 21.8341 8.5426 21.6706 8.25158 21.3796C7.96056 21.0886 7.79707 20.6939 7.79707 20.2823C7.79707 19.8708 7.96056 19.4761 8.25158 19.185C8.5426 18.894 8.9373 18.7305 9.34887 18.7305H36.6512C37.0628 18.7305 37.4575 18.894 37.7485 19.185C38.0395 19.4761 38.203 19.8708 38.203 20.2823C38.203 20.6939 38.0395 21.0886 37.7485 21.3796C37.4575 21.6706 37.0628 21.8341 36.6512 21.8341Z" fill="#5DB93D"/>
<path d="M14.1236 15.4884H17.9331C18.9893 15.4871 20.0019 15.067 20.7488 14.3202C21.4957 13.5733 21.9158 12.5607 21.917 11.5044V10.7721C21.9169 10.609 21.852 10.4526 21.7367 10.3372C21.6213 10.2218 21.4649 10.157 21.3018 10.1569H19.397C19.1453 10.1577 18.8942 10.1825 18.6471 10.2307C18.5879 9.43014 18.3535 8.65234 17.9603 7.95241C17.5672 7.25248 17.025 6.64753 16.3721 6.18038C16.2706 6.11183 16.1509 6.0752 16.0283 6.0752C15.9058 6.0752 15.7861 6.11183 15.6845 6.18038C15.0316 6.64753 14.4894 7.25248 14.0963 7.95241C13.7032 8.65234 13.4687 9.43014 13.4095 10.2307C13.1625 10.1825 12.9114 10.1578 12.6596 10.1569H10.7549C10.5917 10.157 10.4353 10.2218 10.3199 10.3372C10.2046 10.4526 10.1397 10.609 10.1396 10.7721V11.5044C10.1409 12.5607 10.561 13.5733 11.3078 14.3202C12.0547 15.067 13.0673 15.4871 14.1236 15.4884ZM20.6865 11.3874V11.5044C20.6857 12.2344 20.3953 12.9343 19.8791 13.4505C19.3629 13.9667 18.6631 14.257 17.9331 14.2579H16.6436V14.1412C16.6444 13.4111 16.9347 12.7112 17.4509 12.195C17.9671 11.6787 18.667 11.3883 19.397 11.3874H20.6865ZM16.0283 7.46499C16.471 7.87478 16.8246 8.3712 17.0673 8.92343C17.31 9.47567 17.4366 10.0719 17.4391 10.6751C16.8648 10.9988 16.3799 11.4603 16.0283 12.0181C15.6768 11.4603 15.1919 10.9988 14.6175 10.6751C14.62 10.0719 14.7466 9.47567 14.9893 8.92343C15.232 8.3712 15.5857 7.87478 16.0283 7.46499ZM11.3701 11.3874H12.6596C13.3897 11.3883 14.0895 11.6787 14.6057 12.195C15.1219 12.7112 15.4122 13.4111 15.4131 14.1412V14.2579H14.1236C13.3936 14.257 12.6937 13.9667 12.1775 13.4505C11.6613 12.9343 11.371 12.2344 11.3701 11.5044V11.3874Z" fill="#5DB93D"/>
<path d="M20.334 30.8762H20.9787V31.5213C20.9787 32.0575 21.1917 32.5716 21.5708 32.9507C21.9499 33.3298 22.4641 33.5428 23.0002 33.5428C23.5364 33.5428 24.0505 33.3298 24.4296 32.9507C24.8087 32.5716 25.0217 32.0575 25.0217 31.5213V30.8762H25.6665C26.2026 30.8762 26.7168 30.6632 27.0959 30.2841C27.475 29.905 27.688 29.3909 27.688 28.8547C27.688 28.3186 27.475 27.8044 27.0959 27.4253C26.7168 27.0462 26.2026 26.8332 25.6665 26.8332H25.0217V26.1885C25.0217 25.6523 24.8087 25.1382 24.4296 24.7591C24.0505 24.38 23.5364 24.167 23.0002 24.167C22.4641 24.167 21.9499 24.38 21.5708 24.7591C21.1917 25.1382 20.9787 25.6523 20.9787 26.1885V26.8332H20.334C19.7979 26.8332 19.2837 27.0462 18.9046 27.4253C18.5255 27.8044 18.3125 28.3186 18.3125 28.8547C18.3125 29.3909 18.5255 29.905 18.9046 30.2841C19.2837 30.6632 19.7979 30.8762 20.334 30.8762ZM20.334 28.0637H21.594C21.7572 28.0637 21.9136 27.9989 22.029 27.8835C22.1444 27.7681 22.2092 27.6116 22.2092 27.4485V26.1885C22.2092 25.9787 22.2926 25.7775 22.4409 25.6291C22.5892 25.4808 22.7904 25.3975 23.0002 25.3975C23.21 25.3975 23.4112 25.4808 23.5596 25.6291C23.7079 25.7775 23.7912 25.9787 23.7912 26.1885V27.4485C23.7912 27.6116 23.8561 27.7681 23.9714 27.8835C24.0868 27.9989 24.2433 28.0637 24.4065 28.0637H25.6665C25.8763 28.0637 26.0775 28.1471 26.2258 28.2954C26.3742 28.4437 26.4575 28.6449 26.4575 28.8547C26.4575 29.0645 26.3742 29.2657 26.2258 29.4141C26.0775 29.5624 25.8763 29.6457 25.6665 29.6457H24.4065C24.2433 29.6457 24.0868 29.7106 23.9714 29.8259C23.8561 29.9413 23.7912 30.0978 23.7912 30.261V31.5213C23.7912 31.7311 23.7079 31.9323 23.5596 32.0807C23.4112 32.229 23.21 32.3123 23.0002 32.3123C22.7904 32.3123 22.5892 32.229 22.4409 32.0807C22.2926 31.9323 22.2092 31.7311 22.2092 31.5213V30.261C22.2092 30.0978 22.1444 29.9413 22.029 29.8259C21.9136 29.7106 21.7572 29.6457 21.594 29.6457H20.334C20.1242 29.6457 19.923 29.5624 19.7747 29.4141C19.6263 29.2657 19.543 29.0645 19.543 28.8547C19.543 28.6449 19.6263 28.4437 19.7747 28.2954C19.923 28.1471 20.1242 28.0637 20.334 28.0637Z" fill="#5DB93D"/>
</svg>
