<svg width="25" height="26" viewBox="0 0 25 26" fill="none" xmlns="http://www.w3.org/2000/svg">
<path d="M22.955 18.9023C22.2722 18.3297 18.2675 15.7938 17.6019 15.9102C17.2894 15.9656 17.0503 16.232 16.4104 16.9953C16.1146 17.371 15.7896 17.7229 15.4386 18.0477C14.7954 17.8923 14.1729 17.6615 13.5839 17.3602C11.274 16.2355 9.40782 14.3689 8.28389 12.0586C7.98251 11.4696 7.75175 10.847 7.59639 10.2039C7.92118 9.85289 8.27304 9.52793 8.64873 9.23203C9.41123 8.59219 9.67842 8.35469 9.73389 8.04062C9.85029 7.37344 7.31201 3.37031 6.7417 2.6875C6.50264 2.40469 6.28545 2.21484 6.00732 2.21484C5.20107 2.21484 1.5542 6.72422 1.5542 7.30859C1.5542 7.35625 1.63232 12.0508 7.56123 18.0828C13.5933 24.0117 18.2878 24.0898 18.3354 24.0898C18.9198 24.0898 23.4292 20.443 23.4292 19.6367C23.4292 19.3586 23.2394 19.1414 22.955 18.9023Z" fill="white"/>
<path d="M17.9604 12.3711H19.5229C19.5211 10.7141 18.862 9.12543 17.6903 7.95373C16.5186 6.78203 14.93 6.12295 13.2729 6.12109V7.68359C14.5158 7.68483 15.7073 8.17909 16.5861 9.0579C17.4649 9.93671 17.9592 11.1283 17.9604 12.3711Z" fill="white"/>
<path d="M21.8667 12.3711H23.4292C23.4261 9.67844 22.3551 7.09696 20.4511 5.19297C18.5471 3.28897 15.9656 2.21795 13.2729 2.21484V3.77734C15.5513 3.78003 17.7356 4.68631 19.3467 6.29736C20.9577 7.90842 21.864 10.0927 21.8667 12.3711Z" fill="white"/>
</svg>
