<svg width="46" height="46" viewBox="0 0 46 46" fill="none" xmlns="http://www.w3.org/2000/svg">
<path d="M38.0699 34.4536H34.9227C35.4061 33.2278 35.5627 31.8975 35.3772 30.5929C35.1916 29.2884 34.6703 28.0545 33.8644 27.0121C33.0584 25.9696 31.9954 25.1545 30.7796 24.6466C29.5638 24.1386 28.2369 23.9553 26.9289 24.1145V17.8915C26.9266 16.9616 26.5717 16.0671 25.9358 15.3886C25.2999 14.71 24.4304 14.2979 23.5026 14.2352V12.1491C23.949 12.1278 24.3702 11.9358 24.679 11.6127C24.9878 11.2897 25.1607 10.8603 25.162 10.4134V8.13247C25.1614 7.67008 24.9775 7.22678 24.6505 6.89982C24.3235 6.57286 23.8802 6.38892 23.4179 6.38837H10.0957C9.63335 6.38892 9.19005 6.57286 8.86309 6.89982C8.53613 7.22678 8.3522 7.67008 8.35164 8.13247V10.4138C8.35295 10.8607 8.52598 11.2901 8.83496 11.6131C9.14395 11.9361 9.56524 12.128 10.0117 12.1491V14.2335C9.08335 14.2958 8.21322 14.7081 7.57701 15.387C6.9408 16.066 6.5859 16.961 6.58398 17.8915V35.5856C6.58501 36.5597 6.9724 37.4935 7.66115 38.1823C8.34991 38.871 9.28377 39.2584 10.2578 39.2595H23.2551C23.9132 39.2603 24.5592 39.0833 25.125 38.7472C25.7492 39.0133 26.4091 39.1859 27.0836 39.2595H38.0699C38.4371 39.259 38.7892 39.1129 39.0489 38.8532C39.3085 38.5936 39.4546 38.2415 39.4551 37.8743V35.8388C39.4546 35.4715 39.3085 35.1195 39.0489 34.8598C38.7892 34.6002 38.4371 34.4541 38.0699 34.4536ZM34.2242 31.6379C34.2291 32.6136 34.0084 33.5773 33.5794 34.4536H27.0836C26.7164 34.4541 26.3643 34.6002 26.1047 34.8598C25.845 35.1195 25.6989 35.4715 25.6984 35.8388V37.6507C24.6011 37.2564 23.633 36.5686 22.8996 35.6621C22.1662 34.7556 21.6956 33.6652 21.5391 32.5097C21.3826 31.3542 21.5462 30.1779 22.0121 29.109C22.478 28.0401 23.2283 27.1195 24.1812 26.4476C25.1342 25.7756 26.2532 25.3781 27.4165 25.2982C28.5798 25.2184 29.7427 25.4593 30.7785 25.9947C31.8144 26.5302 32.6834 27.3396 33.291 28.3348C33.8985 29.3301 34.2213 30.473 34.2242 31.639V31.6379ZM7.81445 20.6231H25.6984V24.3757C23.9421 24.8906 22.4312 26.0231 21.4444 27.5645C20.4575 29.1058 20.0613 30.952 20.3287 32.7626H7.81445V20.6231ZM11.2422 12.1579H22.2721V14.2198H11.2422V12.1579ZM9.58211 10.4138V8.13247C9.5823 7.9963 9.63647 7.86576 9.73275 7.76948C9.82904 7.6732 9.95958 7.61902 10.0957 7.61884H23.4179C23.554 7.61902 23.6846 7.6732 23.7808 7.76948C23.8771 7.86576 23.9313 7.9963 23.9315 8.13247V10.4138C23.9313 10.55 23.8771 10.6805 23.7809 10.7769C23.6846 10.8732 23.5541 10.9275 23.4179 10.9277H10.0957C9.95954 10.9275 9.82901 10.8732 9.73273 10.7769C9.63646 10.6805 9.5823 10.55 9.58211 10.4138ZM10.2578 15.4516H23.2551C23.9024 15.4519 24.5232 15.709 24.9812 16.1664C25.4393 16.6238 25.6972 17.2442 25.6984 17.8915V19.3927H7.81445V17.8915C7.81566 17.2442 8.07359 16.6238 8.53165 16.1664C8.9897 15.709 9.61049 15.4519 10.2578 15.4516ZM10.2578 38.029C9.61002 38.0282 8.98898 37.7706 8.53092 37.3125C8.07286 36.8545 7.8152 36.2334 7.81445 35.5856V33.9931H20.6187C21.1502 35.6335 22.224 37.0442 23.6636 37.9935C23.5286 38.0165 23.392 38.0283 23.2551 38.0286L10.2578 38.029ZM38.2246 37.8743C38.2246 37.9153 38.2083 37.9547 38.1793 37.9837C38.1503 38.0127 38.1109 38.029 38.0699 38.029H27.059C26.975 38.029 26.9289 37.9917 26.9289 37.9042V35.8388C26.9289 35.7977 26.9452 35.7584 26.9742 35.7294C27.0032 35.7004 27.0426 35.6841 27.0836 35.6841H38.0699C38.1109 35.6841 38.1503 35.7004 38.1793 35.7294C38.2083 35.7584 38.2246 35.7977 38.2246 35.8388V37.8743Z" fill="#5DB93D"/>
<path d="M14.82 28.9802H10.0645C9.90128 28.9802 9.7448 29.045 9.62942 29.1604C9.51404 29.2757 9.44922 29.4322 9.44922 29.5954C9.44922 29.7586 9.51404 29.9151 9.62942 30.0304C9.7448 30.1458 9.90128 30.2106 10.0645 30.2106H14.82C14.9832 30.2106 15.1397 30.1458 15.2551 30.0304C15.3705 29.9151 15.4353 29.7586 15.4353 29.5954C15.4353 29.4322 15.3705 29.2757 15.2551 29.1604C15.1397 29.045 14.9832 28.9802 14.82 28.9802Z" fill="#5DB93D"/>
<path d="M14.82 26.0776H10.0645C9.90128 26.0776 9.7448 26.1425 9.62942 26.2578C9.51404 26.3732 9.44922 26.5297 9.44922 26.6929C9.44922 26.856 9.51404 27.0125 9.62942 27.1279C9.7448 27.2433 9.90128 27.3081 10.0645 27.3081H14.82C14.9832 27.3081 15.1397 27.2433 15.2551 27.1279C15.3705 27.0125 15.4353 26.856 15.4353 26.6929C15.4353 26.5297 15.3705 26.3732 15.2551 26.2578C15.1397 26.1425 14.9832 26.0776 14.82 26.0776Z" fill="#5DB93D"/>
<path d="M14.82 23.1755H10.0645C9.90128 23.1755 9.7448 23.2403 9.62942 23.3557C9.51404 23.4711 9.44922 23.6275 9.44922 23.7907C9.44922 23.9539 9.51404 24.1104 9.62942 24.2257C9.7448 24.3411 9.90128 24.4059 10.0645 24.4059H14.82C14.9832 24.4059 15.1397 24.3411 15.2551 24.2257C15.3705 24.1104 15.4353 23.9539 15.4353 23.7907C15.4353 23.6275 15.3705 23.4711 15.2551 23.3557C15.1397 23.2403 14.9832 23.1755 14.82 23.1755Z" fill="#5DB93D"/>
</svg>
