<svg width="81" height="81" viewBox="0 0 81 81" fill="none" xmlns="http://www.w3.org/2000/svg">
<path d="M41.2745 30.3688C40.9358 30.0302 40.5338 29.7615 40.0913 29.5783C39.6489 29.395 39.1746 29.3007 38.6957 29.3007C38.2168 29.3007 37.7426 29.395 37.3001 29.5783C36.8576 29.7615 36.4556 30.0302 36.117 30.3688L30.1389 36.3469C29.7998 36.6854 29.5308 37.0875 29.3473 37.53C29.1638 37.9725 29.0693 38.4469 29.0693 38.926C29.0693 39.4051 29.1638 39.8795 29.3473 40.322C29.5308 40.7646 29.7998 41.1666 30.1389 41.5051L39.1539 50.5188C39.4925 50.8576 39.8945 51.1264 40.337 51.3098C40.7796 51.4932 41.2539 51.5876 41.7329 51.5876C42.2119 51.5876 42.6863 51.4932 43.1288 51.3098C43.5713 51.1264 43.9734 50.8576 44.312 50.5188L50.2901 44.5407C50.6292 44.2023 50.8982 43.8004 51.0818 43.3579C51.2653 42.9154 51.3598 42.441 51.3598 41.962C51.3598 41.4829 51.2653 41.0085 51.0818 40.566C50.8982 40.1235 50.6292 39.7216 50.2901 39.3832L41.2745 30.3688ZM48.7426 42.9938L42.7639 48.972C42.4899 49.2446 42.1191 49.3977 41.7326 49.3977C41.3461 49.3977 40.9753 49.2446 40.7013 48.972L31.687 39.9582C31.4143 39.6842 31.2612 39.3135 31.2612 38.927C31.2612 38.5404 31.4143 38.1697 31.687 37.8957L37.6645 31.9176C37.9384 31.6449 38.3092 31.4918 38.6957 31.4918C39.0822 31.4918 39.453 31.6449 39.727 31.9176L48.7439 40.9295C49.017 41.2037 49.1703 41.5749 49.1703 41.962C49.1703 42.349 49.017 42.7202 48.7439 42.9945L48.7426 42.9938Z" fill="#5DB93D"/>
<path d="M58.4582 40.432L65.9163 32.9682C67.048 31.8388 67.9458 30.4972 68.5584 29.0203C69.171 27.5434 69.4863 25.9602 69.4863 24.3613C69.4863 22.7625 69.171 21.1793 68.5584 19.7024C67.9458 18.2255 67.048 16.8839 65.9163 15.7545L64.8757 14.7082C62.5885 12.4308 59.4923 11.1522 56.2647 11.1522C53.0371 11.1522 49.9409 12.4308 47.6538 14.7082L40.1988 22.172L32.735 14.7082C30.4496 12.4302 27.3544 11.151 24.1275 11.151C20.9007 11.151 17.8054 12.4302 15.52 14.7082L14.4763 15.7526C12.197 18.0374 10.917 21.1328 10.917 24.3601C10.917 27.5873 12.197 30.6828 14.4763 32.9676L21.9394 40.4313L14.4763 47.8901C12.197 50.1748 10.917 53.2703 10.917 56.4976C10.917 59.7248 12.197 62.8203 14.4763 65.1051L15.5207 66.1495C17.8059 68.4275 20.9011 69.7066 24.1278 69.7066C27.3546 69.7066 30.4497 68.4275 32.735 66.1495L40.1994 58.6907L47.6575 66.1495C49.9448 68.4273 53.0414 69.7062 56.2694 69.7062C59.4974 69.7062 62.594 68.4273 64.8813 66.1495L65.9169 65.1076C67.049 63.9782 67.9472 62.6366 68.5601 61.1596C69.1729 59.6826 69.4884 58.0992 69.4884 56.5001C69.4884 54.901 69.1729 53.3176 68.5601 51.8406C67.9472 50.3636 67.049 49.022 65.9169 47.8926L58.4582 40.432ZM49.2032 16.2557C51.0794 14.3886 53.6187 13.3405 56.2657 13.3405C58.9126 13.3405 61.4519 14.3886 63.3282 16.2557L64.3707 17.3007C65.2992 18.2272 66.0359 19.3277 66.5386 20.5393C67.0413 21.7508 67.3 23.0496 67.3 24.3613C67.3 25.6731 67.0413 26.9719 66.5386 28.1834C66.0359 29.395 65.2992 30.4955 64.3707 31.422L56.9119 38.8851L41.7456 23.7195L49.2032 16.2557ZM38.6494 57.1438L31.1888 64.6026C29.3137 66.472 26.774 67.5217 24.1263 67.5217C21.4786 67.5217 18.9388 66.472 17.0638 64.6026L16.02 63.5588C14.1509 61.6843 13.1012 59.1451 13.1012 56.4979C13.1012 53.8507 14.1509 51.3115 16.02 49.437L23.4869 41.9782L38.6494 57.1438ZM64.3682 63.5582L63.3338 64.5995C61.4572 66.4677 58.9171 67.5166 56.2691 67.5166C53.6211 67.5166 51.0809 66.4677 49.2044 64.5995C38.1419 53.537 27.0207 42.4157 16.0232 31.4182C14.153 29.5436 13.1028 27.0037 13.1028 24.3557C13.1028 21.7078 14.153 19.1679 16.0232 17.2932L17.0663 16.2501C18.9409 14.38 21.4808 13.3297 24.1288 13.3297C26.7767 13.3297 29.3166 14.38 31.1913 16.2501L64.3731 49.432C65.3023 50.3587 66.0395 51.4596 66.5424 52.6717C67.0453 53.8839 67.304 55.1833 67.3038 56.4956C67.3036 57.8079 67.0443 59.1073 66.541 60.3192C66.0377 61.5312 65.3002 62.6319 64.3707 63.5582H64.3682Z" fill="#5DB93D"/>
<path d="M57.8837 54.8232C58.4049 54.8232 58.8274 54.4006 58.8274 53.8794C58.8274 53.3582 58.4049 52.9357 57.8837 52.9357C57.3625 52.9357 56.9399 53.3582 56.9399 53.8794C56.9399 54.4006 57.3625 54.8232 57.8837 54.8232Z" fill="#5DB93D"/>
<path d="M53.9415 49.9357C54.0735 49.8037 54.1635 49.6356 54.1999 49.4525C54.2364 49.2694 54.2177 49.0796 54.1463 48.9071C54.0748 48.7347 53.9539 48.5873 53.7987 48.4835C53.6435 48.3798 53.461 48.3245 53.2743 48.3245C53.0876 48.3245 52.9052 48.3798 52.75 48.4835C52.5947 48.5873 52.4738 48.7347 52.4024 48.9071C52.3309 49.0796 52.3123 49.2694 52.3487 49.4525C52.3852 49.6356 52.4751 49.8037 52.6071 49.9357C52.6947 50.0234 52.7987 50.0929 52.9132 50.1403C53.0277 50.1878 53.1504 50.2122 53.2743 50.2122C53.3982 50.2122 53.5209 50.1878 53.6354 50.1403C53.7499 50.0929 53.8539 50.0234 53.9415 49.9357Z" fill="#5DB93D"/>
<path d="M52.9818 57.4449C52.8499 57.5769 52.76 57.7451 52.7237 57.9281C52.6873 58.1112 52.706 58.3009 52.7774 58.4734C52.8489 58.6458 52.9699 58.7931 53.125 58.8968C53.2802 59.0005 53.4627 59.0558 53.6493 59.0558C53.836 59.0558 54.0184 59.0005 54.1736 58.8968C54.3288 58.7931 54.4497 58.6458 54.5212 58.4734C54.5926 58.3009 54.6113 58.1112 54.575 57.9281C54.5386 57.7451 54.4488 57.5769 54.3168 57.4449C54.2292 57.3572 54.1251 57.2877 54.0106 57.2402C53.8961 57.1928 53.7733 57.1683 53.6493 57.1683C53.5253 57.1683 53.4026 57.1928 53.2881 57.2402C53.1735 57.2877 53.0695 57.3572 52.9818 57.4449Z" fill="#5DB93D"/>
<path d="M57.404 57.6321C57.272 57.7641 57.1821 57.9322 57.1456 58.1153C57.1092 58.2984 57.1278 58.4882 57.1992 58.6606C57.2707 58.8331 57.3916 58.9805 57.5468 59.0843C57.702 59.188 57.8845 59.2433 58.0712 59.2433C58.2579 59.2433 58.4403 59.188 58.5956 59.0843C58.7508 58.9805 58.8717 58.8331 58.9431 58.6606C59.0146 58.4882 59.0332 58.2984 58.9968 58.1153C58.9603 57.9322 58.8704 57.7641 58.7384 57.6321C58.5614 57.4552 58.3214 57.3558 58.0712 57.3558C57.821 57.3558 57.581 57.4552 57.404 57.6321Z" fill="#5DB93D"/>
<path d="M54.1285 54.3594C54.2605 54.2274 54.3505 54.0593 54.3869 53.8762C54.4234 53.6931 54.4047 53.5033 54.3333 53.3309C54.2619 53.1584 54.1409 53.011 53.9857 52.9073C53.8305 52.8035 53.648 52.7482 53.4613 52.7482C53.2747 52.7482 53.0922 52.8035 52.937 52.9073C52.7818 53.011 52.6608 53.1584 52.5894 53.3309C52.518 53.5033 52.4993 53.6931 52.5357 53.8762C52.5722 54.0593 52.6621 54.2274 52.7941 54.3594C52.9711 54.5363 53.2111 54.6357 53.4613 54.6357C53.7116 54.6357 53.9515 54.5363 54.1285 54.3594Z" fill="#5DB93D"/>
<path d="M48.372 52.8367C48.24 52.9687 48.1502 53.1369 48.1138 53.32C48.0774 53.503 48.0961 53.6927 48.1676 53.8652C48.239 54.0376 48.36 54.185 48.5152 54.2886C48.6704 54.3923 48.8528 54.4477 49.0395 54.4477C49.2261 54.4477 49.4085 54.3923 49.5637 54.2886C49.7189 54.185 49.8399 54.0376 49.9113 53.8652C49.9828 53.6927 50.0015 53.503 49.9651 53.32C49.9287 53.1369 49.8389 52.9687 49.707 52.8367C49.5298 52.66 49.2897 52.5607 49.0395 52.5607C48.7892 52.5607 48.5491 52.66 48.372 52.8367Z" fill="#5DB93D"/>
<path d="M21.871 26.3367C21.739 26.4687 21.6492 26.6369 21.6128 26.82C21.5764 27.003 21.5952 27.1927 21.6666 27.3652C21.7381 27.5376 21.859 27.685 22.0142 27.7886C22.1694 27.8923 22.3518 27.9477 22.5385 27.9477C22.7251 27.9477 22.9076 27.8923 23.0627 27.7886C23.2179 27.685 23.3389 27.5376 23.4103 27.3652C23.4818 27.1927 23.5005 27.003 23.4641 26.82C23.4278 26.6369 23.3379 26.4687 23.206 26.3367C23.0288 26.16 22.7888 26.0607 22.5385 26.0607C22.2882 26.0607 22.0481 26.16 21.871 26.3367Z" fill="#5DB93D"/>
<path d="M27.1488 32.5558C27.67 32.5558 28.0926 32.1333 28.0926 31.6121C28.0926 31.0909 27.67 30.6683 27.1488 30.6683C26.6276 30.6683 26.2051 31.0909 26.2051 31.6121C26.2051 32.1333 26.6276 32.5558 27.1488 32.5558Z" fill="#5DB93D"/>
<path d="M27.4413 23.4351C27.5733 23.3031 27.6631 23.135 27.6995 22.9519C27.7359 22.7689 27.7171 22.5791 27.6457 22.4067C27.5742 22.2343 27.4533 22.0869 27.2981 21.9832C27.1429 21.8796 26.9605 21.8242 26.7738 21.8242C26.5872 21.8242 26.4047 21.8796 26.2496 21.9832C26.0944 22.0869 25.9734 22.2343 25.902 22.4067C25.8305 22.5791 25.8118 22.7689 25.8482 22.9519C25.8846 23.135 25.9744 23.3031 26.1063 23.4351C26.2834 23.6121 26.5235 23.7115 26.7738 23.7115C27.0242 23.7115 27.2642 23.6121 27.4413 23.4351Z" fill="#5DB93D"/>
<path d="M23.019 23.2476C23.1509 23.1156 23.2407 22.9475 23.2771 22.7644C23.3135 22.5814 23.2948 22.3916 23.2233 22.2192C23.1519 22.0468 23.0309 21.8994 22.8757 21.7957C22.7205 21.6921 22.5381 21.6367 22.3515 21.6367C22.1648 21.6367 21.9824 21.6921 21.8272 21.7957C21.672 21.8994 21.551 22.0468 21.4796 22.2192C21.4082 22.3916 21.3894 22.5814 21.4258 22.7644C21.4622 22.9475 21.552 23.1156 21.684 23.2476C21.7716 23.3354 21.8756 23.405 21.9901 23.4525C22.1047 23.5 22.2275 23.5245 22.3515 23.5245C22.4755 23.5245 22.5982 23.5 22.7128 23.4525C22.8273 23.405 22.9314 23.3354 23.019 23.2476Z" fill="#5DB93D"/>
<path d="M27.6288 27.8591C27.7608 27.7271 27.8506 27.5589 27.887 27.3759C27.9234 27.1928 27.9046 27.0031 27.8332 26.8307C27.7617 26.6582 27.6408 26.5109 27.4856 26.4072C27.3304 26.3035 27.148 26.2482 26.9613 26.2482C26.7747 26.2482 26.5922 26.3035 26.4371 26.4072C26.2819 26.5109 26.1609 26.6582 26.0895 26.8307C26.018 27.0031 25.9993 27.1928 26.0357 27.3759C26.0721 27.5589 26.1619 27.7271 26.2938 27.8591C26.4709 28.036 26.711 28.1354 26.9613 28.1354C27.2117 28.1354 27.4517 28.036 27.6288 27.8591Z" fill="#5DB93D"/>
<path d="M31.3842 28.3232C31.9054 28.3232 32.3279 27.9006 32.3279 27.3794C32.3279 26.8582 31.9054 26.4357 31.3842 26.4357C30.863 26.4357 30.4404 26.8582 30.4404 27.3794C30.4404 27.9006 30.863 28.3232 31.3842 28.3232Z" fill="#5DB93D"/>
<path d="M27.4156 58.7796C27.5477 58.6476 27.6376 58.4794 27.674 58.2964C27.7105 58.1133 27.6918 57.9235 27.6204 57.751C27.549 57.5785 27.428 57.4311 27.2728 57.3274C27.1176 57.2237 26.9351 57.1683 26.7484 57.1683C26.5618 57.1683 26.3793 57.2237 26.2241 57.3274C26.0689 57.4311 25.9479 57.5785 25.8765 57.751C25.8051 57.9235 25.7864 58.1133 25.8229 58.2964C25.8593 58.4794 25.9492 58.6476 26.0813 58.7796C26.2582 58.9565 26.4982 59.0558 26.7484 59.0558C26.9987 59.0558 27.2386 58.9565 27.4156 58.7796Z" fill="#5DB93D"/>
<path d="M32.0245 54.1719C32.1565 54.0399 32.2465 53.8718 32.2829 53.6887C32.3194 53.5056 32.3007 53.3158 32.2293 53.1434C32.1579 52.9709 32.0369 52.8235 31.8817 52.7197C31.7265 52.616 31.544 52.5607 31.3573 52.5607C31.1707 52.5607 30.9882 52.616 30.833 52.7197C30.6778 52.8235 30.5568 52.9709 30.4854 53.1434C30.414 53.3158 30.3953 53.5056 30.4317 53.6887C30.4682 53.8718 30.5581 54.0399 30.6901 54.1719C30.8671 54.3488 31.1071 54.4482 31.3573 54.4482C31.6076 54.4482 31.8475 54.3488 32.0245 54.1719Z" fill="#5DB93D"/>
<path d="M23.1811 54.5466C23.313 54.4146 23.4028 54.2464 23.4392 54.0634C23.4756 53.8803 23.4569 53.6906 23.3854 53.5182C23.314 53.3457 23.193 53.1984 23.0378 53.0947C22.8827 52.991 22.7002 52.9357 22.5136 52.9357C22.3269 52.9357 22.1445 52.991 21.9893 53.0947C21.8341 53.1984 21.7132 53.3457 21.6417 53.5182C21.5703 53.6906 21.5515 53.8803 21.5879 54.0634C21.6243 54.2464 21.7141 54.4146 21.8461 54.5466C21.9337 54.6343 22.0378 54.7038 22.1523 54.7513C22.2668 54.7987 22.3896 54.8232 22.5136 54.8232C22.6375 54.8232 22.7603 54.7987 22.8748 54.7513C22.9894 54.7038 23.0934 54.6343 23.1811 54.5466Z" fill="#5DB93D"/>
<path d="M22.3266 59.2433C22.8478 59.2433 23.2703 58.8208 23.2703 58.2996C23.2703 57.7784 22.8478 57.3558 22.3266 57.3558C21.8053 57.3558 21.3828 57.7784 21.3828 58.2996C21.3828 58.8208 21.8053 59.2433 22.3266 59.2433Z" fill="#5DB93D"/>
<path d="M27.6034 54.3591C27.7354 54.2271 27.8252 54.0589 27.8616 53.8759C27.898 53.6928 27.8792 53.5031 27.8078 53.3306C27.7364 53.1582 27.6154 53.0109 27.4602 52.9072C27.305 52.8035 27.1226 52.7482 26.9359 52.7482C26.7493 52.7482 26.5669 52.8035 26.4117 52.9072C26.2565 53.0109 26.1355 53.1582 26.0641 53.3306C25.9926 53.5031 25.9739 53.6928 26.0103 53.8759C26.0467 54.0589 26.1365 54.2271 26.2684 54.3591C26.4456 54.5359 26.6857 54.6352 26.9359 54.6352C27.1862 54.6352 27.4263 54.5359 27.6034 54.3591Z" fill="#5DB93D"/>
<path d="M27.7914 49.9357C27.9234 49.8037 28.0132 49.6356 28.0496 49.4525C28.086 49.2695 28.0672 49.0797 27.9958 48.9073C27.9243 48.7349 27.8034 48.5875 27.6482 48.4838C27.493 48.3802 27.3106 48.3248 27.1239 48.3248C26.9373 48.3248 26.7548 48.3802 26.5997 48.4838C26.4445 48.5875 26.3235 48.7349 26.2521 48.9073C26.1806 49.0797 26.1619 49.2695 26.1983 49.4525C26.2347 49.6356 26.3245 49.8037 26.4564 49.9357C26.544 50.0235 26.6481 50.0931 26.7626 50.1406C26.8771 50.1881 26.9999 50.2126 27.1239 50.2126C27.2479 50.2126 27.3707 50.1881 27.4852 50.1406C27.5998 50.0931 27.7038 50.0235 27.7914 49.9357Z" fill="#5DB93D"/>
<path d="M52.9569 22.1014C52.825 22.2334 52.7351 22.4016 52.6988 22.5847C52.6624 22.7677 52.6811 22.9574 52.7525 23.1299C52.824 23.3023 52.945 23.4496 53.1001 23.5533C53.2553 23.657 53.4378 23.7123 53.6244 23.7123C53.8111 23.7123 53.9935 23.657 54.1487 23.5533C54.3039 23.4496 54.4248 23.3023 54.4963 23.1299C54.5677 22.9574 54.5864 22.7677 54.5501 22.5847C54.5137 22.4016 54.4239 22.2334 54.2919 22.1014C54.2043 22.0137 54.1003 21.944 53.9857 21.8965C53.8712 21.849 53.7484 21.8246 53.6244 21.8246C53.5004 21.8246 53.3776 21.849 53.2631 21.8965C53.1486 21.944 53.0445 22.0137 52.9569 22.1014Z" fill="#5DB93D"/>
<path d="M48.3471 26.7091C48.2151 26.8411 48.1253 27.0093 48.0889 27.1923C48.0525 27.3754 48.0712 27.5651 48.1427 27.7375C48.2141 27.9099 48.3351 28.0573 48.4903 28.161C48.6455 28.2647 48.8279 28.32 49.0146 28.32C49.2012 28.32 49.3836 28.2647 49.5388 28.161C49.694 28.0573 49.815 27.9099 49.8864 27.7375C49.9579 27.5651 49.9766 27.3754 49.9402 27.1923C49.9038 27.0093 49.814 26.8411 49.6821 26.7091C49.5945 26.6213 49.4904 26.5517 49.3759 26.5042C49.2613 26.4567 49.1385 26.4323 49.0146 26.4323C48.8906 26.4323 48.7678 26.4567 48.6532 26.5042C48.5387 26.5517 48.4347 26.6213 48.3471 26.7091Z" fill="#5DB93D"/>
<path d="M58.524 27.6685C58.656 27.5365 58.746 27.3683 58.7824 27.1853C58.8189 27.0022 58.8002 26.8124 58.7288 26.6399C58.6574 26.4675 58.5364 26.32 58.3812 26.2163C58.226 26.1126 58.0435 26.0573 57.8568 26.0573C57.6702 26.0573 57.4877 26.1126 57.3325 26.2163C57.1773 26.32 57.0563 26.4675 56.9849 26.6399C56.9135 26.8124 56.8948 27.0022 56.9313 27.1853C56.9677 27.3683 57.0576 27.5365 57.1896 27.6685C57.3666 27.8454 57.6066 27.9448 57.8568 27.9448C58.1071 27.9448 58.347 27.8454 58.524 27.6685Z" fill="#5DB93D"/>
<path d="M58.712 23.2483C58.844 23.1163 58.934 22.9482 58.9704 22.7651C59.0069 22.582 58.9882 22.3922 58.9168 22.2198C58.8454 22.0473 58.7244 21.8999 58.5692 21.7962C58.414 21.6924 58.2315 21.6371 58.0448 21.6371C57.8582 21.6371 57.6757 21.6924 57.5205 21.7962C57.3653 21.8999 57.2443 22.0473 57.1729 22.2198C57.1015 22.3922 57.0828 22.582 57.1192 22.7651C57.1557 22.9482 57.2456 23.1163 57.3776 23.2483C57.4652 23.336 57.5692 23.4055 57.6837 23.453C57.7982 23.5004 57.9209 23.5248 58.0448 23.5248C58.1688 23.5248 58.2915 23.5004 58.4059 23.453C58.5204 23.4055 58.6244 23.336 58.712 23.2483Z" fill="#5DB93D"/>
<path d="M53.4369 28.1323C53.9581 28.1323 54.3807 27.7097 54.3807 27.1885C54.3807 26.6673 53.9581 26.2448 53.4369 26.2448C52.9157 26.2448 52.4932 26.6673 52.4932 27.1885C52.4932 27.7097 52.9157 28.1323 53.4369 28.1323Z" fill="#5DB93D"/>
<path d="M52.5817 30.9446C52.4497 31.0766 52.3598 31.2447 52.3233 31.4278C52.2869 31.6109 52.3056 31.8007 52.377 31.9731C52.4484 32.1456 52.5694 32.293 52.7246 32.3968C52.8798 32.5005 53.0623 32.5558 53.2489 32.5558C53.4356 32.5558 53.6181 32.5005 53.7733 32.3968C53.9285 32.293 54.0495 32.1456 54.1209 31.9731C54.1923 31.8007 54.211 31.6109 54.1745 31.4278C54.1381 31.2447 54.0481 31.0766 53.9161 30.9446C53.7391 30.7677 53.4992 30.6683 53.2489 30.6683C52.9987 30.6683 52.7587 30.7677 52.5817 30.9446Z" fill="#5DB93D"/>
</svg>
