<svg width="46" height="46" viewBox="0 0 46 46" fill="none" xmlns="http://www.w3.org/2000/svg">
<path d="M39.2989 20.3837C39.299 20.0182 39.2271 19.6562 39.0871 19.3186C38.9472 18.981 38.742 18.6742 38.4834 18.416C38.2248 18.1577 37.9177 17.953 37.5799 17.8136C37.242 17.6742 36.88 17.6028 36.5145 17.6035H32.2173L34.5531 12.9042C35.1883 12.7018 35.7505 12.3184 36.1708 11.801C36.5911 11.2836 36.8511 10.6547 36.919 9.99154C36.9869 9.3284 36.8596 8.65987 36.5528 8.06806C36.246 7.47625 35.773 6.98691 35.192 6.66013C34.611 6.33335 33.9472 6.18337 33.2821 6.22859C32.6171 6.27381 31.9797 6.51227 31.4482 6.91469C30.9168 7.3171 30.5145 7.86596 30.2906 8.49385C30.0667 9.12175 30.0311 9.80135 30.1881 10.4492L25.6674 17.6035H9.21215C8.4745 17.6038 7.76708 17.8966 7.24509 18.4178C6.7231 18.939 6.42917 19.646 6.42777 20.3837C6.42496 20.9212 6.57964 21.4478 6.87272 21.8985C7.16579 22.3491 7.58444 22.7041 8.07695 22.9195V23.2144C8.06742 25.5598 8.62076 27.8733 9.6905 29.9605C10.7603 32.0478 12.3152 33.8479 14.2247 35.2097C14.0093 35.3908 13.836 35.6167 13.7171 35.8718C13.5983 36.1269 13.5367 36.4049 13.5367 36.6863V37.2608C13.5367 37.7736 13.7404 38.2654 14.1031 38.628C14.4657 38.9906 14.9575 39.1944 15.4703 39.1944H29.8946C30.4076 39.1944 30.8998 38.9907 31.2628 38.6282C31.6259 38.2657 31.8302 37.7738 31.831 37.2608V36.6863C31.8303 36.1913 31.6383 35.7156 31.2952 35.3588C33.2511 33.993 34.8496 32.1765 35.9556 30.0627C37.0616 27.9489 37.6427 25.6001 37.6497 23.2144V22.9251C38.1417 22.7074 38.5597 22.3512 38.8525 21.8998C39.1454 21.4485 39.3005 20.9217 39.2989 20.3837ZM31.3757 10.8746C31.4246 10.7972 31.4556 10.7099 31.4665 10.6191C31.4774 10.5282 31.4679 10.4361 31.4386 10.3494C31.2961 9.92923 31.2843 9.47572 31.405 9.04878C31.5257 8.62185 31.7731 8.24158 32.1145 7.95824C32.4559 7.6749 32.8752 7.50183 33.3171 7.46191C33.759 7.42198 34.2025 7.51707 34.5892 7.73462C34.9759 7.95217 35.2874 8.28193 35.4827 8.68032C35.6779 9.07871 35.7477 9.52697 35.6828 9.96585C35.6178 10.4047 35.4212 10.8136 35.119 11.1384C34.8167 11.4631 34.423 11.6885 33.9899 11.7848C33.9007 11.8049 33.8171 11.8446 33.7451 11.9011C33.6731 11.9575 33.6145 12.0292 33.5737 12.111L30.8438 17.6035H27.1228L31.3757 10.8746ZM30.5998 37.2594C30.5993 37.4462 30.5247 37.6252 30.3924 37.757C30.26 37.8889 30.0807 37.9628 29.8939 37.9625H15.4689C15.2824 37.9625 15.1036 37.8884 14.9717 37.7565C14.8399 37.6247 14.7658 37.4458 14.7658 37.2594V36.6849C14.7658 36.4984 14.8399 36.3196 14.9717 36.1877C15.1036 36.0559 15.2824 35.9818 15.4689 35.9818C31.2685 35.9818 29.8243 35.9737 30.032 35.9958C30.1919 36.0265 30.336 36.112 30.4397 36.2375C30.5433 36.363 30.5999 36.5207 30.5998 36.6835V37.2594ZM36.4192 23.2144C36.4125 25.5268 35.8173 27.7995 34.6898 29.8184C33.5622 31.8373 31.9393 33.536 29.974 34.7545C29.8991 34.751 30.5513 34.7545 15.747 34.7527C8.88344 30.515 9.32008 23.2144 9.30742 23.168H36.4192V23.2144ZM36.5145 21.9386H9.21215C8.80059 21.9386 8.40588 21.7751 8.11486 21.4841C7.82384 21.1931 7.66035 20.7984 7.66035 20.3868C7.66035 19.9753 7.82384 19.5806 8.11486 19.2895C8.40588 18.9985 8.80059 18.835 9.21215 18.835H36.5145C36.9261 18.835 37.3208 18.9985 37.6118 19.2895C37.9028 19.5806 38.0663 19.9753 38.0663 20.3868C38.0663 20.7984 37.9028 21.1931 37.6118 21.4841C37.3208 21.7751 36.9261 21.9386 36.5145 21.9386Z" fill="white"/>
<path d="M13.9868 15.5928H17.7964C18.8526 15.5916 19.8652 15.1715 20.6121 14.4246C21.3589 13.6778 21.7791 12.6652 21.7803 11.6089V10.8766C21.7802 10.7135 21.7153 10.5571 21.6 10.4417C21.4846 10.3263 21.3282 10.2615 21.165 10.2614H19.2603C19.0085 10.2622 18.7575 10.2869 18.5104 10.3352C18.4512 9.53463 18.2167 8.75684 17.8236 8.05691C17.4305 7.35697 16.8883 6.75202 16.2354 6.28488C16.1339 6.21632 16.0141 6.17969 15.8916 6.17969C15.7691 6.17969 15.6493 6.21632 15.5478 6.28488C14.8949 6.75202 14.3527 7.35697 13.9596 8.05691C13.5665 8.75684 13.332 9.53463 13.2728 10.3352C13.0257 10.287 12.7747 10.2622 12.5229 10.2614H10.6182C10.455 10.2615 10.2986 10.3263 10.1832 10.4417C10.0679 10.5571 10.003 10.7135 10.0029 10.8766V11.6089C10.0041 12.6652 10.4243 13.6778 11.1711 14.4246C11.918 15.1715 12.9306 15.5916 13.9868 15.5928ZM20.5498 11.4919V11.6089C20.549 12.3389 20.2586 13.0388 19.7424 13.555C19.2262 14.0712 18.5264 14.3615 17.7964 14.3624H16.5068V14.2457C16.5077 13.5156 16.798 12.8157 17.3142 12.2995C17.8304 11.7832 18.5302 11.4928 19.2603 11.4919H20.5498ZM15.8916 7.56948C16.3343 7.97927 16.6879 8.47569 16.9306 9.02793C17.1733 9.58016 17.2999 10.1764 17.3024 10.7796C16.728 11.1033 16.2432 11.5648 15.8916 12.1226C15.5401 11.5648 15.0552 11.1032 14.4808 10.7796C14.4833 10.1764 14.6099 9.58016 14.8526 9.02793C15.0953 8.47569 15.4489 7.97927 15.8916 7.56948ZM11.2334 11.4919H12.5229C13.253 11.4928 13.9528 11.7832 14.469 12.2995C14.9852 12.8157 15.2755 13.5156 15.2764 14.2457V14.3624H13.9868C13.2568 14.3615 12.557 14.0712 12.0408 13.555C11.5246 13.0388 11.2342 12.3389 11.2334 11.6089V11.4919Z" fill="white"/>
<path d="M20.1973 30.9807H20.842V31.6258C20.842 32.162 21.055 32.6761 21.4341 33.0552C21.8132 33.4343 22.3274 33.6473 22.8635 33.6473C23.3996 33.6473 23.9138 33.4343 24.2929 33.0552C24.672 32.6761 24.885 32.162 24.885 31.6258V30.9807H25.5298C26.0659 30.9807 26.5801 30.7677 26.9592 30.3886C27.3383 30.0095 27.5512 29.4953 27.5512 28.9592C27.5512 28.4231 27.3383 27.9089 26.9592 27.5298C26.5801 27.1507 26.0659 26.9377 25.5298 26.9377H24.885V26.293C24.885 25.7568 24.672 25.2427 24.2929 24.8636C23.9138 24.4845 23.3996 24.2715 22.8635 24.2715C22.3274 24.2715 21.8132 24.4845 21.4341 24.8636C21.055 25.2427 20.842 25.7568 20.842 26.293V26.9377H20.1973C19.6611 26.9377 19.147 27.1507 18.7679 27.5298C18.3888 27.9089 18.1758 28.4231 18.1758 28.9592C18.1758 29.4953 18.3888 30.0095 18.7679 30.3886C19.147 30.7677 19.6611 30.9807 20.1973 30.9807ZM20.1973 28.1682H21.4573C21.6204 28.1682 21.7769 28.1034 21.8923 27.988C22.0077 27.8726 22.0725 27.7161 22.0725 27.553V26.293C22.0725 26.0832 22.1558 25.882 22.3042 25.7336C22.4525 25.5853 22.6537 25.502 22.8635 25.502C23.0733 25.502 23.2745 25.5853 23.4228 25.7336C23.5712 25.882 23.6545 26.0832 23.6545 26.293V27.553C23.6545 27.7161 23.7194 27.8726 23.8347 27.988C23.9501 28.1034 24.1066 28.1682 24.2698 28.1682H25.5298C25.7396 28.1682 25.9408 28.2515 26.0891 28.3999C26.2374 28.5482 26.3208 28.7494 26.3208 28.9592C26.3208 29.169 26.2374 29.3702 26.0891 29.5186C25.9408 29.6669 25.7396 29.7502 25.5298 29.7502H24.2698C24.1066 29.7502 23.9501 29.8151 23.8347 29.9304C23.7194 30.0458 23.6545 30.2023 23.6545 30.3655V31.6258C23.6545 31.8356 23.5712 32.0368 23.4228 32.1852C23.2745 32.3335 23.0733 32.4168 22.8635 32.4168C22.6537 32.4168 22.4525 32.3335 22.3042 32.1852C22.1558 32.0368 22.0725 31.8356 22.0725 31.6258V30.3655C22.0725 30.2023 22.0077 30.0458 21.8923 29.9304C21.7769 29.8151 21.6204 29.7502 21.4573 29.7502H20.1973C19.9875 29.7502 19.7863 29.6669 19.6379 29.5186C19.4896 29.3702 19.4062 29.169 19.4062 28.9592C19.4062 28.7494 19.4896 28.5482 19.6379 28.3999C19.7863 28.2515 19.9875 28.1682 20.1973 28.1682Z" fill="white"/>
</svg>
