<svg width="36" height="36" viewBox="0 0 36 36" fill="none" xmlns="http://www.w3.org/2000/svg">
<path d="M31.1328 16.416C31.1329 16.1318 31.077 15.8503 30.9681 15.5876C30.8593 15.325 30.6997 15.0865 30.4986 14.8856C30.2974 14.6848 30.0586 14.5255 29.7958 14.4171C29.5331 14.3087 29.2515 14.2531 28.9672 14.2537H25.625L27.4417 10.5986C27.9357 10.4413 28.373 10.1431 28.6999 9.74062C29.0268 9.33818 29.2291 8.84904 29.2818 8.33327C29.3346 7.81749 29.2356 7.29752 28.997 6.83722C28.7584 6.37692 28.3905 5.99633 27.9386 5.74217C27.4867 5.48801 26.9704 5.37135 26.4532 5.40652C25.9359 5.4417 25.4401 5.62716 25.0268 5.94015C24.6135 6.25315 24.3005 6.68003 24.1264 7.1684C23.9523 7.65676 23.9246 8.18534 24.0467 8.68922L20.5306 14.2537H7.73206C7.15834 14.2539 6.60812 14.4817 6.20213 14.8871C5.79614 15.2924 5.56752 15.8423 5.56644 16.416C5.56425 16.8341 5.68455 17.2437 5.9125 17.5942C6.14045 17.9447 6.46606 18.2208 6.84913 18.3883V18.6177C6.84172 20.4419 7.27209 22.2413 8.10412 23.8647C8.93614 25.4881 10.1455 26.8882 11.6307 27.9474C11.4631 28.0882 11.3284 28.264 11.236 28.4624C11.1435 28.6608 11.0956 28.877 11.0956 29.0959V29.5427C11.0956 29.9415 11.2541 30.324 11.5361 30.6061C11.8181 30.8881 12.2007 31.0466 12.5995 31.0466H23.8184C24.2175 31.0466 24.6002 30.8882 24.8826 30.6062C25.165 30.3242 25.3239 29.9417 25.3245 29.5427V29.0959C25.324 28.7108 25.1747 28.3409 24.9078 28.0634C26.429 27.001 27.6723 25.5882 28.5326 23.9442C29.3928 22.3001 29.8447 20.4732 29.8501 18.6177V18.3927C30.2328 18.2234 30.5579 17.9463 30.7857 17.5953C31.0135 17.2442 31.1341 16.8345 31.1328 16.416ZM24.9704 9.02008C25.0084 8.95992 25.0325 8.89203 25.041 8.82136C25.0495 8.75068 25.0421 8.67902 25.0193 8.61157C24.9084 8.2848 24.8993 7.93207 24.9932 7.60001C25.087 7.26795 25.2795 6.97218 25.545 6.75181C25.8105 6.53144 26.1367 6.39683 26.4804 6.36577C26.824 6.33472 27.169 6.40868 27.4698 6.57788C27.7705 6.74709 28.0128 7.00357 28.1647 7.31343C28.3166 7.62328 28.3708 7.97193 28.3203 8.31328C28.2698 8.65464 28.1169 8.97263 27.8818 9.22523C27.6467 9.47783 27.3405 9.65315 27.0037 9.72801C26.9343 9.74367 26.8692 9.77455 26.8132 9.81844C26.7572 9.86233 26.7117 9.91811 26.6799 9.98176L24.5567 14.2537H21.6626L24.9704 9.02008ZM24.3669 29.5416C24.3665 29.6869 24.3085 29.8261 24.2056 29.9286C24.1026 30.0312 23.9632 30.0887 23.8178 30.0884H12.5984C12.4534 30.0884 12.3143 30.0308 12.2117 29.9283C12.1092 29.8257 12.0516 29.6866 12.0516 29.5416V29.0948C12.0516 28.9497 12.1092 28.8106 12.2117 28.7081C12.3143 28.6055 12.4534 28.5479 12.5984 28.5479C24.887 28.5479 23.7637 28.5416 23.9253 28.5588C24.0496 28.5827 24.1618 28.6492 24.2424 28.7468C24.323 28.8444 24.367 28.9671 24.3669 29.0937V29.5416ZM28.8931 18.6177C28.8879 20.4163 28.425 22.1839 27.548 23.7541C26.671 25.3244 25.4088 26.6456 23.8802 27.5933C23.8219 27.5906 24.3292 27.5933 12.8147 27.592C7.4764 24.2959 7.81601 18.6177 7.80616 18.5816H28.8931V18.6177ZM28.9672 17.6254H7.73206C7.41196 17.6254 7.10496 17.4983 6.87862 17.2719C6.65227 17.0456 6.52511 16.7386 6.52511 16.4185C6.52511 16.0984 6.65227 15.7914 6.87862 15.565C7.10496 15.3387 7.41196 15.2115 7.73206 15.2115H28.9672C29.2873 15.2115 29.5943 15.3387 29.8207 15.565C30.047 15.7914 30.1742 16.0984 30.1742 16.4185C30.1742 16.7386 30.047 17.0456 29.8207 17.2719C29.5943 17.4983 29.2873 17.6254 28.9672 17.6254Z" fill="white"/>
<path d="M11.4458 12.6905H14.4087C15.2302 12.6895 16.0178 12.3628 16.5987 11.7819C17.1796 11.201 17.5064 10.4134 17.5073 9.59189V9.02232C17.5073 8.89543 17.4568 8.77376 17.3671 8.68404C17.2774 8.59432 17.1557 8.54388 17.0288 8.5438H15.5473C15.3515 8.54445 15.1562 8.56368 14.9641 8.60123C14.918 7.97854 14.7357 7.37359 14.4299 6.8292C14.1242 6.28481 13.7024 5.81429 13.1947 5.45095C13.1157 5.39763 13.0225 5.36914 12.9272 5.36914C12.8319 5.36914 12.7388 5.39763 12.6598 5.45095C12.152 5.81429 11.7303 6.28481 11.4246 6.8292C11.1188 7.37359 10.9364 7.97854 10.8904 8.60123C10.6982 8.56369 10.503 8.54446 10.3072 8.5438H8.82568C8.6988 8.54388 8.57713 8.59432 8.4874 8.68404C8.39768 8.77376 8.34724 8.89543 8.34717 9.02232V9.59189C8.34811 10.4134 8.67487 11.201 9.25576 11.7819C9.83666 12.3628 10.6243 12.6895 11.4458 12.6905ZM16.5503 9.50084V9.59189C16.5496 10.1597 16.3238 10.704 15.9223 11.1055C15.5208 11.507 14.9765 11.7328 14.4087 11.7335H13.4058V11.6427C13.4064 11.0749 13.6322 10.5305 14.0337 10.129C14.4352 9.72746 14.9795 9.50156 15.5473 9.50084H16.5503ZM12.9272 6.45009C13.2715 6.76881 13.5466 7.15492 13.7354 7.58444C13.9241 8.01395 14.0226 8.47769 14.0246 8.94685C13.5778 9.19863 13.2007 9.55759 12.9272 9.99138C12.6538 9.55754 12.2767 9.19858 11.8299 8.94685C11.8319 8.47769 11.9304 8.01395 12.1191 7.58444C12.3079 7.15492 12.583 6.76881 12.9272 6.45009ZM9.3042 9.50084H10.3072C10.875 9.50156 11.4193 9.72746 11.8208 10.129C12.2223 10.5305 12.4481 11.0749 12.4487 11.6427V11.7335H11.4458C10.878 11.7328 10.3336 11.507 9.93217 11.1055C9.53069 10.704 9.30485 10.1597 9.3042 9.59189V9.50084Z" fill="white"/>
<path d="M16.2759 24.6597H16.7774V25.1614C16.7774 25.5784 16.943 25.9783 17.2379 26.2732C17.5327 26.5681 17.9326 26.7337 18.3496 26.7337C18.7666 26.7337 19.1665 26.5681 19.4614 26.2732C19.7562 25.9783 19.9219 25.5784 19.9219 25.1614V24.6597H20.4234C20.8404 24.6597 21.2403 24.494 21.5351 24.1992C21.83 23.9043 21.9956 23.5044 21.9956 23.0874C21.9956 22.6704 21.83 22.2705 21.5351 21.9757C21.2403 21.6808 20.8404 21.5152 20.4234 21.5152H19.9219V21.0137C19.9219 20.5967 19.7562 20.1968 19.4614 19.9019C19.1665 19.6071 18.7666 19.4414 18.3496 19.4414C17.9326 19.4414 17.5327 19.6071 17.2379 19.9019C16.943 20.1968 16.7774 20.5967 16.7774 21.0137V21.5152H16.2759C15.8589 21.5152 15.459 21.6808 15.1641 21.9757C14.8693 22.2705 14.7036 22.6704 14.7036 23.0874C14.7036 23.5044 14.8693 23.9043 15.1641 24.1992C15.459 24.494 15.8589 24.6597 16.2759 24.6597ZM16.2759 22.4722H17.2559C17.3828 22.4722 17.5045 22.4218 17.5942 22.332C17.684 22.2423 17.7344 22.1206 17.7344 21.9937V21.0137C17.7344 20.8505 17.7992 20.694 17.9146 20.5786C18.03 20.4633 18.1865 20.3984 18.3496 20.3984C18.5128 20.3984 18.6693 20.4633 18.7847 20.5786C18.9 20.694 18.9649 20.8505 18.9649 21.0137V21.9937C18.9649 22.1206 19.0153 22.2423 19.105 22.332C19.1948 22.4218 19.3165 22.4722 19.4434 22.4722H20.4234C20.5865 22.4722 20.743 22.537 20.8584 22.6524C20.9738 22.7678 21.0386 22.9243 21.0386 23.0874C21.0386 23.2506 20.9738 23.4071 20.8584 23.5225C20.743 23.6378 20.5865 23.7027 20.4234 23.7027H19.4434C19.3165 23.7027 19.1948 23.7531 19.105 23.8428C19.0153 23.9325 18.9649 24.0543 18.9649 24.1812V25.1614C18.9649 25.3246 18.9 25.4811 18.7847 25.5965C18.6693 25.7119 18.5128 25.7767 18.3496 25.7767C18.1865 25.7767 18.03 25.7119 17.9146 25.5965C17.7992 25.4811 17.7344 25.3246 17.7344 25.1614V24.1812C17.7344 24.0543 17.684 23.9325 17.5942 23.8428C17.5045 23.7531 17.3828 23.7027 17.2559 23.7027H16.2759C16.1127 23.7027 15.9562 23.6378 15.8408 23.5225C15.7255 23.4071 15.6606 23.2506 15.6606 23.0874C15.6606 22.9243 15.7255 22.7678 15.8408 22.6524C15.9562 22.537 16.1127 22.4722 16.2759 22.4722Z" fill="white"/>
</svg>
