<svg width="46" height="46" viewBox="0 0 46 46" fill="none" xmlns="http://www.w3.org/2000/svg">
<path d="M38.0504 34.1424H34.9032C35.3866 32.9166 35.5432 31.5862 35.3576 30.2817C35.1721 28.9772 34.6508 27.7433 33.8449 26.7008C33.0389 25.6584 31.9759 24.8433 30.7601 24.3353C29.5443 23.8274 28.2174 23.644 26.9094 23.8033V17.5803C26.907 16.6504 26.5521 15.7559 25.9163 15.0774C25.2804 14.3988 24.4109 13.9867 23.483 13.924V11.8379C23.9295 11.8166 24.3506 11.6246 24.6595 11.3015C24.9683 10.9785 25.1412 10.5491 25.1424 10.1022V7.82125C25.1419 7.35886 24.9579 6.91556 24.631 6.5886C24.304 6.26164 23.8607 6.07771 23.3983 6.07715H10.0762C9.61382 6.07771 9.17052 6.26164 8.84356 6.5886C8.5166 6.91556 8.33267 7.35886 8.33211 7.82125V10.1025C8.33341 10.5495 8.50645 10.9789 8.81543 11.3019C9.12441 11.6249 9.54571 11.8167 9.99219 11.8379V13.9223C9.06382 13.9846 8.19369 14.3968 7.55748 15.0758C6.92126 15.7548 6.56637 16.6498 6.56445 17.5803V35.2744C6.56548 36.2485 6.95287 37.1823 7.64162 37.8711C8.33038 38.5598 9.26424 38.9472 10.2383 38.9482H23.2355C23.8936 38.949 24.5397 38.7721 25.1055 38.436C25.7296 38.7021 26.3896 38.8747 27.0641 38.9482H38.0504C38.4176 38.9478 38.7697 38.8017 39.0293 38.542C39.289 38.2824 39.4351 37.9303 39.4355 37.5631V35.5275C39.4351 35.1603 39.289 34.8083 39.0293 34.5486C38.7697 34.2889 38.4176 34.1428 38.0504 34.1424ZM34.2046 31.3267C34.2095 32.3024 33.9889 33.266 33.5599 34.1424H27.0641C26.6968 34.1428 26.3448 34.2889 26.0851 34.5486C25.8255 34.8083 25.6794 35.1603 25.6789 35.5275V37.3395C24.5816 36.9452 23.6134 36.2574 22.88 35.3509C22.1466 34.4444 21.6761 33.354 21.5196 32.1985C21.3631 31.043 21.5267 29.8667 21.9926 28.7978C22.4584 27.7289 23.2087 26.8083 24.1617 26.1364C25.1146 25.4644 26.2337 25.0669 27.397 24.987C28.5603 24.9072 29.7232 25.1481 30.759 25.6835C31.7948 26.219 32.6639 27.0284 33.2714 28.0236C33.879 29.0189 34.2018 30.1617 34.2046 31.3278V31.3267ZM7.79492 20.3119H25.6789V24.0645C23.9226 24.5794 22.4117 25.7119 21.4249 27.2533C20.438 28.7946 20.0417 30.6408 20.3091 32.4514H7.79492V20.3119ZM11.2227 11.8466H22.2526V13.9086H11.2227V11.8466ZM9.56258 10.1025V7.82125C9.56276 7.68508 9.61694 7.55455 9.71322 7.45826C9.80951 7.36198 9.94004 7.3078 10.0762 7.30762H23.3983C23.5345 7.3078 23.665 7.36198 23.7613 7.45826C23.8576 7.55455 23.9118 7.68508 23.912 7.82125V10.1025C23.9118 10.2387 23.8576 10.3693 23.7613 10.4657C23.6651 10.562 23.5345 10.6162 23.3983 10.6165H10.0762C9.94001 10.6162 9.80948 10.562 9.7132 10.4657C9.61693 10.3693 9.56276 10.2387 9.56258 10.1025ZM10.2383 15.1404H23.2355C23.8829 15.1407 24.5037 15.3977 24.9617 15.8551C25.4198 16.3125 25.6777 16.933 25.6789 17.5803V19.0814H7.79492V17.5803C7.79613 16.933 8.05406 16.3125 8.51212 15.8551C8.97017 15.3977 9.59096 15.1407 10.2383 15.1404ZM10.2383 37.7178C9.59049 37.717 8.96944 37.4594 8.51139 37.0013C8.05333 36.5432 7.79567 35.9222 7.79492 35.2744V33.6818H20.5992C21.1307 35.3222 22.2045 36.733 23.6441 37.6823C23.5091 37.7053 23.3725 37.7171 23.2355 37.7174L10.2383 37.7178ZM38.2051 37.5631C38.2051 37.6041 38.1888 37.6435 38.1598 37.6725C38.1308 37.7015 38.0914 37.7178 38.0504 37.7178H27.0395C26.9554 37.7178 26.9094 37.6805 26.9094 37.593V35.5275C26.9094 35.4865 26.9257 35.4472 26.9547 35.4182C26.9837 35.3891 27.023 35.3729 27.0641 35.3729H38.0504C38.0914 35.3729 38.1308 35.3891 38.1598 35.4182C38.1888 35.4472 38.2051 35.4865 38.2051 35.5275V37.5631Z" fill="#5DB93D"/>
<path d="M14.8005 28.6689H10.0449C9.88175 28.6689 9.72526 28.7338 9.60989 28.8491C9.49451 28.9645 9.42969 29.121 9.42969 29.2842C9.42969 29.4473 9.49451 29.6038 9.60989 29.7192C9.72526 29.8346 9.88175 29.8994 10.0449 29.8994H14.8005C14.9637 29.8994 15.1202 29.8346 15.2355 29.7192C15.3509 29.6038 15.4157 29.4473 15.4157 29.2842C15.4157 29.121 15.3509 28.9645 15.2355 28.8491C15.1202 28.7338 14.9637 28.6689 14.8005 28.6689Z" fill="#5DB93D"/>
<path d="M14.8005 25.7664H10.0449C9.88175 25.7664 9.72526 25.8312 9.60989 25.9466C9.49451 26.0619 9.42969 26.2184 9.42969 26.3816C9.42969 26.5448 9.49451 26.7013 9.60989 26.8166C9.72526 26.932 9.88175 26.9968 10.0449 26.9968H14.8005C14.9637 26.9968 15.1202 26.932 15.2355 26.8166C15.3509 26.7013 15.4157 26.5448 15.4157 26.3816C15.4157 26.2184 15.3509 26.0619 15.2355 25.9466C15.1202 25.8312 14.9637 25.7664 14.8005 25.7664Z" fill="#5DB93D"/>
<path d="M14.8005 22.8643H10.0449C9.88175 22.8643 9.72526 22.9291 9.60989 23.0445C9.49451 23.1598 9.42969 23.3163 9.42969 23.4795C9.42969 23.6427 9.49451 23.7991 9.60989 23.9145C9.72526 24.0299 9.88175 24.0947 10.0449 24.0947H14.8005C14.9637 24.0947 15.1202 24.0299 15.2355 23.9145C15.3509 23.7991 15.4157 23.6427 15.4157 23.4795C15.4157 23.3163 15.3509 23.1598 15.2355 23.0445C15.1202 22.9291 14.9637 22.8643 14.8005 22.8643Z" fill="#5DB93D"/>
</svg>
