<svg width="46" height="46" viewBox="0 0 46 46" fill="none" xmlns="http://www.w3.org/2000/svg">
<path d="M31.3118 27.829C31.1191 27.6386 30.8902 27.4875 30.6384 27.3844C30.3865 27.2813 30.1165 27.2283 29.8439 27.2283C29.5713 27.2283 29.3013 27.2813 29.0494 27.3844C28.7976 27.4875 28.5687 27.6386 28.376 27.829L26.3545 29.8266C26.0208 30.1555 25.5687 30.3402 25.0974 30.3402C24.6261 30.3402 24.174 30.1555 23.8404 29.8266L15.5969 21.682C15.264 21.3524 15.077 20.9058 15.077 20.4403C15.077 19.9747 15.264 19.5281 15.5969 19.1985L17.6188 17.2017C18.0075 16.8168 18.2258 16.2953 18.2258 15.7516C18.2258 15.208 18.0075 14.6865 17.6188 14.3016L13.637 10.3697C13.4443 10.1792 13.2155 10.028 12.9636 9.92481C12.7117 9.82165 12.4417 9.76855 12.1691 9.76855C11.8964 9.76855 11.6264 9.82165 11.3745 9.92481C11.1226 10.028 10.8938 10.1792 10.7011 10.3697L8.57426 12.471C7.13779 13.893 6.33105 15.8198 6.33105 17.8287C6.33105 19.8375 7.13779 21.7643 8.57426 23.1863L22.3174 36.7619C23.0294 37.466 23.8749 38.0246 24.8055 38.4057C25.7362 38.7868 26.7338 38.983 27.7412 38.983C28.7487 38.983 29.7463 38.7868 30.6769 38.4057C31.6076 38.0246 32.4531 37.466 33.165 36.7619L35.2922 34.661C35.6809 34.2761 35.8992 33.7546 35.8992 33.2109C35.8992 32.6673 35.6809 32.1458 35.2922 31.7609L31.3118 27.829ZM34.4114 33.7908L32.2845 35.8921C31.6881 36.4818 30.9799 36.9496 30.2004 37.2688C29.4208 37.5879 28.5852 37.7522 27.7414 37.7522C26.8976 37.7522 26.062 37.5879 25.2825 37.2688C24.5029 36.9496 23.7947 36.4818 23.1983 35.8921L9.45476 22.3162C8.85771 21.7271 8.38407 21.0275 8.06091 20.2575C7.73775 19.4875 7.57141 18.6621 7.57141 17.8285C7.57141 16.9949 7.73775 16.1695 8.06091 15.3995C8.38407 14.6294 8.85771 13.9299 9.45476 13.3408L11.582 11.2395C11.6591 11.1633 11.7506 11.1028 11.8514 11.0615C11.9521 11.0203 12.0602 10.999 12.1692 10.999C12.2783 10.999 12.3863 11.0203 12.4871 11.0615C12.5879 11.1028 12.6794 11.1633 12.7565 11.2395L16.7358 15.1714C16.8913 15.3253 16.9787 15.534 16.9787 15.7515C16.9787 15.969 16.8913 16.1776 16.7358 16.3315L14.7147 18.3288C14.1483 18.8891 13.8302 19.6485 13.8302 20.4403C13.8302 21.232 14.1483 21.9915 14.7147 22.5517L22.9599 30.6964C23.5271 31.2558 24.2958 31.5701 25.0974 31.5701C25.899 31.5701 26.6678 31.2558 27.235 30.6964L29.2568 28.6999C29.4151 28.5508 29.6254 28.4676 29.8441 28.4676C30.0628 28.4676 30.2731 28.5508 30.4313 28.6999L34.4114 32.6307C34.5669 32.7846 34.6542 32.9933 34.6542 33.2108C34.6542 33.4283 34.5669 33.6369 34.4114 33.7908Z" fill="#5DB93D"/>
<path d="M34.7507 12.5073H33.1288V10.9053C33.1281 10.6444 33.0229 10.3944 32.8362 10.2099C32.6495 10.0255 32.3964 9.92155 32.1323 9.9209H29.8844C29.6203 9.92155 29.3672 10.0255 29.1805 10.2099C28.9937 10.3944 28.8885 10.6444 28.8879 10.9053V12.5073H27.2646C27.0005 12.5079 26.7473 12.6118 26.5606 12.7963C26.3738 12.9808 26.2686 13.2308 26.2681 13.4917V15.7108C26.2686 15.9717 26.3738 16.2217 26.5606 16.4062C26.7473 16.5907 27.0005 16.6946 27.2646 16.6952H28.8864V18.2972C28.887 18.5581 28.9922 18.8082 29.1789 18.9927C29.3657 19.1772 29.6188 19.281 29.883 19.2816H32.1294C32.3936 19.281 32.6467 19.1772 32.8335 18.9927C33.0202 18.8082 33.1254 18.5581 33.126 18.2972V16.698H34.7478C35.0119 16.6973 35.265 16.5934 35.4517 16.4089C35.6385 16.2245 35.7437 15.9745 35.7443 15.7136V13.4931C35.7441 13.2325 35.6394 12.9826 35.4532 12.7979C35.2671 12.6132 35.0145 12.5087 34.7507 12.5073ZM34.5015 15.4675H32.506C32.4242 15.4675 32.3432 15.4833 32.2676 15.5142C32.192 15.5451 32.1233 15.5905 32.0655 15.6476C32.0076 15.7047 31.9617 15.7726 31.9305 15.8472C31.8992 15.9219 31.8831 16.0019 31.8831 16.0827V18.055H30.1321V16.0827C30.1322 16.0019 30.1161 15.9219 30.0848 15.8472C30.0535 15.7726 30.0076 15.7047 29.9498 15.6476C29.8919 15.5905 29.8233 15.5451 29.7477 15.5142C29.6721 15.4833 29.5911 15.4675 29.5093 15.4675H27.5127V13.7378H29.5093C29.5911 13.7379 29.6721 13.722 29.7477 13.6911C29.8233 13.6602 29.8919 13.6149 29.9498 13.5577C30.0076 13.5006 30.0535 13.4327 30.0848 13.3581C30.1161 13.2834 30.1322 13.2034 30.1321 13.1226V11.1503H31.8831V13.1226C31.8831 13.2034 31.8992 13.2834 31.9305 13.3581C31.9617 13.4327 32.0076 13.5006 32.0655 13.5577C32.1233 13.6149 32.192 13.6602 32.2676 13.6911C32.3432 13.722 32.4242 13.7379 32.506 13.7378H34.5026L34.5015 15.4675Z" fill="#5DB93D"/>
<path d="M31.0076 6.07715C29.6444 6.08028 28.301 6.40074 27.0866 7.01253C25.8721 7.62432 24.8208 8.51022 24.0177 9.5984C22.9479 11.0526 22.3734 12.8049 22.377 14.6025V22.5127C22.377 22.6759 22.4426 22.8324 22.5594 22.9477C22.6762 23.0631 22.8346 23.1279 22.9998 23.1279H31.0076C33.2966 23.1279 35.4918 22.2297 37.1104 20.6309C38.729 19.0321 39.6383 16.8636 39.6383 14.6025C39.6383 12.3415 38.729 10.173 37.1104 8.57418C35.4918 6.97536 33.2966 6.07715 31.0076 6.07715ZM31.0076 21.8975H23.6226C23.6226 21.8426 23.6226 14.6553 23.6226 14.6025C23.6226 13.1597 24.0558 11.7493 24.8672 10.5497C25.6787 9.35005 26.8321 8.41505 28.1815 7.86291C29.5309 7.31077 31.0158 7.16631 32.4484 7.44779C33.8809 7.72926 35.1968 8.42404 36.2296 9.44425C37.2624 10.4645 37.9657 11.7643 38.2507 13.1794C38.5356 14.5944 38.3894 16.0612 37.8304 17.3942C37.2715 18.7272 36.3249 19.8665 35.1105 20.668C33.896 21.4696 32.4682 21.8975 31.0076 21.8975Z" fill="#5DB93D"/>
</svg>
