<svg width="46" height="46" viewBox="0 0 46 46" fill="none" xmlns="http://www.w3.org/2000/svg">
<path d="M39.4356 20.7753C39.4357 20.4098 39.3638 20.0478 39.2238 19.7102C39.0839 19.3726 38.8787 19.0658 38.6201 18.8076C38.3615 18.5493 38.0544 18.3447 37.7166 18.2052C37.3787 18.0658 37.0167 17.9944 36.6512 17.9951H32.3541L34.6898 13.2958C35.325 13.0934 35.8872 12.71 36.3075 12.1926C36.7278 11.6752 36.9879 11.0463 37.0557 10.3831C37.1236 9.72 36.9963 9.05148 36.6895 8.45966C36.3827 7.86785 35.9098 7.37851 35.3287 7.05173C34.7477 6.72496 34.0839 6.57497 33.4189 6.62019C32.7538 6.66541 32.1164 6.90387 31.585 7.30629C31.0535 7.7087 30.6512 8.25756 30.4273 8.88545C30.2035 9.51335 30.1678 10.1929 30.3248 10.8408L25.8041 17.9951H9.34887C8.61122 17.9954 7.9038 18.2882 7.38181 18.8094C6.85982 19.3306 6.56589 20.0376 6.56449 20.7753C6.56167 21.3128 6.71636 21.8394 7.00943 22.2901C7.30251 22.7407 7.72116 23.0957 8.21367 23.3111V23.606C8.20414 25.9514 8.75748 28.2649 9.82722 30.3521C10.897 32.4394 12.4519 34.2395 14.3614 35.6014C14.146 35.7824 13.9727 36.0083 13.8539 36.2634C13.735 36.5185 13.6734 36.7965 13.6734 37.0779V37.6524C13.6734 38.1652 13.8772 38.657 14.2398 39.0196C14.6024 39.3822 15.0942 39.586 15.607 39.586H30.0313C30.5444 39.586 31.0365 39.3823 31.3995 39.0198C31.7626 38.6573 31.9669 38.1654 31.9677 37.6524V37.0779C31.967 36.5829 31.7751 36.1072 31.4319 35.7504C33.3879 34.3846 34.9863 32.5681 36.0924 30.4543C37.1984 28.3405 37.7794 25.9917 37.7864 23.606V23.3167C38.2784 23.099 38.6964 22.7428 38.9892 22.2914C39.2821 21.8401 39.4372 21.3133 39.4356 20.7753ZM31.5124 11.2662C31.5613 11.1888 31.5923 11.1016 31.6032 11.0107C31.6141 10.9198 31.6046 10.8277 31.5753 10.741C31.4328 10.3208 31.4211 9.86732 31.5417 9.44039C31.6624 9.01345 31.9098 8.63318 32.2512 8.34984C32.5926 8.06651 33.012 7.89344 33.4538 7.85351C33.8957 7.81358 34.3393 7.90867 34.7259 8.12622C35.1126 8.34377 35.4241 8.67353 35.6194 9.07192C35.8146 9.47031 35.8844 9.91857 35.8195 10.3575C35.7545 10.7963 35.5579 11.2052 35.2557 11.53C34.9534 11.8547 34.5597 12.0801 34.1266 12.1764C34.0374 12.1965 33.9538 12.2362 33.8818 12.2927C33.8098 12.3491 33.7512 12.4208 33.7104 12.5026L30.9805 17.9951H27.2596L31.5124 11.2662ZM30.7365 37.651C30.7361 37.8378 30.6614 38.0168 30.5291 38.1486C30.3967 38.2805 30.2174 38.3544 30.0306 38.3541H15.6056C15.4191 38.3541 15.2403 38.28 15.1084 38.1481C14.9766 38.0163 14.9025 37.8374 14.9025 37.651V37.0765C14.9025 36.89 14.9766 36.7112 15.1084 36.5793C15.2403 36.4475 15.4191 36.3734 15.6056 36.3734C31.4052 36.3734 29.961 36.3653 30.1687 36.3874C30.3286 36.4181 30.4728 36.5036 30.5764 36.6291C30.68 36.7546 30.7367 36.9123 30.7365 37.0751V37.651ZM36.5559 23.606C36.5492 25.9184 35.954 28.1911 34.8265 30.21C33.6989 32.2289 32.0761 33.9276 30.1107 35.1461C30.0359 35.1426 30.688 35.1461 15.8837 35.1443C9.02015 30.9066 9.4568 23.606 9.44414 23.5596H36.5559V23.606ZM36.6512 22.3302H9.34887C8.9373 22.3302 8.5426 22.1667 8.25158 21.8757C7.96056 21.5847 7.79707 21.19 7.79707 20.7784C7.79707 20.3669 7.96056 19.9722 8.25158 19.6811C8.5426 19.3901 8.9373 19.2266 9.34887 19.2266H36.6512C37.0628 19.2266 37.4575 19.3901 37.7485 19.6811C38.0395 19.9722 38.203 20.3669 38.203 20.7784C38.203 21.19 38.0395 21.5847 37.7485 21.8757C37.4575 22.1667 37.0628 22.3302 36.6512 22.3302Z" fill="#5DB93D"/>
<path d="M14.1236 15.9844H17.9331C18.9893 15.9832 20.0019 15.5631 20.7488 14.8163C21.4957 14.0694 21.9158 13.0568 21.917 12.0005V11.2682C21.9169 11.1051 21.852 10.9487 21.7367 10.8333C21.6213 10.7179 21.4649 10.6531 21.3018 10.653H19.397C19.1453 10.6538 18.8942 10.6786 18.6471 10.7268C18.5879 9.92623 18.3535 9.14844 17.9603 8.44851C17.5672 7.74858 17.025 7.14362 16.3721 6.67648C16.2706 6.60792 16.1509 6.57129 16.0283 6.57129C15.9058 6.57129 15.7861 6.60792 15.6845 6.67648C15.0316 7.14362 14.4894 7.74858 14.0963 8.44851C13.7032 9.14844 13.4687 9.92623 13.4095 10.7268C13.1625 10.6786 12.9114 10.6538 12.6596 10.653H10.7549C10.5917 10.6531 10.4353 10.7179 10.3199 10.8333C10.2046 10.9487 10.1397 11.1051 10.1396 11.2682V12.0005C10.1409 13.0568 10.561 14.0694 11.3078 14.8163C12.0547 15.5631 13.0673 15.9832 14.1236 15.9844ZM20.6865 11.8835V12.0005C20.6857 12.7305 20.3953 13.4304 19.8791 13.9466C19.3629 14.4628 18.6631 14.7531 17.9331 14.754H16.6436V14.6373C16.6444 13.9072 16.9347 13.2073 17.4509 12.6911C17.9671 12.1748 18.667 11.8844 19.397 11.8835H20.6865ZM16.0283 7.96109C16.471 8.37087 16.8246 8.8673 17.0673 9.41953C17.31 9.97176 17.4366 10.568 17.4391 11.1712C16.8648 11.4949 16.3799 11.9564 16.0283 12.5142C15.6768 11.9564 15.1919 11.4948 14.6175 11.1712C14.62 10.568 14.7466 9.97176 14.9893 9.41953C15.232 8.8673 15.5857 8.37087 16.0283 7.96109ZM11.3701 11.8835H12.6596C13.3897 11.8844 14.0895 12.1748 14.6057 12.6911C15.1219 13.2073 15.4122 13.9072 15.4131 14.6373V14.754H14.1236C13.3936 14.7531 12.6937 14.4628 12.1775 13.9466C11.6613 13.4304 11.371 12.7305 11.3701 12.0005V11.8835Z" fill="#5DB93D"/>
<path d="M20.334 31.3723H20.9787V32.0174C20.9787 32.5536 21.1917 33.0677 21.5708 33.4468C21.9499 33.8259 22.4641 34.0389 23.0002 34.0389C23.5364 34.0389 24.0505 33.8259 24.4296 33.4468C24.8087 33.0677 25.0217 32.5536 25.0217 32.0174V31.3723H25.6665C26.2026 31.3723 26.7168 31.1593 27.0959 30.7802C27.475 30.4011 27.688 29.887 27.688 29.3508C27.688 28.8147 27.475 28.3005 27.0959 27.9214C26.7168 27.5423 26.2026 27.3293 25.6665 27.3293H25.0217V26.6846C25.0217 26.1484 24.8087 25.6343 24.4296 25.2552C24.0505 24.8761 23.5364 24.6631 23.0002 24.6631C22.4641 24.6631 21.9499 24.8761 21.5708 25.2552C21.1917 25.6343 20.9787 26.1484 20.9787 26.6846V27.3293H20.334C19.7979 27.3293 19.2837 27.5423 18.9046 27.9214C18.5255 28.3005 18.3125 28.8147 18.3125 29.3508C18.3125 29.887 18.5255 30.4011 18.9046 30.7802C19.2837 31.1593 19.7979 31.3723 20.334 31.3723ZM20.334 28.5598H21.594C21.7572 28.5598 21.9136 28.495 22.029 28.3796C22.1444 28.2642 22.2092 28.1077 22.2092 27.9446V26.6846C22.2092 26.4748 22.2926 26.2736 22.4409 26.1252C22.5892 25.9769 22.7904 25.8936 23.0002 25.8936C23.21 25.8936 23.4112 25.9769 23.5596 26.1252C23.7079 26.2736 23.7912 26.4748 23.7912 26.6846V27.9446C23.7912 28.1077 23.8561 28.2642 23.9714 28.3796C24.0868 28.495 24.2433 28.5598 24.4065 28.5598H25.6665C25.8763 28.5598 26.0775 28.6431 26.2258 28.7915C26.3742 28.9398 26.4575 29.141 26.4575 29.3508C26.4575 29.5606 26.3742 29.7618 26.2258 29.9102C26.0775 30.0585 25.8763 30.1418 25.6665 30.1418H24.4065C24.2433 30.1418 24.0868 30.2067 23.9714 30.322C23.8561 30.4374 23.7912 30.5939 23.7912 30.7571V32.0174C23.7912 32.2272 23.7079 32.4284 23.5596 32.5768C23.4112 32.7251 23.21 32.8084 23.0002 32.8084C22.7904 32.8084 22.5892 32.7251 22.4409 32.5768C22.2926 32.4284 22.2092 32.2272 22.2092 32.0174V30.7571C22.2092 30.5939 22.1444 30.4374 22.029 30.322C21.9136 30.2067 21.7572 30.1418 21.594 30.1418H20.334C20.1242 30.1418 19.923 30.0585 19.7747 29.9102C19.6263 29.7618 19.543 29.5606 19.543 29.3508C19.543 29.141 19.6263 28.9398 19.7747 28.7915C19.923 28.6431 20.1242 28.5598 20.334 28.5598Z" fill="#5DB93D"/>
</svg>
