<svg width="46" height="46" viewBox="0 0 46 46" fill="none" xmlns="http://www.w3.org/2000/svg">
<path d="M31.4481 28.4023C31.2553 28.2118 31.0265 28.0607 30.7746 27.9577C30.5227 27.8546 30.2528 27.8015 29.9801 27.8015C29.7075 27.8015 29.4375 27.8546 29.1857 27.9577C28.9338 28.0607 28.705 28.2118 28.5122 28.4023L26.4907 30.3999C26.1571 30.7288 25.705 30.9135 25.2336 30.9135C24.7623 30.9135 24.3102 30.7288 23.9766 30.3999L15.7332 22.2552C15.4002 21.9257 15.2132 21.4791 15.2132 21.0135C15.2132 20.5479 15.4002 20.1013 15.7332 19.7718L17.755 17.7749C18.1438 17.39 18.362 16.8685 18.362 16.3249C18.362 15.7812 18.1438 15.2598 17.755 14.8749L13.7732 10.943C13.5805 10.7524 13.3517 10.6012 13.0998 10.4981C12.848 10.3949 12.578 10.3418 12.3053 10.3418C12.0326 10.3418 11.7626 10.3949 11.5107 10.4981C11.2589 10.6012 11.03 10.7524 10.8374 10.943L8.71049 13.0443C7.27403 14.4663 6.46729 16.3931 6.46729 18.4019C6.46729 20.4108 7.27403 22.3376 8.71049 23.7595L22.4537 37.3351C23.1656 38.0392 24.0111 38.5978 24.9418 38.9789C25.8724 39.3601 26.87 39.5562 27.8775 39.5562C28.8849 39.5562 29.8825 39.3601 30.8132 38.9789C31.7438 38.5978 32.5893 38.0392 33.3012 37.3351L35.4285 35.2342C35.8172 34.8493 36.0355 34.3278 36.0355 33.7842C36.0355 33.2405 35.8172 32.719 35.4285 32.3342L31.4481 28.4023ZM34.5476 34.3641L32.4207 36.4654C31.8243 37.0551 31.1161 37.5229 30.3366 37.842C29.5571 38.1612 28.7215 38.3255 27.8776 38.3255C27.0338 38.3255 26.1982 38.1612 25.4187 37.842C24.6392 37.5229 23.9309 37.0551 23.3345 36.4654L9.59099 22.8894C8.99394 22.3003 8.5203 21.6008 8.19714 20.8308C7.87398 20.0607 7.70764 19.2353 7.70764 18.4017C7.70764 17.5682 7.87398 16.7428 8.19714 15.9727C8.5203 15.2027 8.99394 14.5031 9.59099 13.914L11.7182 11.8128C11.7953 11.7365 11.8868 11.676 11.9876 11.6348C12.0884 11.5935 12.1964 11.5723 12.3055 11.5723C12.4145 11.5723 12.5226 11.5935 12.6233 11.6348C12.7241 11.676 12.8156 11.7365 12.8927 11.8128L16.8721 15.7446C17.0276 15.8986 17.1149 16.1072 17.1149 16.3247C17.1149 16.5422 17.0276 16.7508 16.8721 16.9048L14.8509 18.902C14.2845 19.4623 13.9664 20.2217 13.9664 21.0135C13.9664 21.8053 14.2845 22.5647 14.8509 23.125L23.0961 31.2696C23.6633 31.8291 24.4321 32.1433 25.2336 32.1433C26.0352 32.1433 26.804 31.8291 27.3712 31.2696L29.3931 29.2731C29.5513 29.124 29.7616 29.0409 29.9803 29.0409C30.199 29.0409 30.4093 29.124 30.5676 29.2731L34.5476 33.2039C34.7031 33.3579 34.7905 33.5665 34.7905 33.784C34.7905 34.0015 34.7031 34.2101 34.5476 34.3641Z" fill="white"/>
<path d="M34.8869 13.0806H33.265V11.4785C33.2644 11.2176 33.1592 10.9676 32.9724 10.7832C32.7857 10.5987 32.5326 10.4948 32.2685 10.4941H30.0206C29.7565 10.4948 29.5034 10.5987 29.3167 10.7832C29.13 10.9676 29.0248 11.2176 29.0241 11.4785V13.0806H27.4008C27.1367 13.0811 26.8836 13.185 26.6968 13.3695C26.51 13.554 26.4049 13.8041 26.4043 14.065V16.284C26.4049 16.5449 26.51 16.795 26.6968 16.9795C26.8836 17.164 27.1367 17.2678 27.4008 17.2684H29.0227V18.8705C29.0232 19.1314 29.1284 19.3814 29.3152 19.5659C29.5019 19.7504 29.7551 19.8543 30.0192 19.8548H32.2657C32.5298 19.8543 32.7829 19.7504 32.9697 19.5659C33.1565 19.3814 33.2616 19.1314 33.2622 18.8705V17.2712H34.884C35.1481 17.2706 35.4012 17.1666 35.588 16.9822C35.7747 16.7977 35.8799 16.5477 35.8806 16.2868V14.0664C35.8803 13.8057 35.7756 13.5558 35.5895 13.3711C35.4033 13.1864 35.1507 13.082 34.8869 13.0806ZM34.6378 16.0407H32.6422C32.5604 16.0407 32.4794 16.0566 32.4038 16.0875C32.3282 16.1184 32.2595 16.1637 32.2017 16.2208C32.1438 16.278 32.098 16.3458 32.0667 16.4205C32.0354 16.4951 32.0193 16.5752 32.0194 16.656V18.6282H30.2683V16.656C30.2684 16.5752 30.2523 16.4951 30.221 16.4205C30.1897 16.3458 30.1439 16.278 30.086 16.2208C30.0282 16.1637 29.9595 16.1184 29.8839 16.0875C29.8083 16.0566 29.7273 16.0407 29.6455 16.0407H27.6489V14.3111H29.6455C29.7273 14.3111 29.8083 14.2952 29.8839 14.2643C29.9595 14.2334 30.0282 14.1881 30.086 14.131C30.1439 14.0738 30.1897 14.006 30.221 13.9313C30.2523 13.8566 30.2684 13.7766 30.2683 13.6958V11.7236H32.0194V13.6958C32.0193 13.7766 32.0354 13.8566 32.0667 13.9313C32.098 14.006 32.1438 14.0738 32.2017 14.131C32.2595 14.1881 32.3282 14.2334 32.4038 14.2643C32.4794 14.2952 32.5604 14.3111 32.6422 14.3111H34.6388L34.6378 16.0407Z" fill="white"/>
<path d="M31.1438 6.65039C29.7806 6.65353 28.4373 6.97398 27.2228 7.58577C26.0084 8.19756 24.957 9.08347 24.1539 10.1716C23.0841 11.6259 22.5096 13.3782 22.5132 15.1758V23.0859C22.5132 23.2491 22.5788 23.4056 22.6956 23.521C22.8124 23.6364 22.9708 23.7012 23.136 23.7012H31.1438C33.4328 23.7012 35.6281 22.803 37.2466 21.2041C38.8652 19.6053 39.7745 17.4369 39.7745 15.1758C39.7745 12.9147 38.8652 10.7462 37.2466 9.14742C35.6281 7.5486 33.4328 6.65039 31.1438 6.65039ZM31.1438 22.4707H23.7589C23.7589 22.4159 23.7589 15.2285 23.7589 15.1758C23.7589 13.733 24.192 12.3226 25.0035 11.1229C25.8149 9.9233 26.9683 8.98829 28.3177 8.43615C29.6672 7.88402 31.152 7.73955 32.5846 8.02103C34.0171 8.30251 35.333 8.99728 36.3658 10.0175C37.3986 11.0377 38.102 12.3375 38.3869 13.7526C38.6719 15.1677 38.5256 16.6345 37.9667 17.9674C37.4077 19.3004 36.4612 20.4397 35.2467 21.2413C34.0323 22.0429 32.6045 22.4707 31.1438 22.4707Z" fill="white"/>
</svg>
