<svg width="31" height="31" viewBox="0 0 31 31" fill="none" xmlns="http://www.w3.org/2000/svg">
<path d="M13.525 10.3011H14.2216V10.9979C14.2217 11.1557 14.2845 11.3069 14.3961 11.4185C14.5076 11.53 14.6589 11.5928 14.8166 11.593H15.9245C16.0824 11.5928 16.2337 11.5301 16.3453 11.4186C16.457 11.307 16.5198 11.1557 16.5201 10.9979V10.3011H17.2164C17.3743 10.301 17.5256 10.2382 17.6372 10.1266C17.7488 10.015 17.8116 9.86363 17.8117 9.70578V8.59789C17.8115 8.44008 17.7487 8.28879 17.6371 8.17723C17.5255 8.06566 17.3742 8.00294 17.2164 8.00281H16.5201V7.30625C16.5199 7.14838 16.4571 6.99703 16.3454 6.88542C16.2338 6.77381 16.0824 6.71106 15.9245 6.71094H14.8166C14.6588 6.71112 14.5075 6.77391 14.396 6.88552C14.2844 6.99713 14.2217 7.14844 14.2216 7.30625V8.00281H13.525C13.3672 8.00294 13.2159 8.06566 13.1043 8.17723C12.9927 8.28879 12.9299 8.44008 12.9297 8.59789V9.70578C12.9298 9.86363 12.9926 10.015 13.1042 10.1266C13.2158 10.2382 13.3672 10.301 13.525 10.3011ZM13.75 8.82312H14.6317C14.7405 8.82306 14.8448 8.77983 14.9217 8.70292C14.9986 8.62602 15.0418 8.52173 15.0419 8.41297V7.53125H15.6998V8.41367C15.6998 8.52245 15.743 8.62678 15.8199 8.7037C15.8968 8.78061 16.0011 8.82383 16.1099 8.82383H16.9914V9.48148H16.1097C16.0012 9.48155 15.8971 9.52459 15.8203 9.6012C15.7435 9.67781 15.7001 9.78174 15.6998 9.89023V10.772H15.0419V9.89023C15.0418 9.78147 14.9986 9.67718 14.9217 9.60028C14.8448 9.52337 14.7405 9.48014 14.6317 9.48008H13.75V8.82312Z" fill="white"/>
<path d="M26.457 13.9067V13.1004C26.4559 13.0672 26.4518 13.0341 26.4448 13.0015L25.2729 8.29058C25.2509 8.20172 25.1997 8.12281 25.1276 8.06641C25.0555 8.01 24.9665 7.97935 24.875 7.97933H19.5697C19.3136 7.06272 18.7646 6.25509 18.0065 5.67975C17.2483 5.10441 16.3228 4.79297 15.3711 4.79297C14.4194 4.79297 13.4938 5.10441 12.7357 5.67975C11.9776 6.25509 11.4286 7.06272 11.1725 7.97933H6.12498C6.03334 7.97924 5.94432 8.00985 5.8721 8.06626C5.79988 8.12267 5.74864 8.20165 5.72654 8.29058L4.55467 13.0015C4.54771 13.0341 4.54363 13.0672 4.54248 13.1004V13.9067C4.54323 14.4102 4.71899 14.8978 5.03967 15.286C5.36034 15.6741 5.80598 15.9388 6.30029 16.0346V25.8856H4.95311C4.84433 25.8856 4.74 25.9288 4.66308 26.0057C4.58616 26.0826 4.54295 26.187 4.54295 26.2957C4.54295 26.4045 4.58616 26.5088 4.66308 26.5858C4.74 26.6627 4.84433 26.7059 4.95311 26.7059H26.0469C26.1556 26.7059 26.26 26.6627 26.3369 26.5858C26.4138 26.5088 26.457 26.4045 26.457 26.2957C26.457 26.187 26.4138 26.0826 26.3369 26.0057C26.26 25.9288 26.1556 25.8856 26.0469 25.8856H24.6992V16.0346C25.1935 15.9388 25.6392 15.6741 25.9598 15.286C26.2805 14.8978 26.4563 14.4102 26.457 13.9067ZM25.6367 13.9067C25.6367 14.2641 25.4947 14.6069 25.242 14.8596C24.9892 15.1123 24.6465 15.2543 24.289 15.2543C23.9316 15.2543 23.5888 15.1123 23.3361 14.8596C23.0834 14.6069 22.9414 14.2641 22.9414 13.9067V13.5106H25.6367V13.9067ZM8.87889 13.9067V13.5106H11.5742V13.909C11.5742 14.2664 11.4322 14.6092 11.1795 14.862C10.9267 15.1147 10.584 15.2567 10.2265 15.2567C9.86912 15.2567 9.52634 15.1147 9.27361 14.862C9.02087 14.6092 8.87889 14.2664 8.87889 13.909V13.9067ZM12.3945 13.5106H15.0898V13.909C15.0898 14.2664 14.9478 14.6092 14.6951 14.862C14.4424 15.1147 14.0996 15.2567 13.7422 15.2567C13.3847 15.2567 13.042 15.1147 12.7892 14.862C12.5365 14.6092 12.3945 14.2664 12.3945 13.909V13.5106ZM15.9101 13.5106H18.6054V13.909C18.6054 14.2664 18.4635 14.6092 18.2107 14.862C17.958 15.1147 17.6152 15.2567 17.2578 15.2567C16.9004 15.2567 16.5576 15.1147 16.3049 14.862C16.0521 14.6092 15.9101 14.2664 15.9101 13.909V13.5106ZM19.4258 13.5106H22.1211V13.909C22.1211 14.2664 21.9791 14.6092 21.7264 14.862C21.4736 15.1147 21.1308 15.2567 20.7734 15.2567C20.416 15.2567 20.0732 15.1147 19.8205 14.862C19.5677 14.6092 19.4258 14.2664 19.4258 13.909V13.5106ZM25.5223 12.6903H17.9068C18.4703 12.2879 18.9297 11.757 19.2469 11.1414C19.5641 10.5259 19.7299 9.84363 19.7305 9.1512C19.7305 9.03402 19.7229 8.91683 19.7136 8.79964H24.5544L25.5223 12.6903ZM15.3711 5.61214C16.3097 5.61183 17.21 5.9844 17.8739 6.64788C18.5378 7.31136 18.911 8.21142 18.9113 9.15003C18.9116 10.0887 18.5391 10.9889 17.8756 11.6529C17.2121 12.3168 16.312 12.69 15.3734 12.6903H15.369C14.4303 12.69 13.5303 12.3169 12.8668 11.653C12.2033 10.9891 11.8307 10.0888 11.831 9.15015C11.8312 8.21153 12.2044 7.31147 12.8683 6.64796C13.5322 5.98446 14.4325 5.61186 15.3711 5.61214ZM6.44561 8.79964H11.0286C11.0192 8.91683 11.0117 9.03402 11.0117 9.1512C11.0123 9.84363 11.1781 10.5259 11.4952 11.1414C11.8124 11.757 12.2718 12.2879 12.8354 12.6903C4.69576 12.6903 13.6592 12.6903 5.47787 12.6903L6.44561 8.79964ZM5.36326 13.9067V13.5106H8.05857V13.9067C8.05857 14.2641 7.91659 14.6069 7.66386 14.8596C7.41112 15.1123 7.06834 15.2543 6.71092 15.2543C6.3535 15.2543 6.01072 15.1123 5.75798 14.8596C5.50525 14.6069 5.36326 14.2641 5.36326 13.9067ZM9.38842 25.8856V18.4067H13.5912V25.8856H9.38842ZM14.4115 25.8856V17.9965C14.4116 17.9426 14.401 17.8893 14.3804 17.8395C14.3598 17.7897 14.3296 17.7445 14.2915 17.7064C14.2534 17.6683 14.2082 17.6381 14.1584 17.6175C14.1086 17.5969 14.0553 17.5863 14.0014 17.5864H8.97826C8.92439 17.5863 8.87104 17.5969 8.82127 17.6175C8.77149 17.6381 8.72626 17.6683 8.68817 17.7064C8.65008 17.7445 8.61987 17.7897 8.59926 17.8395C8.57866 17.8893 8.56808 17.9426 8.56811 17.9965V25.8856H7.12107V16.0346C7.66392 15.929 8.14597 15.6202 8.46873 15.1711C8.66869 15.4508 8.93249 15.6787 9.23821 15.8359C9.54393 15.9932 9.88276 16.0752 10.2265 16.0752C10.5703 16.0752 10.9092 15.9932 11.2149 15.8359C11.5206 15.6787 11.7844 15.4508 11.9844 15.1711C12.1843 15.4508 12.4481 15.6787 12.7538 15.8359C13.0596 15.9932 13.3984 16.0752 13.7422 16.0752C14.086 16.0752 14.4248 15.9932 14.7305 15.8359C15.0362 15.6787 15.3 15.4508 15.5 15.1711C15.6999 15.4508 15.9637 15.6787 16.2695 15.8359C16.5752 15.9932 16.914 16.0752 17.2578 16.0752C17.6016 16.0752 17.9404 15.9932 18.2461 15.8359C18.5519 15.6787 18.8156 15.4508 19.0156 15.1711C19.2156 15.4508 19.4794 15.6787 19.7851 15.8359C20.0908 15.9932 20.4296 16.0752 20.7734 16.0752C21.1172 16.0752 21.456 15.9932 21.7618 15.8359C22.0675 15.6787 22.3313 15.4508 22.5312 15.1711C22.8539 15.6201 23.3357 15.9289 23.8784 16.0346V25.8856H14.4115Z" fill="white"/>
<path d="M22.0215 17.5859H16.209C16.1551 17.5859 16.1018 17.5965 16.052 17.6171C16.0022 17.6377 15.957 17.6679 15.9189 17.706C15.8808 17.7441 15.8506 17.7893 15.83 17.8391C15.8094 17.8889 15.7988 17.9422 15.7988 17.9961V23.0902C15.7988 23.1441 15.8094 23.1975 15.83 23.2472C15.8506 23.297 15.8808 23.3422 15.9189 23.3803C15.957 23.4184 16.0022 23.4486 16.052 23.4692C16.1018 23.4898 16.1551 23.5004 16.209 23.5004H22.0215C22.0754 23.5004 22.1287 23.4898 22.1785 23.4692C22.2283 23.4486 22.2735 23.4184 22.3116 23.3803C22.3497 23.3422 22.3799 23.297 22.4005 23.2472C22.4211 23.1975 22.4317 23.1441 22.4316 23.0902V17.9961C22.4317 17.9422 22.4211 17.8889 22.4005 17.8391C22.3799 17.7893 22.3497 17.7441 22.3116 17.706C22.2735 17.6679 22.2283 17.6377 22.1785 17.6171C22.1287 17.5965 22.0754 17.5859 22.0215 17.5859ZM21.6113 18.4062V20.9727H16.6191V18.4062H21.6113ZM21.6113 22.6801H16.6191V21.793H21.6113V22.6801Z" fill="white"/>
</svg>
