<svg width="46" height="46" viewBox="0 0 46 46" fill="none" xmlns="http://www.w3.org/2000/svg">
<path d="M31.3323 28.1403C31.1396 27.9498 30.9107 27.7987 30.6589 27.6956C30.407 27.5926 30.137 27.5395 29.8644 27.5395C29.5918 27.5395 29.3218 27.5926 29.07 27.6956C28.8181 27.7987 28.5892 27.9498 28.3965 28.1403L26.375 30.1378C26.0413 30.4667 25.5893 30.6514 25.1179 30.6514C24.6466 30.6514 24.1945 30.4667 23.8609 30.1378L15.6174 21.9932C15.2845 21.6636 15.0975 21.2171 15.0975 20.7515C15.0975 20.2859 15.2845 19.8393 15.6174 19.5098L17.6393 17.5129C18.028 17.128 18.2463 16.6065 18.2463 16.0629C18.2463 15.5192 18.028 14.9977 17.6393 14.6128L13.6575 10.681C13.4648 10.4904 13.236 10.3392 12.9841 10.236C12.7322 10.1329 12.4622 10.0798 12.1896 10.0798C11.9169 10.0798 11.6469 10.1329 11.395 10.236C11.1431 10.3392 10.9143 10.4904 10.7216 10.681L8.59477 12.7823C7.1583 14.2042 6.35156 16.131 6.35156 18.1399C6.35156 20.1487 7.1583 22.0755 8.59477 23.4975L22.338 37.0731C23.0499 37.7772 23.8954 38.3358 24.826 38.7169C25.7567 39.098 26.7543 39.2942 27.7617 39.2942C28.7692 39.2942 29.7668 39.098 30.6974 38.7169C31.6281 38.3358 32.4736 37.7772 33.1855 37.0731L35.3127 34.9722C35.7015 34.5873 35.9197 34.0658 35.9197 33.5222C35.9197 32.9785 35.7015 32.457 35.3127 32.0721L31.3323 28.1403ZM34.4319 34.1021L32.305 36.2033C31.7086 36.793 31.0004 37.2608 30.2209 37.58C29.4413 37.8992 28.6058 38.0634 27.7619 38.0634C26.9181 38.0634 26.0825 37.8992 25.303 37.58C24.5234 37.2608 23.8152 36.793 23.2188 36.2033L9.47527 22.6274C8.87822 22.0383 8.40457 21.3388 8.08141 20.5687C7.75825 19.7987 7.59192 18.9733 7.59192 18.1397C7.59192 17.3061 7.75825 16.4807 8.08141 15.7107C8.40457 14.9407 8.87822 14.2411 9.47527 13.652L11.6025 11.5507C11.6796 11.4745 11.7711 11.414 11.8719 11.3727C11.9727 11.3315 12.0807 11.3102 12.1897 11.3102C12.2988 11.3102 12.4068 11.3315 12.5076 11.3727C12.6084 11.414 12.6999 11.4745 12.777 11.5507L16.7563 15.4826C16.9119 15.6366 16.9992 15.8452 16.9992 16.0627C16.9992 16.2802 16.9119 16.4888 16.7563 16.6428L14.7352 18.64C14.1688 19.2003 13.8507 19.9597 13.8507 20.7515C13.8507 21.5433 14.1688 22.3027 14.7352 22.863L22.9804 31.0076C23.5476 31.5671 24.3164 31.8813 25.1179 31.8813C25.9195 31.8813 26.6883 31.5671 27.2555 31.0076L29.2773 29.0111C29.4356 28.862 29.6459 28.7788 29.8646 28.7788C30.0833 28.7788 30.2936 28.862 30.4518 29.0111L34.4319 32.9419C34.5874 33.0959 34.6748 33.3045 34.6748 33.522C34.6748 33.7395 34.5874 33.9481 34.4319 34.1021Z" fill="#5DB93D"/>
<path d="M34.7707 12.8184H33.1488V11.2164C33.1482 10.9555 33.043 10.7055 32.8562 10.521C32.6695 10.3366 32.4164 10.2326 32.1523 10.232H29.9044C29.6403 10.2326 29.3872 10.3366 29.2005 10.521C29.0137 10.7055 28.9085 10.9555 28.9079 11.2164V12.8184H27.2846C27.0205 12.819 26.7673 12.9229 26.5806 13.1074C26.3938 13.2919 26.2887 13.5419 26.2881 13.8028V16.0219C26.2887 16.2828 26.3938 16.5328 26.5806 16.7173C26.7673 16.9018 27.0205 17.0057 27.2846 17.0063H28.9065V18.6083C28.907 18.8692 29.0122 19.1193 29.199 19.3038C29.3857 19.4883 29.6389 19.5921 29.903 19.5927H32.1494C32.4136 19.5921 32.6667 19.4883 32.8535 19.3038C33.0402 19.1193 33.1454 18.8692 33.146 18.6083V17.0091H34.7678C35.0319 17.0084 35.285 16.9045 35.4718 16.72C35.6585 16.5356 35.7637 16.2856 35.7644 16.0247V13.8042C35.7641 13.5436 35.6594 13.2936 35.4733 13.109C35.2871 12.9243 35.0345 12.8198 34.7707 12.8184ZM34.5215 15.7786H32.526C32.4442 15.7785 32.3632 15.7944 32.2876 15.8253C32.212 15.8562 32.1433 15.9016 32.0855 15.9587C32.0276 16.0158 31.9818 16.0837 31.9505 16.1583C31.9192 16.233 31.9031 16.313 31.9032 16.3938V18.3661H30.1521V16.3938C30.1522 16.313 30.1361 16.233 30.1048 16.1583C30.0735 16.0837 30.0277 16.0158 29.9698 15.9587C29.912 15.9016 29.8433 15.8562 29.7677 15.8253C29.6921 15.7944 29.6111 15.7785 29.5293 15.7786H27.5327V14.0489H29.5293C29.6111 14.049 29.6921 14.0331 29.7677 14.0022C29.8433 13.9713 29.912 13.926 29.9698 13.8688C30.0277 13.8117 30.0735 13.7438 30.1048 13.6692C30.1361 13.5945 30.1522 13.5145 30.1521 13.4337V11.4614H31.9032V13.4337C31.9031 13.5145 31.9192 13.5945 31.9505 13.6692C31.9818 13.7438 32.0276 13.8117 32.0855 13.8688C32.1433 13.926 32.212 13.9713 32.2876 14.0022C32.3632 14.0331 32.4442 14.049 32.526 14.0489H34.5226L34.5215 15.7786Z" fill="#5DB93D"/>
<path d="M31.0281 6.38837C29.6649 6.3915 28.3215 6.71196 27.1071 7.32375C25.8927 7.93554 24.8413 8.82144 24.0382 9.90962C22.9684 11.3638 22.3939 13.1161 22.3975 14.9138V22.8239C22.3975 22.9871 22.4631 23.1436 22.5799 23.2589C22.6967 23.3743 22.8551 23.4391 23.0203 23.4391H31.0281C33.3171 23.4391 35.5123 22.5409 37.1309 20.9421C38.7495 19.3433 39.6588 17.1748 39.6588 14.9138C39.6588 12.6527 38.7495 10.4842 37.1309 8.8854C35.5123 7.28658 33.3171 6.38837 31.0281 6.38837ZM31.0281 22.2087H23.6431C23.6431 22.1538 23.6431 14.9665 23.6431 14.9138C23.6431 13.471 24.0763 12.0606 24.8877 10.8609C25.6992 9.66127 26.8526 8.72626 28.202 8.17413C29.5514 7.62199 31.0363 7.47753 32.4689 7.75901C33.9014 8.04048 35.2173 8.73526 36.2501 9.75547C37.2829 10.7757 37.9863 12.0755 38.2712 13.4906C38.5562 14.9057 38.4099 16.3724 37.851 17.7054C37.292 19.0384 36.3455 20.1777 35.131 20.9793C33.9165 21.7808 32.4887 22.2087 31.0281 22.2087Z" fill="#5DB93D"/>
</svg>
