<svg width="31" height="31" viewBox="0 0 31 31" fill="none" xmlns="http://www.w3.org/2000/svg">
<path d="M25.5336 23.5012H23.4355C23.7577 22.684 23.8621 21.7971 23.7384 20.9274C23.6147 20.0577 23.2672 19.2351 22.7299 18.5401C22.1926 17.8452 21.4839 17.3018 20.6734 16.9631C19.8629 16.6245 18.9782 16.5023 18.1063 16.6084V12.4598C18.1047 11.8398 17.8681 11.2435 17.4442 10.7912C17.0203 10.3388 16.4406 10.064 15.822 10.0223V8.63148C16.1196 8.6173 16.4004 8.48929 16.6063 8.27393C16.8122 8.05857 16.9275 7.77232 16.9283 7.47437V5.95375C16.9279 5.64549 16.8053 5.34996 16.5873 5.13198C16.3693 4.91401 16.0738 4.79139 15.7655 4.79102H6.88414C6.57588 4.79139 6.28035 4.91401 6.06237 5.13198C5.8444 5.34996 5.72178 5.64549 5.72141 5.95375V7.47461C5.72228 7.77259 5.83763 8.05885 6.04362 8.27417C6.24961 8.48949 6.53047 8.61742 6.82812 8.63148V10.0211C6.20922 10.0626 5.62913 10.3375 5.20498 10.7901C4.78084 11.2428 4.54425 11.8395 4.54297 12.4598V24.2559C4.54365 24.9052 4.80191 25.5278 5.26108 25.987C5.72025 26.4461 6.34282 26.7044 6.99219 26.7051H15.657C16.0958 26.7056 16.5265 26.5876 16.9037 26.3636C17.3198 26.541 17.7597 26.6561 18.2094 26.7051H25.5336C25.7784 26.7048 26.0131 26.6074 26.1862 26.4343C26.3593 26.2612 26.4567 26.0265 26.457 25.7816V24.4246C26.4567 24.1798 26.3593 23.9451 26.1862 23.772C26.0131 23.5989 25.7784 23.5015 25.5336 23.5012ZM22.9698 21.6241C22.973 22.2745 22.8259 22.9169 22.5399 23.5012H18.2094C17.9646 23.5015 17.7299 23.5989 17.5567 23.772C17.3836 23.9451 17.2862 24.1798 17.2859 24.4246V25.6326C16.5544 25.3697 15.909 24.9112 15.42 24.3068C14.9311 23.7025 14.6174 22.9756 14.513 22.2052C14.4087 21.4349 14.5178 20.6507 14.8284 19.9381C15.139 19.2255 15.6391 18.6118 16.2744 18.1638C16.9097 17.7159 17.6558 17.4508 18.4313 17.3976C19.2069 17.3444 19.9821 17.505 20.6727 17.8619C21.3632 18.2189 21.9426 18.7585 22.3476 19.422C22.7527 20.0855 22.9679 20.8474 22.9698 21.6248V21.6241ZM5.36328 14.2809H17.2859V16.7826C16.1151 17.1258 15.1078 17.8809 14.4499 18.9084C13.792 19.936 13.5278 21.1668 13.7061 22.3738H5.36328V14.2809ZM7.64844 8.63734H15.0017V10.012H7.64844V8.63734ZM6.54172 7.47461V5.95375C6.54184 5.86297 6.57796 5.77595 6.64215 5.71176C6.70634 5.64757 6.79336 5.61145 6.88414 5.61133H15.7655C15.8563 5.61145 15.9433 5.64757 16.0075 5.71176C16.0717 5.77595 16.1078 5.86297 16.108 5.95375V7.47461C16.1078 7.56541 16.0717 7.65246 16.0076 7.71668C15.9434 7.78091 15.8563 7.81708 15.7655 7.81727H6.88414C6.79334 7.81708 6.70632 7.78091 6.64213 7.71668C6.57795 7.65246 6.54184 7.56541 6.54172 7.47461ZM6.99219 10.8332H15.657C16.0886 10.8334 16.5024 11.0047 16.8078 11.3097C17.1132 11.6146 17.2851 12.0282 17.2859 12.4598V13.4605H5.36328V12.4598C5.36409 12.0282 5.53604 11.6146 5.84141 11.3097C6.14678 11.0047 6.56064 10.8334 6.99219 10.8332ZM6.99219 25.8848C6.56033 25.8843 6.1463 25.7125 5.84092 25.4071C5.53555 25.1017 5.36378 24.6877 5.36328 24.2559V23.1941H13.8995C14.2538 24.2877 14.9697 25.2283 15.9294 25.8611C15.8394 25.8765 15.7483 25.8843 15.657 25.8845L6.99219 25.8848ZM25.6367 25.7816C25.6367 25.809 25.6259 25.8352 25.6065 25.8546C25.5872 25.8739 25.5609 25.8848 25.5336 25.8848H18.193C18.137 25.8848 18.1063 25.8599 18.1063 25.8016V24.4246C18.1063 24.3973 18.1171 24.371 18.1365 24.3517C18.1558 24.3323 18.182 24.3215 18.2094 24.3215H25.5336C25.5609 24.3215 25.5872 24.3323 25.6065 24.3517C25.6259 24.371 25.6367 24.3973 25.6367 24.4246V25.7816Z" fill="white"/>
<path d="M10.0337 19.8516H6.86328C6.7545 19.8516 6.65018 19.8948 6.57326 19.9717C6.49634 20.0486 6.45313 20.1529 6.45312 20.2617C6.45313 20.3705 6.49634 20.4748 6.57326 20.5517C6.65018 20.6287 6.7545 20.6719 6.86328 20.6719H10.0337C10.1425 20.6719 10.2468 20.6287 10.3237 20.5517C10.4006 20.4748 10.4438 20.3705 10.4438 20.2617C10.4438 20.1529 10.4006 20.0486 10.3237 19.9717C10.2468 19.8948 10.1425 19.8516 10.0337 19.8516Z" fill="white"/>
<path d="M10.0337 17.918H6.86328C6.7545 17.918 6.65018 17.9612 6.57326 18.0381C6.49634 18.115 6.45313 18.2193 6.45312 18.3281C6.45313 18.4369 6.49634 18.5412 6.57326 18.6182C6.65018 18.6951 6.7545 18.7383 6.86328 18.7383H10.0337C10.1425 18.7383 10.2468 18.6951 10.3237 18.6182C10.4006 18.5412 10.4438 18.4369 10.4438 18.3281C10.4438 18.2193 10.4006 18.115 10.3237 18.0381C10.2468 17.9612 10.1425 17.918 10.0337 17.918Z" fill="white"/>
<path d="M10.0337 15.9824H6.86328C6.7545 15.9824 6.65018 16.0256 6.57326 16.1026C6.49634 16.1795 6.45313 16.2838 6.45312 16.3926C6.45313 16.5014 6.49634 16.6057 6.57326 16.6826C6.65018 16.7595 6.7545 16.8027 6.86328 16.8027H10.0337C10.1425 16.8027 10.2468 16.7595 10.3237 16.6826C10.4006 16.6057 10.4438 16.5014 10.4438 16.3926C10.4438 16.2838 10.4006 16.1795 10.3237 16.1026C10.2468 16.0256 10.1425 15.9824 10.0337 15.9824Z" fill="white"/>
</svg>
