<svg width="50" height="46" viewBox="0 0 50 46" fill="none" xmlns="http://www.w3.org/2000/svg">
<path d="M35.5139 21.5436H48.3525C47.681 22.8397 46.7989 24.0564 45.7116 25.1442L25.0002 45.8555L4.28885 25.1442C2.86011 23.7154 1.78877 22.0665 1.07349 20.304H19.0951L25.8687 35.8598L31.9757 13.1826L35.5139 21.5436Z" fill="#5DB93D"/>
<path d="M49.6113 18.1457H37.766L31.2614 2.77135L25.1106 25.6071L21.3227 16.9061H0.153122C-0.489222 12.4886 0.889377 7.83442 4.28938 4.43488C10.0098 -1.28558 19.2817 -1.28558 25.0007 4.43488C30.7194 -1.28558 39.9917 -1.28558 45.7121 4.43488C49.4303 8.15354 50.7314 13.3771 49.6113 18.1457Z" fill="white"/>
</svg>
