<svg width="232" height="46" viewBox="0 0 232 46" fill="none" xmlns="http://www.w3.org/2000/svg">
<path d="M35.5139 21.5436H48.3525C47.681 22.8397 46.7989 24.0564 45.7116 25.1442L25.0002 45.8555L4.28885 25.1442C2.86011 23.7154 1.78877 22.0665 1.07349 20.304H19.0951L25.8687 35.8598L31.9757 13.1826L35.5139 21.5436Z" fill="#5DB93D"/>
<path d="M49.6113 18.1457H37.766L31.2614 2.77135L25.1106 25.6071L21.3227 16.9061H0.153122C-0.489222 12.4886 0.889377 7.83442 4.28938 4.43488C10.0098 -1.28558 19.2817 -1.28558 25.0007 4.43488C30.7194 -1.28558 39.9917 -1.28558 45.7121 4.43488C49.4303 8.15354 50.7314 13.3771 49.6113 18.1457Z" fill="white"/>
<path d="M74.848 33.1962C73.4107 33.1962 72.1227 32.9628 70.984 32.4962C69.8453 32.0295 68.9307 31.3388 68.24 30.4242C67.568 29.5095 67.2133 28.4082 67.176 27.1202H72.272C72.3467 27.8482 72.5987 28.4082 73.028 28.8002C73.4573 29.1735 74.0173 29.3602 74.708 29.3602C75.4173 29.3602 75.9773 29.2015 76.388 28.8842C76.7987 28.5482 77.004 28.0908 77.004 27.5122C77.004 27.0268 76.836 26.6255 76.5 26.3082C76.1827 25.9908 75.7813 25.7295 75.296 25.5242C74.8293 25.3188 74.1573 25.0855 73.28 24.8242C72.0107 24.4322 70.9747 24.0402 70.172 23.6482C69.3693 23.2562 68.6787 22.6775 68.1 21.9122C67.5213 21.1468 67.232 20.1482 67.232 18.9162C67.232 17.0868 67.8947 15.6588 69.22 14.6322C70.5453 13.5868 72.272 13.0642 74.4 13.0642C76.5653 13.0642 78.3107 13.5868 79.636 14.6322C80.9613 15.6588 81.6707 17.0962 81.764 18.9442H76.584C76.5467 18.3095 76.3133 17.8148 75.884 17.4602C75.4547 17.0868 74.904 16.9002 74.232 16.9002C73.6533 16.9002 73.1867 17.0588 72.832 17.3762C72.4773 17.6748 72.3 18.1135 72.3 18.6922C72.3 19.3268 72.5987 19.8215 73.196 20.1762C73.7933 20.5308 74.7267 20.9135 75.996 21.3242C77.2653 21.7535 78.292 22.1642 79.076 22.5562C79.8787 22.9482 80.5693 23.5175 81.148 24.2642C81.7267 25.0108 82.016 25.9722 82.016 27.1482C82.016 28.2682 81.7267 29.2855 81.148 30.2002C80.588 31.1148 79.7667 31.8428 78.684 32.3842C77.6013 32.9255 76.3227 33.1962 74.848 33.1962ZM89.7506 17.1802V21.1562H96.1626V24.8522H89.7506V29.1642H97.0026V33.0002H84.9626V13.3442H97.0026V17.1802H89.7506ZM104.899 29.3042H111.171V33.0002H100.111V13.3442H104.899V29.3042ZM118.243 29.3042H124.515V33.0002H113.455V13.3442H118.243V29.3042ZM133.911 33.1962C132.473 33.1962 131.185 32.9628 130.047 32.4962C128.908 32.0295 127.993 31.3388 127.303 30.4242C126.631 29.5095 126.276 28.4082 126.239 27.1202H131.335C131.409 27.8482 131.661 28.4082 132.091 28.8002C132.52 29.1735 133.08 29.3602 133.771 29.3602C134.48 29.3602 135.04 29.2015 135.451 28.8842C135.861 28.5482 136.067 28.0908 136.067 27.5122C136.067 27.0268 135.899 26.6255 135.563 26.3082C135.245 25.9908 134.844 25.7295 134.359 25.5242C133.892 25.3188 133.22 25.0855 132.343 24.8242C131.073 24.4322 130.037 24.0402 129.235 23.6482C128.432 23.2562 127.741 22.6775 127.163 21.9122C126.584 21.1468 126.295 20.1482 126.295 18.9162C126.295 17.0868 126.957 15.6588 128.283 14.6322C129.608 13.5868 131.335 13.0642 133.463 13.0642C135.628 13.0642 137.373 13.5868 138.699 14.6322C140.024 15.6588 140.733 17.0962 140.827 18.9442H135.647C135.609 18.3095 135.376 17.8148 134.947 17.4602C134.517 17.0868 133.967 16.9002 133.294 16.9002C132.716 16.9002 132.249 17.0588 131.895 17.3762C131.54 17.6748 131.363 18.1135 131.363 18.6922C131.363 19.3268 131.661 19.8215 132.258 20.1762C132.856 20.5308 133.789 20.9135 135.059 21.3242C136.328 21.7535 137.355 22.1642 138.139 22.5562C138.941 22.9482 139.632 23.5175 140.211 24.2642C140.789 25.0108 141.079 25.9722 141.079 27.1482C141.079 28.2682 140.789 29.2855 140.211 30.2002C139.651 31.1148 138.829 31.8428 137.747 32.3842C136.664 32.9255 135.385 33.1962 133.911 33.1962ZM166.285 13.3442V33.0002H161.497V21.2122L157.101 33.0002H153.237L148.813 21.1842V33.0002H144.025V13.3442H149.681L155.197 26.9522L160.657 13.3442H166.285ZM181.964 29.5282H174.628L173.452 33.0002H168.44L175.552 13.3442H181.096L188.208 33.0002H183.14L181.964 29.5282ZM180.732 25.8322L178.296 18.6362L175.888 25.8322H180.732ZM200.397 33.0002L196.309 25.5802H195.161V33.0002H190.373V13.3442H198.409C199.958 13.3442 201.274 13.6148 202.357 14.1562C203.458 14.6975 204.279 15.4442 204.821 16.3962C205.362 17.3295 205.633 18.3748 205.633 19.5322C205.633 20.8388 205.259 22.0055 204.513 23.0322C203.785 24.0588 202.702 24.7868 201.265 25.2162L205.801 33.0002H200.397ZM195.161 22.1922H198.129C199.006 22.1922 199.659 21.9775 200.089 21.5482C200.537 21.1188 200.761 20.5122 200.761 19.7282C200.761 18.9815 200.537 18.3935 200.089 17.9642C199.659 17.5348 199.006 17.3202 198.129 17.3202H195.161V22.1922ZM222.778 13.3442V17.1802H217.57V33.0002H212.782V17.1802H207.574V13.3442H222.778Z" fill="white"/>
<path d="M227.421 33.2242C226.581 33.2242 225.891 32.9815 225.349 32.4962C224.827 31.9922 224.565 31.3762 224.565 30.6482C224.565 29.9015 224.827 29.2762 225.349 28.7722C225.891 28.2682 226.581 28.0162 227.421 28.0162C228.243 28.0162 228.915 28.2682 229.437 28.7722C229.979 29.2762 230.249 29.9015 230.249 30.6482C230.249 31.3762 229.979 31.9922 229.437 32.4962C228.915 32.9815 228.243 33.2242 227.421 33.2242Z" fill="#5DB93D"/>
</svg>
