<svg width="900" height="141" viewBox="0 0 900 141" fill="none" xmlns="http://www.w3.org/2000/svg">
<path d="M748.487 108.789L761.514 106.873C762.232 106.768 762.706 107.6 762.248 108.163L759.112 112.021C760.659 112.513 762.25 112.944 763.861 113.299L763.41 115.343C761.77 114.982 760.149 114.544 758.571 114.046L758.837 118.712C758.879 119.437 758.008 119.835 757.487 119.329L748.048 110.149C747.574 109.688 747.834 108.885 748.487 108.789Z" fill="#5DB93D"/>
<path d="M856.501 67.2239C857.401 66.5183 858.311 65.7827 859.206 65.0378L860.545 66.6462C859.634 67.4045 858.708 68.1527 857.792 68.8708C857.785 68.8764 857.778 68.882 857.771 68.8876C857.127 69.3927 856.469 69.8977 855.815 70.3884L854.558 68.7149C855.207 68.2279 855.86 67.7277 856.501 67.2239Z" fill="#5DB93D"/>
<path d="M840.54 41.9867C840.165 41.5088 839.762 41.0632 839.341 40.663L840.783 39.1467C841.277 39.6168 841.749 40.1374 842.187 40.6952C843.024 41.7626 843.762 42.9998 844.381 44.3724L842.473 45.2327C841.923 44.0137 841.273 42.9214 840.54 41.9867Z" fill="#5DB93D"/>
<path d="M843.298 68.0564C843.761 66.1665 844.11 64.2307 844.337 62.3032L846.416 62.5476C846.179 64.5607 845.814 66.5818 845.33 68.5547L843.298 68.0564Z" fill="#5DB93D"/>
<path d="M869.445 58.5262C868.009 59.954 866.542 61.3531 865.086 62.6847L863.674 61.1397C865.109 59.8284 866.554 58.4499 867.968 57.0425L869.445 58.5262Z" fill="#5DB93D"/>
<path d="M835.158 36.0171L834.634 38.0433C832.981 37.6157 831.12 37.5401 829.104 37.8172L828.819 35.7435C831.107 35.4289 833.24 35.521 835.158 36.0171Z" fill="#5DB93D"/>
<path d="M846.184 50.3197C846.54 52.2593 846.732 54.3207 846.753 56.447L844.66 56.4682C844.64 54.4617 844.46 52.5199 844.125 50.6985L846.184 50.3197Z" fill="#5DB93D"/>
<path d="M877.645 49.7143C876.32 51.2458 874.968 52.7532 873.628 54.1944L872.095 52.7697C873.418 51.3464 874.753 49.858 876.062 48.3449L877.645 49.7143Z" fill="#5DB93D"/>
<path d="M809.099 63.5501C808.729 61.5502 808.687 59.4372 808.973 57.2705L811.048 57.5444C810.791 59.4934 810.827 61.3863 811.157 63.1702L809.099 63.5501Z" fill="#5DB93D"/>
<path d="M810.584 51.2521C811.356 49.3469 812.353 47.5133 813.549 45.8022L815.265 47.0014C814.159 48.5836 813.237 50.2782 812.524 52.0375L810.584 51.2521Z" fill="#5DB93D"/>
<path d="M892.227 30.6203C891.089 32.2901 889.931 33.9461 888.785 35.5419L887.085 34.3207C888.221 32.7392 889.369 31.0978 890.497 29.4423L892.227 30.6203Z" fill="#5DB93D"/>
<path d="M819.058 42.7064L817.662 41.1466C819.26 39.7174 821.008 38.5205 822.813 37.6213L823.746 39.4948C822.108 40.3105 820.517 41.4009 819.058 42.7064Z" fill="#5DB93D"/>
<path d="M885.213 40.3712C883.987 41.9816 882.739 43.5724 881.502 45.1004L879.875 43.7835C881.099 42.2716 882.335 40.697 883.547 39.1034L885.213 40.3712Z" fill="#5DB93D"/>
<path d="M809.678 106.761L810.608 108.636C808.809 109.528 806.949 110.363 805.081 111.119L804.296 109.179C806.116 108.443 807.927 107.629 809.678 106.761Z" fill="#5DB93D"/>
<path d="M819.795 100.723L821.007 102.429C819.377 103.587 817.668 104.7 815.929 105.737L814.857 103.939C816.548 102.931 818.21 101.849 819.795 100.723Z" fill="#5DB93D"/>
<path d="M775.523 114.657L775.479 116.75C773.437 116.707 771.396 116.57 769.414 116.341L769.654 114.262C771.571 114.483 773.546 114.617 775.523 114.657Z" fill="#5DB93D"/>
<path d="M849.742 72.0621L850.809 73.8624C849.101 74.8747 847.232 75.7664 845.251 76.5127L844.513 74.5544C846.38 73.8508 848.139 73.0126 849.742 72.0621Z" fill="#5DB93D"/>
<path d="M830.266 94.5986C828.861 96.0141 827.36 97.3987 825.803 98.7134L824.453 97.1142C825.963 95.8391 827.419 94.497 828.78 93.1251L830.266 94.5986Z" fill="#5DB93D"/>
<path d="M787.269 113.875L787.584 115.944C785.574 116.25 783.544 116.474 781.551 116.609L781.409 114.521C783.345 114.39 785.316 114.172 787.269 113.875Z" fill="#5DB93D"/>
<path d="M798.746 111.178L799.381 113.173C797.454 113.786 795.488 114.329 793.538 114.788L793.059 112.751C794.957 112.304 796.87 111.775 798.746 111.178Z" fill="#5DB93D"/>
<path d="M843.52 74.381C842.811 76.2601 841.976 78.1337 841.038 79.9494L839.179 78.9894C840.079 77.2448 840.881 75.4453 841.563 73.6419L843.52 74.381Z" fill="#5DB93D"/>
<path d="M813.147 68.3532C813.425 68.799 813.731 69.2353 814.056 69.6505C814.595 70.3374 815.207 70.9916 815.876 71.5948C816.21 71.895 816.559 72.1868 816.915 72.4619L815.634 74.1176C815.238 73.8107 814.848 73.4853 814.475 73.1497C813.717 72.4659 813.021 71.7233 812.409 70.9419C812.037 70.4676 811.688 69.9689 811.37 69.4595L813.147 68.3532Z" fill="#5DB93D"/>
<path d="M838.931 76.1741L839.357 78.2228C837.324 78.6457 835.274 78.9054 833.261 78.9958L833.168 76.9053C835.068 76.8201 837.008 76.5741 838.931 76.1741Z" fill="#5DB93D"/>
<path d="M827.395 76.6456L827.102 78.7178C824.97 78.4162 822.946 77.8957 821.088 77.1712L821.849 75.2215C823.557 75.8875 825.423 76.3666 827.395 76.6456Z" fill="#5DB93D"/>
<path d="M837.953 85.2002C836.848 86.8669 835.632 88.5126 834.337 90.0913L832.718 88.7641C833.968 87.2394 835.143 85.6515 836.208 84.0434L837.953 85.2002Z" fill="#5DB93D"/>
<path d="M151.513 108.789L138.486 106.873C137.768 106.768 137.294 107.6 137.752 108.163L140.888 112.021C139.341 112.513 137.75 112.944 136.139 113.299L136.59 115.343C138.23 114.982 139.851 114.544 141.429 114.046L141.163 118.712C141.121 119.437 141.992 119.835 142.513 119.329L151.952 110.149C152.426 109.688 152.166 108.885 151.513 108.789Z" fill="#5DB93D"/>
<path d="M43.4991 67.2239C42.5993 66.5183 41.6891 65.7827 40.7942 65.0378L39.4552 66.6462C40.3655 67.4045 41.2918 68.1527 42.2077 68.8708C42.2148 68.8764 42.2219 68.882 42.2291 68.8876C42.8731 69.3927 43.5311 69.8977 44.1848 70.3884L45.4417 68.7149C44.7927 68.2279 44.1402 67.7277 43.4991 67.2239Z" fill="#5DB93D"/>
<path d="M59.4601 41.9867C59.8349 41.5088 60.2384 41.0632 60.6593 40.663L59.2169 39.1467C58.7228 39.6168 58.2506 40.1374 57.8132 40.6952C56.9761 41.7626 56.2381 42.9998 55.6191 44.3724L57.527 45.2327C58.0768 44.0137 58.7271 42.9214 59.4601 41.9867Z" fill="#5DB93D"/>
<path d="M56.7023 68.0564C56.2393 66.1665 55.8896 64.2307 55.6628 62.3032L53.5838 62.5476C53.8206 64.5607 54.1858 66.5818 54.6695 68.5547L56.7023 68.0564Z" fill="#5DB93D"/>
<path d="M30.5554 58.5262C31.9906 59.954 33.4575 61.3531 34.914 62.6847L36.326 61.1397C34.891 59.8284 33.4459 58.4499 32.0315 57.0425L30.5554 58.5262Z" fill="#5DB93D"/>
<path d="M64.8421 36.0171L65.3658 38.0433C67.0188 37.6157 68.8797 37.5401 70.8959 37.8172L71.1812 35.7435C68.8932 35.4289 66.7602 35.521 64.8421 36.0171Z" fill="#5DB93D"/>
<path d="M53.8162 50.3197C53.4597 52.2593 53.2682 54.3207 53.2468 56.447L55.3399 56.4682C55.3599 54.4617 55.5401 52.5199 55.8747 50.6985L53.8162 50.3197Z" fill="#5DB93D"/>
<path d="M22.3553 49.7143C23.6804 51.2458 25.032 52.7532 26.372 54.1944L27.905 52.7697C26.582 51.3464 25.2473 49.858 23.9383 48.3449L22.3553 49.7143Z" fill="#5DB93D"/>
<path d="M90.9015 63.5501C91.2706 61.5502 91.3126 59.4372 91.0269 57.2705L88.9518 57.5444C89.2089 59.4934 89.1726 61.3863 88.8432 63.1702L90.9015 63.5501Z" fill="#5DB93D"/>
<path d="M89.4155 51.2521C88.6444 49.3469 87.6471 47.5133 86.4507 45.8022L84.7352 47.0014C85.8414 48.5836 86.7634 50.2782 87.4756 52.0375L89.4155 51.2521Z" fill="#5DB93D"/>
<path d="M7.77311 30.6203C8.91093 32.2901 10.0687 33.9461 11.215 35.5419L12.915 34.3207C11.7788 32.7392 10.6309 31.0978 9.5032 29.4423L7.77311 30.6203Z" fill="#5DB93D"/>
<path d="M80.9422 42.7064L82.3375 41.1466C80.7404 39.7174 78.9922 38.5205 77.1868 37.6213L76.2539 39.4948C77.892 40.3105 79.483 41.4009 80.9422 42.7064Z" fill="#5DB93D"/>
<path d="M14.7873 40.3712C16.0125 41.9816 17.2612 43.5724 18.4981 45.1004L20.1245 43.7835C18.9009 42.2716 17.6655 40.697 16.453 39.1034L14.7873 40.3712Z" fill="#5DB93D"/>
<path d="M90.3216 106.761L89.3922 108.636C91.1913 109.528 93.0506 110.363 94.9191 111.119L95.7041 109.179C93.8835 108.443 92.073 107.629 90.3216 106.761Z" fill="#5DB93D"/>
<path d="M80.2049 100.723L78.9929 102.429C80.6234 103.587 82.3321 104.7 84.0712 105.737L85.1433 103.939C83.4519 102.931 81.7902 101.849 80.2049 100.723Z" fill="#5DB93D"/>
<path d="M124.477 114.657L124.521 116.75C126.563 116.707 128.604 116.57 130.586 116.341L130.346 114.262C128.429 114.483 126.454 114.617 124.477 114.657Z" fill="#5DB93D"/>
<path d="M50.2582 72.0621L49.1909 73.8624C50.899 74.8747 52.7685 75.7664 54.7491 76.5127L55.4871 74.5544C53.6204 73.8508 51.861 73.0126 50.2582 72.0621Z" fill="#5DB93D"/>
<path d="M69.7345 94.5986C71.1385 96.0141 72.6399 97.3987 74.1967 98.7134L75.5469 97.1142C74.0368 95.8391 72.581 94.497 71.22 93.1251L69.7345 94.5986Z" fill="#5DB93D"/>
<path d="M112.731 113.875L112.416 115.944C114.426 116.25 116.456 116.474 118.449 116.609L118.591 114.521C116.655 114.39 114.684 114.172 112.731 113.875Z" fill="#5DB93D"/>
<path d="M101.254 111.178L100.619 113.173C102.546 113.786 104.512 114.329 106.462 114.788L106.941 112.751C105.043 112.304 103.13 111.775 101.254 111.178Z" fill="#5DB93D"/>
<path d="M56.4796 74.381C57.1889 76.2601 58.024 78.1337 58.9616 79.9494L60.8214 78.9894C59.9208 77.2448 59.1185 75.4453 58.4374 73.6419L56.4796 74.381Z" fill="#5DB93D"/>
<path d="M86.8528 68.3532C86.5753 68.799 86.2694 69.2353 85.9439 69.6505C85.4053 70.3374 84.7926 70.9916 84.1238 71.5948C83.7898 71.895 83.4407 72.1868 83.085 72.4619L84.3657 74.1176C84.7624 73.8107 85.1524 73.4853 85.525 73.1497C86.2835 72.4659 86.9787 71.7233 87.5915 70.9419C87.9634 70.4676 88.3124 69.9689 88.6301 69.4595L86.8528 68.3532Z" fill="#5DB93D"/>
<path d="M61.0686 76.1741L60.6427 78.2228C62.6759 78.6457 64.7265 78.9054 66.7388 78.9958L66.8323 76.9053C64.9316 76.8201 62.9925 76.5741 61.0686 76.1741Z" fill="#5DB93D"/>
<path d="M72.6046 76.6456L72.8976 78.7178C75.03 78.4162 77.0537 77.8957 78.9119 77.1712L78.1515 75.2215C76.4434 75.8875 74.5771 76.3666 72.6046 76.6456Z" fill="#5DB93D"/>
<path d="M62.0474 85.2002C63.1519 86.8669 64.3685 88.5126 65.6635 90.0913L67.2819 88.7641C66.0315 87.2394 64.8572 85.6515 63.792 84.0434L62.0474 85.2002Z" fill="#5DB93D"/>
</svg>
