<svg width="24" height="25" viewBox="0 0 24 25" fill="none" xmlns="http://www.w3.org/2000/svg">
<path d="M4.94999 15.0372C4.455 16.2821 3.67501 17.5121 2.63251 18.6972C2.30251 19.0722 2.25751 19.6121 2.5275 20.0321C2.73752 20.3621 3.08249 20.5421 3.45749 20.5421C3.5625 20.5421 3.66751 20.5347 3.77252 20.4971C5.97748 19.8521 11.13 17.5647 11.2725 10.2296C11.325 7.40216 9.25502 4.97217 6.5625 4.69467C5.07001 4.54466 3.58502 5.03213 2.4825 6.02214C1.38002 7.01965 0.75 8.44467 0.75 9.92965C0.75 12.4046 2.50502 14.5722 4.94999 15.0372Z" fill="#5DB93D"/>
<path d="M18.5326 4.69467C17.0475 4.54466 15.5626 5.03213 14.4601 6.02214C13.3576 7.01965 12.7275 8.44467 12.7275 9.92965C12.7275 12.4046 14.4826 14.5722 16.9276 15.0372C16.4325 16.2821 15.6526 17.5121 14.61 18.6972C14.28 19.0722 14.235 19.6121 14.5051 20.0321C14.7151 20.3621 15.0601 20.5421 15.4351 20.5421C15.54 20.5421 15.6451 20.5347 15.7501 20.4971C17.9551 19.8521 23.1076 17.5646 23.2501 10.2296V10.1247C23.2501 7.34214 21.2026 4.97217 18.5326 4.69467Z" fill="#5DB93D"/>
</svg>
