<svg width="76" height="50" viewBox="0 0 76 50" fill="none" xmlns="http://www.w3.org/2000/svg">
<g clip-path="url(#clip0_964_67)">
<path d="M4.05937 10.0685C6.04209 8.57303 8.51992 7.64555 11.0388 7.07937C13.6403 6.48228 16.3138 6.32906 18.9665 6.37196C23.9933 6.4679 28.9369 7.34826 33.6841 8.96137C43.8594 12.4976 52.691 18.9852 59.6844 27.1025C62.3662 30.242 64.7176 33.5051 66.9657 36.9953C65.9649 36.3341 64.768 35.6521 63.571 34.9702C59.8667 32.8726 55.9455 30.9503 51.9519 29.3377C51.1883 29.0585 50.3106 29.4812 49.7426 29.9763C49.4432 30.1825 48.5342 31.2761 49.2978 31.5553C53.0953 33.1472 56.8721 34.9351 60.4629 36.9811C62.2583 38.004 63.9711 39.0579 65.6839 40.1118C66.5403 40.6387 67.3967 41.1657 68.2014 41.8061C68.6864 42.0954 69.0888 42.4156 69.5737 42.7049C69.8626 42.9735 70.3992 43.1493 70.3577 43.5415C70.3987 43.9028 70.6258 44.0062 70.9354 44.0786C71.3585 44.2027 72.1328 44.0071 72.3806 43.9143C73.093 43.5535 73.8262 42.9965 73.9092 42.2121C74.7393 35.1214 73.9179 27.8956 71.4963 21.1745C71.4036 20.9267 70.9288 20.9161 70.7327 20.8953C70.2888 20.9673 69.8758 21.1219 69.4937 21.3591C69.06 21.7098 68.2751 22.3802 68.5225 23.041C70.0784 27.4494 70.9427 32.0225 71.0844 36.6778C65.8255 27.9113 59.09 19.98 50.7535 14.0604C42.3034 8.08922 32.087 4.19165 21.693 3.84473C14.8497 3.67544 7.9745 4.93055 2.37748 9.09723C2.02634 9.417 1.2207 10.2836 1.93268 10.6762C2.59297 11.1824 3.62563 10.4192 4.05937 10.0685Z" fill="#5DB93D"/>
</g>
<defs>
<clipPath id="clip0_964_67">
<rect width="76" height="50" fill="white"/>
</clipPath>
</defs>
</svg>
